<?xml version="1.0" encoding="UTF-8"?>
<svg version="1.1" viewBox="0 0 1600 1464" width="1280" height="1280" xmlns="http://www.w3.org/2000/svg">
<path transform="translate(0)" d="m0 0h1600v1464h-1600v-1464z" fill="#000002"/>
<path transform="translate(0)" d="m0 0h1600v1464h-1600v-1464zm769 85c-2.42 0.0597-4.85 0.0607-7.27 0.0273-1.47-0.0144-2.94-0.0282-4.41-0.0415-0.767-0.00832-1.53-0.0166-2.32-0.0252-14.4-0.141-28.6 0.206-43 2.04-1.15 0.144-2.3 0.289-3.49 0.438-2.78 0.38-5.54 0.798-8.31 1.23-2.74 0.414-5.49 0.792-8.24 1.17-11.4 1.59-22.7 3.36-33.9 5.79-0.958 0.206-1.92 0.412-2.9 0.624-4.71 0.991-4.71 0.991-9.14 2.77-2.29 1.11-4.25 1.46-6.76 1.83-6.87 1.17-13.5 3.02-20.2 4.92-2.11 0.598-4.22 1.18-6.33 1.77-6.66 1.87-13.2 3.89-19.5 6.58-3.38 1.36-6.85 2.3-10.4 3.25-7.37 2.1-14.4 4.67-21.5 7.65-2.68 1.13-5.36 2.23-8.04 3.34-21 8.71-41.8 17.8-61.8 28.7-2.46 1.33-4.92 2.61-7.42 3.85-10.8 5.38-21.4 11.3-31.4 18.2-2.7 1.85-5.45 3.62-8.22 5.36-9.34 5.91-18.5 12.1-27.5 18.5l-1.98 1.4c-8.36 5.91-16.6 11.9-24.3 18.6-3.86 3.35-7.84 6.52-11.9 9.65-5.05 3.92-9.87 8-14.6 12.3-2.09 1.91-4.21 3.77-6.36 5.61-3.45 3-6.66 6.2-9.87 9.46-1.98 1.94-4.02 3.74-6.13 5.54-3.11 2.67-5.78 5.48-8.36 8.66-2.05 2.39-4.28 4.56-6.52 6.77-8.38 8.26-8.38 8.26-16.3 17-1.99 2.32-4.05 4.57-6.11 6.83-18.2 20.3-34.5 42.6-49.6 65.2-0.754 1.12-0.754 1.12-1.52 2.27-13.9 20.8-26.2 42.4-37.5 64.7-0.519 1.02-1.04 2.03-1.57 3.08-6.19 12.1-12.3 24.3-17.4 36.9-0.4 0.979-0.801 1.96-1.21 2.97-6.53 16.1-12.4 32.3-17.7 48.8-0.737 2.26-1.49 4.51-2.26 6.76-3.26 9.55-6.05 19.2-8.61 28.9-0.319 1.21-0.319 1.21-0.645 2.45-7.74 29.6-13.7 59.6-16.5 90.1-0.129 1.29-0.129 1.29-0.26 2.61-0.914 10.2-0.885 20.3-0.872 30.5-6.75e-4 1.92-0.00165 3.84-0.0029 5.77-0.00146 4 6.4e-4 8 0.00534 12 0.00573 5.13 0.00239 10.3-0.00357 15.4-0.00361 3.96-0.00247 7.91 1.28e-4 11.9 6.66e-4 1.89-1.49e-4 3.78-0.00248 5.68-0.00254 2.63 0.00133 5.27 0.0069 7.9-0.00202 0.779-0.00405 1.56-0.00613 2.36 0.0135 3.45 0.122 6.57 1.14 9.87 0.0459 1.47 0.0393 2.94-0.00781 4.4-0.79 36.2 5.62 72.8 14.1 108 0.865 3.57 1.71 7.15 2.55 10.7 8.11 34 19.6 66.8 33.3 99 0.329 0.776 0.658 1.55 0.997 2.35 3.91 9.23 8.16 18.3 12.7 27.2 1.45 2.84 2.89 5.69 4.32 8.54 8.33 16.4 17.4 32.2 26.9 47.9l1.45 2.41c6.98 11.6 14.7 22.6 22.5 33.6 0.594 0.83 1.19 1.66 1.8 2.52 7.22 10.1 14.7 19.7 22.9 29 1.96 2.27 3.82 4.62 5.69 6.96 4.73 5.82 9.85 11.2 15 16.7 2.65 2.8 5.22 5.66 7.78 8.54 5.07 5.65 10.4 11 15.8 16.4 1.65 1.64 3.29 3.29 4.93 4.94 5.01 5.02 10.1 9.95 15.5 14.6 2.51 2.16 4.91 4.44 7.32 6.7 5.43 5.04 11.2 9.62 17 14.1 2.9 2.24 5.73 4.56 8.54 6.92 29.2 24 61.8 44.5 94.8 62.7l2.29 1.27c11.6 6.43 23.6 12 35.7 17.4 2.81 1.27 5.61 2.54 8.42 3.82 1.7 0.775 3.41 1.55 5.11 2.32 1.1 0.505 1.1 0.505 2.23 1.02 14.1 6.38 28.7 11.6 43.3 16.5 0.971 0.33 1.94 0.66 2.94 1 28.2 9.57 56.6 16.6 85.9 22.2 1.81 0.351 3.63 0.71 5.44 1.07 12.6 2.51 25.4 4.09 38.2 5.52 0.754 0.085 1.51 0.17 2.28 0.258 23.6 2.63 47.3 2.76 71.1 2.74 1.12-4e-4 1.12-4e-4 2.27-8.09e-4 45.8-0.0205 89.8-3.13 135-12.2 1.23-0.245 2.47-0.49 3.74-0.743 3.59-0.717 7.17-1.45 10.8-2.19 1.01-0.204 2.02-0.408 3.06-0.619 19.3-4.1 38-10.5 56.6-16.8 3.21-1.09 6.42-2.17 9.63-3.24 11.7-3.96 23.1-8.31 34.3-13.5 2.75-1.27 5.53-2.47 8.31-3.67 41.6-18.1 79.9-40 117-66.7 1.92-1.39 3.85-2.76 5.79-4.12 8.12-5.7 15.9-11.8 23.6-18 2.36-1.91 4.74-3.79 7.12-5.68 7.16-5.74 13.9-11.9 20.6-18.1 3.33-3.08 6.67-6.14 10-9.17l2.38-2.14c1.85-1.66 3.7-3.3 5.56-4.95 1.02-0.91 2.04-1.82 3.06-2.73l2.82-2.5c2.29-1.82 2.29-1.82 2.05-4.07l1.79-0.762c2.49-1.39 3.84-2.86 5.65-5.05 2.7-3.24 5.57-6.21 8.56-9.19 13.1-14.1 25.4-28.7 37-44 0.483-0.635 0.965-1.27 1.46-1.92 6.74-8.88 13.3-17.8 19.5-27.1 0.762-1.11 1.52-2.22 2.29-3.33 7.68-11.3 14.7-23 21.7-34.7 0.497-0.831 0.994-1.66 1.51-2.52 10.9-18.2 20.6-37.1 29.5-56.3 0.952-2.05 1.92-4.09 2.89-6.12 5.28-11.1 9.86-22.4 13.9-33.9 0.387-1.1 0.387-1.1 0.781-2.22 0.803-2.29 1.6-4.58 2.4-6.87 0.371-1.06 0.371-1.06 0.749-2.14 17.2-49.2 28.7-100 32.9-152 0.198-2.42 0.406-4.84 0.625-7.26 4.67-51.6 1.95-104-5.32-156-0.25-1.77-0.25-1.77-0.506-3.58-4.83-33-13.2-65.7-23.5-97.4-0.209-0.645-0.418-1.29-0.633-1.95-5.9-18.1-12.5-35.9-20.2-53.3-1.07-2.43-2.12-4.88-3.16-7.33-3.98-9.32-8.4-18.4-13-27.4-0.413-0.806-0.825-1.61-1.25-2.44-13-25.4-27.7-49.9-43.7-73.6-1.97-2.93-3.89-5.8-5.62-8.88-0.454-0.701-0.908-1.4-1.38-2.12h-2c-0.262-0.567-0.524-1.13-0.793-1.72-1.31-2.47-2.82-4.55-4.52-6.77-0.659-0.863-1.32-1.73-2-2.62-0.703-0.913-1.41-1.83-2.13-2.77-0.722-0.941-1.44-1.88-2.19-2.85-1.45-1.89-2.91-3.78-4.36-5.67-1.71-2.22-3.42-4.45-5.13-6.68-5.17-6.72-10.6-13.1-16.4-19.3-2.04-2.19-4.03-4.4-5.98-6.66-3.42-3.95-6.95-7.79-10.5-11.6-2.27-2.46-4.48-4.95-6.59-7.55-1.98-2.34-3.85-4.23-6.21-6.15-3-2.55-5.61-5.21-8.19-8.19-3.08-3.55-6.29-6.66-9.88-9.7-2.36-2.01-4.64-4.09-6.93-6.18-5.25-4.73-10.7-9.19-16.2-13.6-1.73-1.42-3.46-2.83-5.19-4.25-1.37-1.11-1.37-1.11-2.76-2.25-2.22-1.82-4.43-3.65-6.63-5.5-10-8.36-20.5-15.8-31.4-23-1.83-1.23-3.66-2.46-5.49-3.68-13.1-8.84-13.1-8.84-26.5-17.3-0.548-0.339-1.1-0.677-1.66-1.03-13.7-8.41-28-15.7-42.3-23-1.48-0.762-2.96-1.52-4.45-2.29-17.1-8.72-34.6-16.4-52.4-23.7-0.677-0.275-1.35-0.55-2.05-0.834-15.2-6.19-15.2-6.19-30.8-11.2-5.24-1.46-10.5-2.96-15.7-4.5-1.07-0.315-1.07-0.315-2.17-0.636-3.54-1.04-7.08-2.09-10.6-3.18-9.78-2.99-19.6-5.35-29.6-7.55-3.93-0.871-7.83-1.83-11.7-2.87-7.19-1.9-14.2-3.02-21.5-3.83-5.53-0.638-11-1.79-16.4-2.92-3.61-0.585-6.97-0.612-10.6-0.586-1.67-0.297-3.34-0.632-5-1-25.8-3.78-52.4-3.08-78.4-3.12-0.999-0.00268-2-0.00536-3.03-0.00812-2.84-0.00581-5.69-0.00416-8.53 3.05e-4 -1.28-0.00296-1.28-0.00296-2.58-0.00598-0.789 0.0031-1.58 0.0062-2.39 0.0094-0.685 7.96e-4 -1.37 0.00159-2.08 0.00241-2.09 0.136-3.93 0.613-5.95 1.13z" fill="#F9FCFE"/>
<path transform="translate(774 277)" d="m0 0c1.53-0.00957 1.53-0.00957 3.08-0.0193 1.11-0.00111 2.21-0.00223 3.35-0.00337 1.15-0.00333 2.31-0.00666 3.5-0.0101 2.46-0.00507 4.92-0.00741 7.39-0.00725 3.67-0.00214 7.34-0.0202 11-0.0393 22.2-0.0559 44.1 0.959 65.9 5.35 0.775 0.152 1.55 0.304 2.35 0.46 38.9 7.64 76.4 19.9 112 36.4 1.76 0.788 3.52 1.58 5.27 2.36 17.4 7.89 34.1 17.4 49.8 28.3 2.25 1.56 4.52 3.09 6.78 4.62 1.69 1.14 3.37 2.28 5.05 3.43 0.773 0.523 1.55 1.05 2.34 1.58 4.7 3.21 9.25 6.57 13.7 10.1 2.09 1.65 4.2 3.26 6.31 4.88 8.41 6.56 16.6 13.4 24 21 1.66 1.66 3.39 3.13 5.22 4.59 0.825 0.701 1.65 1.4 2.5 2.12v2c0.536 0.206 1.07 0.413 1.62 0.625 3.29 1.91 5.97 4.42 8.38 7.38v2h2c1.41 1.43 1.41 1.43 3.06 3.44 2.6 3.07 5.28 5.91 8.19 8.69 5.31 5.26 9.78 11.1 14.3 17 1.4 1.82 2.83 3.62 4.27 5.41 16.8 21.2 32 44.3 44.2 68.5 0.737 1.43 1.47 2.86 2.21 4.3 4.53 8.88 8.78 17.9 13 26.9 0.662 1.43 1.33 2.85 2 4.27 3.37 7.32 6.1 14.9 8.82 22.5 0.272 0.758 0.544 1.52 0.825 2.3 15 42.2 21.1 84.5 24.9 129 0.251 2.88 0.518 5.75 0.785 8.63 2.44 26.8-1.24 53.6-4.54 80.1-0.0868 0.704-0.174 1.41-0.263 2.13-4.82 38.7-17 77.2-32.7 113-0.394 0.908-0.788 1.82-1.19 2.75-5.58 12.8-11.7 25.2-18.8 37.2-0.692 1.19-0.692 1.19-1.4 2.41-9.83 16.9-20.7 33.1-32.6 48.6-1.15 1.55-1.15 1.55-2.32 3.12-5.92 7.95-12.4 15.2-19.3 22.3-3.52 3.74-7.03 7.53-9.99 11.7-0.477 0.59-0.954 1.18-1.45 1.79h-2c-0.227 0.536-0.454 1.07-0.688 1.62-1.77 3.2-3.85 5.67-6.31 8.38h-2c-0.259 0.584-0.518 1.17-0.785 1.77-3.78 6.93-11.2 12-17.3 16.8-2.53 2.05-5 4.15-7.45 6.29-20.5 17.7-44 32.8-67.5 46.1-0.972 0.556-1.94 1.11-2.95 1.68-8.7 4.8-17.7 8.95-26.7 13-0.616 0.276-1.23 0.552-1.87 0.836-8.1 3.62-16.2 7.09-24.4 10.5-1.13 0.476-2.25 0.951-3.41 1.44-0.875 0.37-1.75 0.74-2.65 1.12-0.878 0.373-1.76 0.745-2.66 1.13-29.1 11.6-60.4 17.6-91.3 22.3-0.962 0.146-1.92 0.291-2.92 0.441-2.86 0.427-5.72 0.84-8.58 1.25-0.823 0.119-1.65 0.239-2.49 0.362-15.7 2.14-31.5 2.14-47.3 2.14-3.56 0.00217-7.11 0.0203-10.7 0.0393-21.9 0.056-43.5-1.17-65.1-5.04-1.53-0.267-3.07-0.533-4.6-0.799-3.77-0.657-7.53-1.33-11.3-2.01-2-0.36-4-0.712-6-1.06-11.5-2.03-22.8-4.13-33.8-8.14-3.27-1.17-6.54-2.09-9.9-2.98-36.7-10.3-76.3-29.1-108-50.9-1.93-1.34-3.87-2.66-5.81-3.98-19.8-13.4-38.4-28-56.3-43.8-1.22-1.06-2.46-2.11-3.71-3.14-0.642-0.532-1.28-1.06-1.95-1.61-0.587-0.479-1.17-0.958-1.78-1.45-1.29-1.29-1.29-1.29-1.29-3.29h-2c-1.45-1.47-1.45-1.47-3.12-3.5-2.52-2.97-5.1-5.78-7.88-8.5-3.12-3.08-6.05-6.24-8.91-9.57-1.65-1.92-3.32-3.82-5-5.71-12.4-14-23.2-28.9-33.6-44.4-0.981-1.46-1.97-2.92-2.96-4.38-40-58.7-62.7-129-70.3-199-0.245-2.19-0.527-4.37-0.824-6.55-1.15-9.94-1.22-20-1.46-30-0.0202-0.819-0.0403-1.64-0.0611-2.48-1.95-81.7 18.6-160 59.6-231 1.28-2.23 2.54-4.46 3.78-6.71 3.49-6.29 7.24-12.2 11.6-17.9 2.39-3.26 4.59-6.62 6.8-10 5.67-8.63 11.9-16.8 18.3-24.9 1.16-1.48 1.16-1.48 2.34-2.99 9.84-12.3 21-23.5 32.1-34.6 1.13-1.14 2.26-2.28 3.39-3.43 7.06-7.14 14.3-13.7 22.1-19.9 1.67-1.39 3.34-2.79 5-4.19 7.38-6.05 15.1-11.6 22.8-17.2 1.82-1.33 3.63-2.66 5.44-4.01 6.07-4.48 12.3-8.59 18.7-12.6 0.95-0.603 1.9-1.21 2.88-1.83 3.35-2.1 6.72-4.16 10.1-6.17 0.66-0.391 1.32-0.783 2-1.19 33-19.3 69.3-33.6 106-43.8 1.09-0.316 2.19-0.631 3.32-0.957 15.9-4.56 32-7.43 48.3-9.98 0.976-0.156 1.95-0.312 2.96-0.472 11.4-1.8 22.4-2.93 34-2.6 3.97 0.0115 7.41-1.12 11.4-1.14z" fill="#F9FCFE"/>
<path transform="translate(891 89.9)" d="m0 0c6.03-0.246 11.9 0.997 17.8 2.11 0.767 0.144 1.53 0.289 2.32 0.438 2.56 0.501 5.12 1.03 7.68 1.56 1.38 0.28 2.76 0.56 4.14 0.84 14.9 3.05 29.8 6.43 44.3 11.1 5.44 1.69 10.9 3.2 16.4 4.72 12.8 3.61 25.3 8.06 37.7 12.9 0.655 0.253 1.31 0.507 1.99 0.768 13.7 5.3 27 11.2 40.3 17.3 2.62 1.21 5.24 2.4 7.87 3.58 9.86 4.49 19.3 9.62 28.8 14.9 5.45 3.01 11 5.92 16.5 8.76 10.5 5.47 20.2 12.4 30.1 19 0.591 0.395 1.18 0.789 1.79 1.2 4.01 2.68 8.02 5.37 12 8.05 0.85 0.569 1.7 1.14 2.58 1.72 13.1 8.79 25.3 18.4 37.3 28.7 2.83 2.41 5.7 4.77 8.58 7.12 26.9 21.9 26.9 21.9 36.1 32.9 1.51 1.8 1.51 1.8 3.94 3.63 2.23 1.78 3.85 3.48 5.7 5.64 3.61 4.17 7.38 8.18 11.2 12.2 5.13 5.43 10 10.9 14.7 16.8 1.83 2.26 3.74 4.4 5.71 6.54 5.62 6.25 10.6 13 15.6 19.7 1.53 2.01 3.08 4.01 4.64 6.01 0.462 0.593 0.925 1.19 1.4 1.8 1.25 1.6 2.5 3.19 3.75 4.78 1.83 2.54 1.83 2.54 2.83 5.54h2c1.43 1.97 2.73 3.93 4 6 0.544 0.868 0.544 0.868 1.1 1.75 1.18 1.89 2.35 3.79 3.53 5.68 3.81 6.14 7.73 12.2 11.8 18.2 16.6 24.5 30.1 51.6 42.6 78.4 0.457 0.985 0.913 1.97 1.38 2.98 7.82 17 14.5 34.4 20.6 52 0.632 1.8 0.632 1.8 1.28 3.64 17.2 49.5 27 101 31.4 153 0.0609 0.728 0.122 1.46 0.185 2.21 1.57 19 2.36 37.9 2.38 57 0.00101 1.05 0.00201 2.1 0.00305 3.19-0.0518 81.1-15.1 163-46.4 238-0.762 1.83-1.51 3.66-2.25 5.5-2.19 5.39-4.61 10.6-7.22 15.8-1.77 3.54-3.45 7.12-5.14 10.7-7.62 16.1-15.5 32.1-25.1 47.2-1.9 3.05-3.73 6.15-5.57 9.25-4.97 8.36-10 16.6-15.6 24.6-0.728 1.06-1.46 2.13-2.21 3.23-7.64 11.1-15.6 22-23.8 32.8-0.524 0.691-1.05 1.38-1.59 2.09-7.41 9.74-15 19-23.4 27.9-3.72 4.1-7.25 8.29-10.6 12.7-2.59 3.37-5.29 6.38-8.38 9.31-0.777 0.808-0.777 0.808-1.57 1.63-1.44 1.49-2.93 2.93-4.43 4.37h-2c-0.227 0.565-0.454 1.13-0.688 1.71-1.68 2.92-3.77 4.71-6.31 6.91-0.887 0.776-1.77 1.55-2.69 2.35-0.763 0.668-1.53 1.34-2.31 2.02-0.66 0.66-1.32 1.32-2 2-1.75 0.527-3.53 0.973-5.31 1.38-5.65 1.33-11.2 2.97-16.7 4.76-22.6 6.51-51.5 2.35-72.3-8.13-17.6-9.88-32.8-22.7-41.8-41-0.556-1.12-1.11-2.25-1.68-3.41-9.57-20.8-12.7-46.9-4.91-68.9 0.503-1.29 1.01-2.58 1.54-3.87 0.534-1.37 1.07-2.74 1.6-4.11 0.253-0.645 0.506-1.29 0.766-1.96 2.72-6.72 2.72-6.72 3.7-13.8 2.64-3.71 5.79-6.79 9-10 0.66-0.825 1.32-1.65 2-2.5 2.17-2.71 4.54-5.05 7-7.5 4.06-4.28 8.03-8.64 12-13 0.965-1.06 0.965-1.06 1.95-2.13 9.73-10.9 18.2-22.7 26.6-34.7 1.04-1.5 2.1-2.99 3.16-4.47 4.51-6.34 8.61-12.9 12.6-19.6 0.98-1.65 0.98-1.65 1.98-3.32 1.93-3.26 3.85-6.53 5.77-9.8 0.517-0.88 1.03-1.76 1.57-2.67 49.7-85.3 61.4-184 39.4-335-0.654-2.44-1.31-4.88-1.97-7.32-0.27-0.998-0.539-2-0.817-3.02-3.28-12-7.54-23.4-12.3-34.8-0.839-2.06-1.63-4.14-2.39-6.23-4.55-12.3-10.4-24.1-16.4-35.7-1.21-2.38-2.37-4.78-3.53-7.18-14.7-29.8-34.8-58.1-56.6-83-0.949-1.12-0.949-1.12-1.92-2.25-3.89-4.54-8.04-8.73-12.4-12.9-1.72-1.88-1.72-1.88-1.72-3.88h-2c-1.55-1.57-1.55-1.57-3.31-3.69-5.8-6.92-12.5-12.9-19.2-18.9-1.36-1.24-2.71-2.49-4.06-3.74-6.5-5.98-13.4-11.4-20.5-16.6-0.611-0.457-1.22-0.914-1.85-1.38-7.65-5.71-15.4-11.2-23.4-16.4-2.05-1.35-4.09-2.72-6.13-4.09-50.8-34-112-57.4-172-66.4-1.16-0.18-2.32-0.359-3.51-0.544-1.03-0.149-2.05-0.298-3.11-0.452-2.84-0.76-3.68-1.53-5.57-3.69-1.22-0.8-2.47-1.56-3.74-2.28-25.5-14.8-43.4-33.8-51.3-62.7-6.71-26.8-2.17-51.1 11.2-75 2.89-4.69 6.24-8.83 9.84-13 0.963-1.21 0.963-1.21 1.95-2.45 14-16.9 38.5-29.4 60.2-32.2 4.02-0.303 8.01-0.246 12-0.445z" fill="#00BE70"/>
<path transform="translate(764 593)" d="m0 0c0.723 0.599 1.45 1.2 2.19 1.82 0.672 0.548 1.34 1.1 2.04 1.66 23.9 21.7 28.2 58.1 29.9 88.3 0.265 5.58 0.237 11.2 0.228 16.8 6.77e-4 1.37 0.00165 2.73 0.0029 4.1 0.00146 2.84-6.17e-4 5.68-0.00534 8.52-0.00567 3.58-0.00233 7.15 0.00343 10.7 0.118 85.7 0.118 85.7-28.8 117-16.5 15.7-39 19.5-61 19.1-24.1-1.33-43-8.45-60.2-26.1-24.8-28.6-24.3-73.4-24.3-109 1.2e-4 -3.97-0.0203-7.94-0.0393-11.9-0.0291-12.9 0.206-25.7 1.1-38.6 0.0756-1.11 0.151-2.22 0.229-3.37 1.93-25 9.12-51.3 25.9-70.4 0.57-0.675 1.14-1.35 1.73-2.05 25.8-28.4 81.5-29.3 111-6.77z" fill="#000002"/>
<path transform="translate(529 582)" d="m0 0c0.774 0.00141 1.55 0.00283 2.35 0.00429 2.48 0.0056 4.95 0.0182 7.43 0.0309 1.68 0.00501 3.35 0.00958 5.03 0.0137 4.11 0.011 8.23 0.0283 12.3 0.0488 0.96 2.88 1.12 4.67 1.11 7.66-7.55e-5 0.941-1.51e-4 1.88-2.29e-4 2.85-0.00516 1.01-0.0103 2.03-0.0156 3.07-0.00212 1.56-0.00212 1.56-0.00429 3.15-0.0056 3.32-0.0182 6.64-0.0309 9.96-0.00501 2.25-0.00958 4.5-0.0137 6.75-0.011 5.52-0.0278 11-0.0488 16.6 0.99 0.33 1.98 0.66 3 1h-2c-1.1 7.09-1.14 14.1-1.13 21.2-9.57e-4 1.25-0.00191 2.5-0.0029 3.79-8.51e-4 3.3 0.00315 6.6 0.00876 9.91 0.00261 2.71-0.00222 5.42-0.00699 8.12-0.00447 3.23-0.00135 6.45 0.00113 9.68-0.00304 1.82-0.00304 1.82-0.00613 3.69 0.00315 1.12 0.0063 2.23 0.00955 3.38 7.96e-4 0.986 0.00159 1.97 0.00241 2.99-0.123 2.2-0.123 2.2 1.13 3.23-0.237 2.08-0.478 4.16-0.733 6.24-0.502 5.2-0.409 10.4-0.399 15.6-9.57e-4 1.21-0.00191 2.41-0.0029 3.65-6.77e-4 2.53 0.00114 5.06 0.00534 7.59 0.00539 3.89 2.03e-5 7.79-0.00635 11.7 6.6e-4 2.46 0.00194 4.92 0.00391 7.39-0.00304 1.75-0.00304 1.75-0.00613 3.54 0.00315 1.07 0.0063 2.14 0.00955 3.25 7.96e-4 0.948 0.00159 1.9 0.00241 2.87-0.113 2.13-0.113 2.13 1.13 3.15 2.5 0.135 4.97 0.21 7.46 0.246 1.54 0.0329 3.07 0.0661 4.61 0.0996 2.43 0.0475 4.87 0.0919 7.3 0.131 2.34 0.0396 4.68 0.0912 7.02 0.144 0.73 0.00841 1.46 0.0168 2.21 0.0255 5.16 0.127 5.16 0.127 7.38 2.35 0.227 2.61 0.227 2.61 0.195 5.88-5e-3 1.05-0.00999 2.1-0.0151 3.18-0.0182 1.34-0.0364 2.68-0.0552 4.06-0.0412 4.25-0.0825 8.5-0.125 12.9-12.2 0.33-24.4 0.66-37 1-0.0229 6.21-0.0429 12.4-0.0549 18.6-0.00503 2.11-0.0119 4.23-0.0205 6.34-0.0121 3.04-0.0178 6.07-0.0222 9.11-0.00516 0.947-0.0103 1.89-0.0156 2.87-7.55e-5 0.881-1.51e-4 1.76-2.29e-4 2.67-0.00222 0.775-0.00444 1.55-0.00673 2.35 0.0442 2.24 0.0442 2.24 1.12 5.03-0.33 0.66-0.66 1.32-1 2-0.23 2.37-0.411 4.75-0.562 7.12-0.0838 1.28-0.168 2.56-0.254 3.88-0.0606 0.987-0.121 1.97-0.184 2.99-4.82 0.0247-9.65 0.0428-14.5 0.0549-1.64 0.00504-3.28 0.0119-4.93 0.0205-2.36 0.0121-4.71 0.0178-7.07 0.0222-0.739 0.00516-1.48 0.0103-2.24 0.0156-1.77 1.96e-4 -3.53-0.0513-5.3-0.113-1.77-1.77-1.16-4.3-1.19-6.7-0.0167-1.22-0.0334-2.44-0.0507-3.69-0.00668-0.655-0.0134-1.31-0.0202-1.98-0.021-2.04-0.048-4.08-0.0767-6.13-0.07-5.07-0.129-10.1-0.189-15.2-0.0509-4.28-0.106-8.57-0.166-12.8-0.0267-2.02-0.0474-4.03-0.068-6.05-0.0167-1.22-0.0334-2.44-0.0507-3.69-0.0125-1.08-0.0251-2.16-0.038-3.27 0.121-2.38 0.121-2.38-1.15-3.43-1.58-0.106-3.16-0.142-4.75-0.151-1.54-0.0125-1.54-0.0125-3.11-0.0253-1.14-0.00418-2.27-0.00837-3.44-0.0127-1.78-0.0124-1.78-0.0124-3.6-0.0251-3.27-0.022-6.54-0.0397-9.81-0.0558-3.41-0.0181-6.83-0.0426-10.2-0.0666-8.69-0.0602-17.4-0.112-26.1-0.163-9.37-0.055-18.7-0.111-28.1-0.178-3.4-0.0237-6.8-0.0453-10.2-0.0621-3.79-0.0193-7.58-0.0445-11.4-0.0709-1.7-0.00628-1.7-0.00628-3.44-0.0127-1.54-0.0125-1.54-0.0125-3.11-0.0253-0.897-0.00515-1.79-0.0103-2.72-0.0156-2.03-0.136-2.03-0.136-3.03-1.14-1.5-12.7 0.234-20.9 7.69-31.2 1.73-2.4 3.34-4.86 4.96-7.33 1.24-1.88 2.49-3.74 3.75-5.61 2.73-4.05 5.39-8.15 8.04-12.2 0.457-0.709 0.915-1.42 1.39-2.15 0.929-1.44 1.86-2.88 2.79-4.32 2.29-3.56 4.59-7.11 6.89-10.7 0.914-1.41 1.83-2.83 2.74-4.24 1.86-2.87 3.72-5.75 5.58-8.62 4.6-7.1 9.19-14.2 13.8-21.3 2.96-4.61 5.94-9.21 8.91-13.8 1.83-2.83 3.67-5.67 5.5-8.5 0.397-0.614 0.794-1.23 1.2-1.86 3.87-5.99 7.71-12 11.5-18 4.01-6.46 8.12-12.8 12.4-19.2 3.56-5.3 7.05-10.6 10.5-16 0.55-0.846 1.1-1.69 1.67-2.56 2.53-3.9 5.05-7.8 7.53-11.7 0.414-0.653 0.829-1.31 1.26-1.98 1.1-1.73 2.19-3.47 3.28-5.21 3.07-4.42 6.61-3.59 11.6-3.55z" fill="#000002"/>
<path transform="translate(739 615)" d="m0 0c15 12.2 20.7 31.6 22.6 50.2 0.443 5.47 0.647 11 0.834 16.4 0.047 1.35 0.047 1.35 0.095 2.72 0.0239 0.796 0.0479 1.59 0.0725 2.41 0.142 2.7 0.142 2.7 0.681 5.8 0.488 3.76 0.588 7.31 0.546 11.1-0.00639 0.694-0.0128 1.39-0.0194 2.1-0.0226 2.27-0.0533 4.55-0.0849 6.82-0.0193 1.6-0.0383 3.2-0.0572 4.79-0.0409 3.34-0.0861 6.69-0.134 10-0.0604 4.25-0.107 8.51-0.151 12.8-0.0356 3.3-0.0798 6.6-0.126 9.9-0.0208 1.57-0.0388 3.13-0.0537 4.7-0.0897 9.02-0.603 17.7-2.43 26.6-0.182 0.927-0.364 1.85-0.552 2.81-3.12 15.7-7.15 31-20.4 41.2-12.7 7.87-27.2 8.91-41.7 6.35-11.6-3.52-21.3-11.1-27.2-21.7-13.4-26.4-12.4-56.8-12.3-85.7 0.00188-0.968 0.00377-1.94 0.00571-2.93 0.186-82.1 0.186-82.1 20.1-102 17-13 41.7-16.8 60.2-4.38z" fill="#F9FCFE"/>
<path transform="translate(1161,743)" d="m0 0c11.8 9.26 19 22.6 20.9 37.3 2.25 19.1 2.87 42.2-8.72 58.6-1.37 1.71-2.76 3.4-4.19 5.06-0.557 0.668-1.11 1.34-1.69 2.02-8.91 9.81-22.4 14.6-35.4 15.4-10.3 0.34-19.3-0.318-28.9-4.38-0.718-0.277-1.44-0.554-2.18-0.84-14.7-6.4-23.1-18.8-28.8-33.2-6.52-18.3-3.88-43 4.12-60.1 7.62-14.9 19.3-22.7 34.8-27.9 1.01-0.312 2.02-0.624 3.07-0.945 0.633-0.202 1.27-0.405 1.92-0.613 15.6-2.89 31.9 1.22 45.1 9.61z" fill="#000002"/>
<path transform="translate(1026 588)" d="m0 0c4.47 3.22 7.83 6.77 11.1 11.2 0.7 0.901 0.7 0.901 1.41 1.82 8.15 11.6 9.81 26.1 9.88 39.8 0.0114 1.46 0.0317 2.91 0.0615 4.37 0.36 17.6-2.62 33.1-15.1 46.3-12.3 11.7-25.9 15.1-42.6 14.9-17.5-0.723-31-6.73-43.1-19.5-8.21-10.5-11.9-24.6-12.6-37.7-0.0412-0.669-0.0825-1.34-0.125-2.03-0.587-19.1 3.96-38.4 17.2-52.7 20.5-19.1 50.3-21.4 73.9-6.46z" fill="#000002"/>
<path transform="translate(1114,611)" d="m0 0c7.18 0.16 12.4 3.77 18 8 1.44 2.87 1.3 4.8 1 8-1.25 2.36-2.48 4.39-4 6.56-0.832 1.24-1.66 2.47-2.49 3.71-0.421 0.621-0.842 1.24-1.28 1.88-1.87 2.8-3.61 5.66-5.36 8.53-2.32 3.79-4.66 7.57-7.06 11.3-6.28 9.82-12.4 19.8-18.5 29.7-6.31 10.2-12.7 20.4-19.1 30.6-3.38 5.34-6.65 10.7-9.88 16.2-3.28 5.5-6.77 10.9-10.3 16.2-2.96 4.55-5.82 9.16-8.59 13.8-3.59 6.06-7.36 12-11.2 17.9-3.47 5.33-6.9 10.7-10.3 16.1-0.497 0.786-0.994 1.57-1.51 2.38-2.53 4.01-5.03 8.04-7.49 12.1-0.485 0.8-0.969 1.6-1.47 2.42-0.908 1.5-1.81 3.01-2.71 4.52-2.99 4.95-6.28 9.57-9.83 14.1-4.77-0.508-7.73-1.81-11.7-4.5-2.84-1.91-5.06-3.42-8.31-4.5 1.6-5.92 4.62-10.8 7.75-16 0.857-1.44 0.857-1.44 1.73-2.91 5.29-8.82 10.8-17.5 16.4-26.2 3.8-5.93 7.5-11.9 11.2-17.9 4.77-7.83 9.63-15.6 14.6-23.3 10-15.7 19.9-31.5 29.6-47.4 6.25-10.3 12.6-20.4 19.2-30.5 6.4-9.83 12.5-19.8 18.7-29.8 0.809-1.31 1.62-2.63 2.43-3.94 1.31-2.12 2.61-4.25 3.92-6.37 2.2-3.57 4.43-7.13 6.66-10.7z" fill="#000002"/>
<path transform="translate(519,636)" d="m0 0 2 1c0.0233 16.5 0.041 33.1 0.0518 49.6 0.00516 7.68 0.0122 15.4 0.0236 23 0.00995 6.69 0.0164 13.4 0.0186 20.1 0.00131 3.55 0.00439 7.09 0.0116 10.6 0.00801 3.95 0.00826 7.9 0.0078 11.9 0.0036 1.18 0.00719 2.37 0.0109 3.59-0.00137 1.07-0.00275 2.14-0.00417 3.24 9.22e-4 0.936 0.00184 1.87 0.00279 2.84-0.123 2.11-0.123 2.11-1.12 3.11-2.53 0.095-5.02 0.126-7.55 0.114-1.19 2.19e-4 -1.19 2.19e-4 -2.39 4.43e-4 -2.62-6.99e-4 -5.25-0.00849-7.87-0.0163-1.81-0.00186-3.63-0.00329-5.44-0.00429-4.79-0.00383-9.57-0.0137-14.4-0.0247-4.88-0.0102-9.76-0.0148-14.6-0.0198-9.58-0.0107-19.2-0.0278-28.7-0.0488-1-3-1-3 0.0469-5.1 0.562-0.833 1.12-1.67 1.7-2.52 0.655-0.989 1.31-1.98 1.98-3 0.365-0.544 0.731-1.09 1.11-1.65 2.09-3.12 4.12-6.27 6.16-9.42 0.458-0.705 0.916-1.41 1.39-2.14 4.11-6.35 8.12-12.8 12.1-19.2 6.07-9.74 12.2-19.4 18.5-29 7.97-12.2 15.9-24.5 23.7-36.8 0.802-1.26 0.802-1.26 1.62-2.55 1.18-1.86 2.36-3.72 3.53-5.59 0.615-0.972 1.23-1.94 1.86-2.95 0.833-1.32 0.833-1.32 1.68-2.67 1.45-2.22 2.98-4.33 4.59-6.43z" fill="#F9FCFE"/>
<path transform="translate(1143 760)" d="m0 0c7.92 6.51 11.6 14.6 13 24.6 0.212 4.25 0.185 8.5 0.188 12.8 0.0122 1.13 0.0245 2.26 0.0371 3.42 0.0186 10.7-0.534 20.9-8.28 29-7.8 7.3-14.6 8.44-25 8.17-5.14-0.4-8.66-1.42-12.9-4.3-0.78-0.513-1.56-1.03-2.36-1.55-6.97-5.32-10.4-11.8-11.6-20.4-0.413-4.86-0.563-9.69-0.625-14.6-0.0233-1.22-0.0466-2.44-0.0706-3.69 0.096-11 2.74-21.9 10.6-30.1 10.5-8.27 25.5-10.7 37.1-3.3z" fill="#FAFDFE"/>
<path transform="translate(1006 604)" d="m0 0c7.1 4.2 12.1 12.2 14.8 19.8 1.37 6.29 1.14 12.8 1.15 19.2 0.0245 1.29 0.049 2.57 0.0742 3.9 0.0288 9.48-0.77 20-6.7 27.9-9.29 8.44-17.4 9.01-29.8 8.5-7.47-1.1-13.2-5.47-17.8-11.3-3.68-5.7-5.42-11-6.16-17.7-0.144-1.11-0.289-2.22-0.438-3.37-1.26-12.4-0.575-26 6.7-36.6 9.55-11.5 23.9-16.3 38.2-10.4z" fill="#F9FCFE"/>
<path transform="translate(846,1456)" d="m0 0h9v8h-12c-1-4-1-4 0-6h3v-2z" fill="#FEFEFE"/>
<path transform="translate(1470,1456)" d="m0 0h9v8h-11v-6h2v-2z" fill="#FEFEFE"/>
<path transform="translate(643,1456)" d="m0 0h4v8h-12c-1-4-1-4 0-6h8v-2z" fill="#FEFEFE"/>
<path transform="translate(1262,1456)" d="m0 0h8v8h-11v-6h3v-2z" fill="#FEFEFE"/>
<path transform="translate(1058,1456)" d="m0 0h5v8h-11v-6h6v-2z" fill="#FEFEFE"/>
<path transform="translate(429,1456)" d="m0 0h9v8h-9v-8z" fill="#FEFEFE"/>
<path transform="translate(221,1456)" d="m0 0h5v2c1.65-0.66 3.3-1.32 5-2v8h-7c-3-5.75-3-5.75-3-8z" fill="#FCFDFE"/>
<path transform="translate(1047,1321)" d="m0 0v7h-4c-0.33-0.99-0.66-1.98-1-3-1.32 0.33-2.64 0.66-4 1v-3c5.62-3.12 5.62-3.12 9-2z" fill="#FCFDFD"/>
<path transform="translate(519,636)" d="m0 0c0.66 0.33 1.32 0.66 2 1 0.25 2.75 0.25 2.75 0 6-2 2.38-2 2.38-4 4v-4c-0.66-0.33-1.32-0.66-2-1 1.32-1.98 2.64-3.96 4-6z" fill="#FDFDFD"/>
<path transform="translate(1253 1181)" d="m0 0c0.536 0.268 1.07 0.536 1.62 0.812v2c-1.65 0.33-3.3 0.66-5 1-0.33 1.32-0.66 2.64-1 4h-3c-0.33-0.99-0.66-1.98-1-3 5.42-5.05 5.42-5.05 8.38-4.81z" fill="#FDFDFD"/>
<path transform="translate(1391,973)" d="m0 0c0.103 0.619 0.206 1.24 0.312 1.88 0.563 2.49 0.563 2.49 3.69 4.12-0.33 0.99-0.66 1.98-1 3-0.33-0.66-0.66-1.32-1-2h-3v2h-2c-1-3-1-3-0.188-5.62 1.19-2.38 1.19-2.38 3.19-3.38z" fill="#FDFDFD"/>
<path transform="translate(766,278)" d="m0 0c0.99 0.66 1.98 1.32 3 2 0.408 2.71 0.133 5.24 0 8-1.94-0.562-1.94-0.562-4-2-0.75-3.62-0.75-3.62-1-7l2-1z" fill="#FDFDFD"/>
<path transform="translate(1178,767)" d="m0 0h2v2h6v4c-1.98 0.33-3.96 0.66-6 1-0.66-2.31-1.32-4.62-2-7z" fill="#FCFDFD"/>
<path transform="translate(987,1456)" d="m0 0h2v8h-4v-6h2v-2z" fill="#FEFEFE"/>
<path transform="translate(1318,352)" d="m0 0c2.97 0.495 2.97 0.495 6 1 0.33 1.65 0.66 3.3 1 5-0.99 0.33-1.98 0.66-3 1-4-4.75-4-4.75-4-7z" fill="#FCFDFD"/>
<path transform="translate(840,278)" d="m0 0c-0.33 1.98-0.66 3.96-1 6-1.32 0.33-2.64 0.66-4 1-0.33-1.98-0.66-3.96-1-6 2-1 2-1 6-1z" fill="#FCFDFD"/>
<path transform="translate(221,1456)" d="m0 0h5v8h-2c-3-5.75-3-5.75-3-8z" fill="#FEFEFE"/>
</svg>
