<?xml version="1.0" encoding="UTF-8"?>
<svg version="1.1" viewBox="0 0 1600 1472" width="1280" height="1280" xmlns="http://www.w3.org/2000/svg">
<path transform="translate(0)" d="m0 0h1600v1472h-1600v-1472z" fill="#000100"/>
<path transform="translate(0)" d="m0 0h1600v1472h-1600v-1472zm688 86.5c-2.99 0.516-5.98 1.01-8.97 1.5-18.3 3.03-36.3 6.93-54 12.4-3.64 1.11-7.29 2.18-10.9 3.26-0.653 0.194-1.31 0.388-1.98 0.588-3.81 1.12-7.62 2.19-11.5 3.22-5.65 1.53-11.2 3.23-16.8 5l-2.8 0.869c-5.17 1.64-10.1 3.51-15 5.78-2.91 1.31-5.91 2.35-8.92 3.42-17.2 6.29-34 14.1-50.3 22.5-3.48 1.79-6.99 3.52-10.5 5.27-1.28 0.642-2.57 1.28-3.85 1.93-2.13 1.06-4.26 2.12-6.39 3.17-12.8 6.5-25.2 13.7-37.1 21.6-1.81 1.15-3.62 2.3-5.44 3.44-20.9 13.3-40.8 27.7-59.9 43.4-1.75 1.44-3.51 2.88-5.27 4.3-16.3 13.3-31.8 27.2-46.7 42.1-0.475 0.472-0.949 0.944-1.44 1.43-5.03 5.01-9.95 10.1-14.6 15.5-2.73 3.15-5.62 6.15-8.49 9.17-5.67 6.03-11 12.2-16.1 18.7-0.616 0.759-1.23 1.52-1.87 2.3-25.7 31.7-48.2 65.4-67.9 101-0.408 0.735-0.815 1.47-1.24 2.23-27.5 50.3-50.6 107-61 164-1.2 6.45-2.73 12.8-4.28 19.2-1.21 5.15-1.95 10.1-2.39 15.4-0.376 3.21-1.37 6.19-2.27 9.28-0.634 3.67-1.1 7.36-1.56 11.1l-0.381 2.87c-1.93 15.1-2.32 30.2-2.61 45.4-0.0675 3.46-0.145 6.92-0.224 10.4-0.0449 2.23-0.0892 4.46-0.133 6.68-0.0239 1.02-0.0478 2.04-0.0724 3.09-0.0944 5.46 0.143 10.7 0.759 16.1 0.376 3.96 0.312 7.9 0.255 11.9-0.0147 1.81-0.0287 3.61-0.0422 5.42-0.00835 0.934-0.0167 1.87-0.0253 2.83-0.243 31.5 1.97 62.2 7.04 93.3l0.525 3.3c5.91 36.3 15.9 72.2 28.5 107 0.436 1.2 0.871 2.4 1.32 3.64 12.3 33.5 27.3 66.1 45.3 96.9 1.68 2.9 3.3 5.84 4.92 8.78 8.39 15.2 17.9 29.6 28.1 43.7 1.36 1.89 2.7 3.78 4.04 5.68 8.48 12 17.4 23.5 27 34.7 1.35 1.59 2.69 3.19 4.03 4.8 7.92 9.52 16.2 18.7 25 27.5 2.27 2.28 4.41 4.63 6.54 7.04 6.58 7.34 13.5 14.3 20.9 20.7 1.87 1.65 3.62 3.37 5.36 5.14 3.66 3.71 7.54 7.11 11.5 10.5l2.77 2.39c9.15 7.87 18.7 15.3 28.2 22.6 1.03 0.791 2.05 1.58 3.11 2.4 14.2 10.8 28.9 20.8 43.9 30.3 1.97 1.25 3.93 2.5 5.89 3.76 10.8 6.89 21.9 13.3 33.1 19.5 0.642 0.363 1.28 0.726 1.95 1.1 12.2 6.87 25 12.6 37.7 18.4 2.96 1.36 5.92 2.72 8.88 4.09 58.4 26.9 122 43.2 186 50.3 1.51 0.168 1.51 0.168 3.04 0.339 21.2 2.13 42.5 2.01 63.8 1.98 3.88-0.00568 7.76-0.00231 11.6 0.00344 23.8 0.0299 47.5-0.109 71.2-2.73 3.86-0.396 7.64-0.453 11.5-0.35 2.96-0.0759 5.67-0.788 8.53-1.49 2.81-0.624 5.6-1 8.45-1.37 47-6.54 93-20.1 137-37 1.1-0.418 1.1-0.418 2.22-0.844 9.95-3.76 9.95-3.76 19.6-8.3 2.65-1.36 5.35-2.58 8.05-3.82 23-10.5 45.5-21.8 67-35.2l2.44-1.51c20.9-13 41.5-26.8 60.6-42.5 1.71-1.38 3.41-2.75 5.12-4.12l2.49-2c2.78-2.19 5.62-4.29 8.5-6.36 2.48-2 4.64-4.25 6.89-6.52 2.08-1.98 4.2-3.93 6.31-5.88 0.861-0.794 0.861-0.794 1.74-1.6 3.03-2.78 6.08-5.53 9.2-8.21 3.7-3.19 7.1-6.64 10.5-10.1 2.05-2.02 4.16-3.89 6.35-5.75 3.43-2.94 6.36-6.14 9.28-9.59 2.77-3.22 5.83-6.13 8.91-9.04 1.91-1.64 1.91-1.64 1.69-3.81 0.99-0.33 1.98-0.66 3-1 1.81-1.98 1.81-1.98 3.62-4.44 2.74-3.53 5.54-6.91 8.56-10.2 8.57-9.41 16.6-19.4 23.9-29.8 2-2.78 4.05-5.51 6.12-8.24 12.1-16.1 23.3-32.8 33.6-50.1 2.17-3.66 4.42-7.25 6.76-10.8 3.28-5.1 5.97-10.4 8.6-15.9 1.33-2.67 2.7-5.25 4.16-7.85 41.9-74.9 67-165 70.6-254 0.119-3.09 0.25-6.18 0.381-9.26 0.521-12.6 0.76-25.2 0.613-37.9-0.00773-0.684-0.0155-1.37-0.0234-2.07-0.654-51-4.46-103-17.9-152-1.03-3.82-2.01-7.65-2.97-11.5-9.27-36.7-22.1-72-38.1-106-0.419-0.904-0.837-1.81-1.27-2.74-6.29-13.6-13.1-26.8-20.4-39.8-1.22-2.2-2.43-4.4-3.63-6.61-6.36-11.6-13.5-22.7-20.7-33.8-1.31-2.04-2.62-4.08-3.93-6.11-1.08-1.68-2.16-3.35-3.25-5.03-1.57-2.45-3.08-4.93-4.57-7.42-1.42-2.28-2.63-3.82-4.56-5.75-3.26-3.26-5.77-6.85-8.45-10.6-8.91-12.3-18.5-24.2-28.8-35.3-2.42-2.7-4.7-5.48-6.97-8.32-3.77-4.68-7.84-8.88-12.1-13.1-2.81-2.82-5.37-5.79-7.89-8.87-1.51-1.76-1.51-1.76-4.47-2.5-0.681-1.33-1.35-2.66-2-4-1.77-1.79-1.77-1.79-3.81-3.44-3.84-3.26-7.4-6.69-10.9-10.3-4.49-4.61-9.23-8.71-14.2-12.7-3.4-2.77-6.73-5.62-10.1-8.48-15-12.9-30.5-24.9-47-36-0.611-0.412-1.22-0.824-1.85-1.25-7.77-5.24-15.6-10.4-23.5-15.5l-2.46-1.61c-7.55-4.91-15.1-9.71-23.2-13.6-1.31-0.693-2.62-1.39-3.93-2.09-10.8-5.79-21.8-11.2-32.9-16.4-4-1.89-7.95-3.84-11.9-5.85-4.5-2.27-9.06-4.25-13.7-6.15-2.82-1.16-5.61-2.36-8.41-3.58-10.9-4.77-21.9-9.12-33.2-12.9-1.57-0.531-3.14-1.06-4.7-1.59-10.5-3.55-21.1-6.83-31.8-9.72-1.99-0.541-3.97-1.11-5.95-1.68-4.15-1.16-8.32-2.2-12.5-3.22-3.38-0.861-6.72-1.81-10.1-2.78-8.49-2.45-16.7-4.45-25.5-5.51-2.77-0.388-5.45-0.863-8.18-1.42-69.1-14.1-151-13.6-220-1.6z" fill="#FBFDFD"/>
<path transform="translate(792 274)" d="m0 0c3.98 0.0107 7.97 2.23e-5 12-0.0127 20.4-0.013 40.1 1.35 60.2 5.02 1.08 0.195 1.08 0.195 2.19 0.394 40.6 7.34 79.6 19.6 117 36.9 1.01 0.467 2.03 0.935 3.07 1.42 36.4 16.8 71.8 39 101 66.2 2.21 2.02 4.45 3.99 6.72 5.94 3.8 3.29 7.3 6.84 10.8 10.4 2.15 2.17 2.15 2.17 5.12 4.45 0.959 0.773 0.959 0.773 1.94 1.56v2h2c1.34 1.36 1.34 1.36 2.94 3.31 2.98 3.52 6.13 6.77 9.44 10 5.32 5.24 9.99 10.8 14.6 16.7 0.921 1.12 1.84 2.24 2.77 3.36 11.6 14.1 21.5 29.2 31.2 44.6 0.652 1.03 1.3 2.06 1.98 3.12 8.86 14.1 16.8 28.8 24 43.9 0.344 0.718 0.687 1.44 1.04 2.17 23.4 49.2 35.6 101 40.7 155 0.107 1.12 0.214 2.25 0.325 3.4 3.86 41 3.86 41 2.18 55.6-0.0943 0.926-0.189 1.85-0.286 2.81-0.205 2-0.415 4-0.632 6.01-0.355 3.4-0.662 6.81-0.961 10.2-2.17 24.1-5.2 48.3-11.7 71.6-0.658 2.37-1.28 4.74-1.91 7.11-2.93 10.9-6.52 21.6-10.3 32.3-0.232 0.655-0.463 1.31-0.702 1.98-2.99 8.43-6.2 16.7-9.74 25-0.338 0.793-0.677 1.59-1.03 2.4-12.5 29.1-27.9 57.3-47 82.6-0.998 1.35-2 2.69-2.99 4.04-12.9 17.4-26.9 33-42.3 48.3-3.53 3.5-7.04 7.03-10.5 10.6-7.74 7.86-15.4 15.4-24.2 22.1-1.5 1.23-3 2.46-4.5 3.69-24.8 19.7-51.6 38.3-80.5 51.5-3.65 1.66-7.22 3.46-10.8 5.3-12.8 6.42-26.1 11.7-39.3 17.1-0.839 0.338-1.68 0.677-2.54 1.03-0.782 0.311-1.56 0.623-2.37 0.944-0.683 0.273-1.37 0.545-2.07 0.826-1.97 0.712-3.92 1.21-5.96 1.71-3.42 0.965-6.83 1.95-10.2 2.95-8.3 2.42-16.6 4.54-25.1 6.49-0.64 0.148-1.28 0.297-1.94 0.45-28.2 6.51-55.4 11.2-84.4 11.3-0.666 0.00283-1.33 0.00565-2.02 0.00857-3.54 0.0148-7.07 0.0242-10.6 0.0285-2.85 0.00435-5.69 0.0181-8.54 0.041-25 0.197-49.7-1.1-74.4-5.72-1.19-0.215-2.39-0.431-3.62-0.653-3.4-0.62-6.8-1.26-10.2-1.91-0.903-0.171-1.81-0.343-2.74-0.52-5.45-1.05-10.9-2.21-16.3-3.48-0.862-0.202-1.72-0.403-2.61-0.611-31.6-7.53-61.2-19.8-90.3-33.9-1.23-0.592-1.23-0.592-2.48-1.2-22.2-10.7-42.7-23.8-62.6-38.3-0.625-0.456-1.25-0.912-1.89-1.38-13.9-10.2-27.4-20.9-40-32.7-2.16-2.03-2.16-2.03-5.1-3.89v-2h-2v-2c-0.99-0.33-1.98-0.66-3-1-1.54-1.57-1.54-1.57-3.19-3.56-2.5-2.95-5.05-5.73-7.81-8.44-3.88-3.84-7.45-7.86-11-12-0.882-1.01-1.76-2.01-2.65-3.02-11.3-13-21.7-26.6-31.1-41-1.35-2.04-2.72-4.06-4.11-6.08-45.8-66.8-70.4-147-74.2-228-0.0846-1.75-0.0846-1.75-0.171-3.54-0.366-7.82-0.626-15.6-0.829-23.5l-0.0869-2.71c-1.39-46.1 8.98-93.9 24.1-137l1.05-3.12c11.7-34.5 28.7-70.2 49.9-99.9 0.829-1.17 1.66-2.35 2.48-3.52 2.07-2.92 4.16-5.82 6.25-8.72 1.3-1.8 2.58-3.61 3.87-5.43 4.15-5.86 8.35-11.7 12.8-17.3 1.63-2.08 3.21-4.21 4.78-6.34 2.1-2.81 4.29-5.24 6.81-7.69 0.906-1.06 1.81-2.12 2.71-3.19 5.39-6.18 11.2-11.9 17-17.7 2-2 3.98-4 5.97-6.01 7.13-7.16 14.3-13.8 22.3-20.1 1.15-0.97 2.29-1.95 3.43-2.93 6.42-5.56 13-10.7 20-15.5 3.17-2.21 6.27-4.5 9.38-6.8 6.58-4.88 13.2-9.47 20.2-13.7 1.06-0.657 2.12-1.31 3.21-1.99 2.22-1.37 4.45-2.74 6.68-4.11 1.87-1.14 3.74-2.3 5.59-3.46 40.1-24.8 88-41.8 134-50.9 1.05-0.208 2.1-0.416 3.19-0.63 8.06-1.55 16.1-2.87 24.3-4.06 1.05-0.155 2.09-0.309 3.17-0.469 3.56-0.498 7.13-0.939 10.7-1.34 1.17-0.133 1.17-0.133 2.36-0.268 15.8-1.73 31.4-2.04 47.3-1.99z" fill="#FBFDFD"/>
<path transform="translate(918 89.4)" d="m0 0c3.24 0.73 6.49 1.36 9.74 2 9.04 1.8 18 3.6 26.8 6.56 1.87 0.458 3.73 0.916 5.6 1.37 2.98 0.785 5.9 1.71 8.84 2.63 4.42 1.38 8.79 2.54 13.3 3.48 2.17 0.507 4.24 1.14 6.35 1.86 0.788 0.267 1.58 0.534 2.39 0.81 0.826 0.282 1.65 0.564 2.5 0.854 0.818 0.275 1.64 0.55 2.48 0.833 15.4 5.18 30.5 11 45.5 17.2 1.04 0.424 2.08 0.848 3.15 1.29 5.5 2.26 10.9 4.62 16.2 7.34 6.7 3.41 13.5 6.66 20.2 9.88 7.83 3.72 15.5 7.58 23.1 11.7 4.09 2.2 8.24 4.24 12.4 6.25 3.75 1.98 7.3 4.23 10.9 6.52 0.641 0.409 1.28 0.818 1.94 1.24 46.2 29.6 46.2 29.6 64.1 44.8 2.05 1.69 4.1 3.37 6.15 5.05 27.5 22.5 27.5 22.5 38.4 33.5 3.35 3.33 6.91 6.39 10.5 9.48 0.996 0.984 0.996 0.984 2.01 1.99v2c0.572 0.235 1.14 0.469 1.73 0.711 2.79 1.59 4.42 3.48 6.52 5.91 2.82 3.22 5.67 6.34 8.75 9.31 3.88 3.81 7.23 7.95 10.6 12.2 2.45 2.97 5.01 5.8 7.62 8.62 3.61 3.92 6.74 7.87 9.75 12.2 0.433 0.427 0.866 0.853 1.31 1.29 2.47 2.5 4.59 5.26 6.75 8.02 0.48 0.61 0.959 1.22 1.45 1.85 3.89 5 7.61 10.1 11.2 15.3 2.21 3.17 2.21 3.17 4.79 6.04 2.24 2.27 3.77 4.92 5.47 7.61 0.804 1.27 1.61 2.54 2.41 3.8 0.633 0.999 0.633 0.999 1.28 2.02 1.75 2.74 3.53 5.47 5.31 8.19 14.6 22.5 28.5 45.6 40 69.9 0.473 0.993 0.945 1.99 1.43 3.01 12.7 26.8 23.6 53.8 32.6 82 0.216 0.677 0.433 1.35 0.655 2.05 2.78 8.74 5.42 17.5 7.78 26.4 0.295 1.11 0.59 2.22 0.894 3.36 0.897 3.4 1.78 6.8 2.67 10.2 0.265 1.01 0.529 2.02 0.802 3.07 11.8 45.5 16.4 91.9 17.8 139 0.0207 0.672 0.0415 1.34 0.0628 2.04 0.573 19.3 0.313 38.5-0.5 57.7-0.0663 1.58-0.0663 1.58-0.134 3.19-1.32 30.7-5.68 60.4-11.6 90.6-0.185 0.946-0.371 1.89-0.562 2.87-5.5 27.2-13 54.9-22.9 80.8-0.446 1.18-0.893 2.37-1.35 3.59-1.54 4.08-3.09 8.15-4.65 12.2-0.246 0.645-0.491 1.29-0.744 1.96-3.67 9.62-7.8 18.9-12.3 28.2-0.59 1.24-1.18 2.48-1.77 3.72-1.46 3.07-2.93 6.13-4.41 9.2-0.889 1.85-1.77 3.69-2.66 5.54-3.11 6.46-6.34 12.8-9.82 19.1-1.2 2.17-2.35 4.36-3.48 6.57-5.28 10.3-11.2 20-17.5 29.7-1.86 2.91-3.64 5.87-5.43 8.82-6.9 11.2-14.6 21.9-22.5 32.4-3.25 4.29-6.39 8.64-9.48 13.1-4.9 6.96-10.3 13.4-15.9 19.8-0.922 1.06-0.922 1.06-1.86 2.13-1.08 1.23-2.16 2.46-3.24 3.69-2.59 2.98-5.15 5.98-7.71 8.99-0.481 0.564-0.962 1.13-1.46 1.71-2.06 2.43-3.96 4.83-5.73 7.48h-2c-0.227 0.536-0.454 1.07-0.688 1.62-3.1 5.6-7.46 9.43-12.3 13.5-2.03 1.84-3.77 3.76-5.54 5.85-2.89 3.41-6 6.27-9.4 9.15-2.3 2.03-4.45 4.16-6.6 6.35-6.55 6.62-13.6 12.5-20.9 18.3-2.64 2.17-2.64 2.17-4.99 4.61-3.15 3.12-6.49 5.89-9.94 8.67-0.702 0.567-1.4 1.13-2.13 1.72-39 31.3-82.3 59.4-128 79.4-4.2 1.83-8.31 3.77-12.4 5.84-51.6 25.9-114 42.8-171 48.6-2.8 0.243-2.8 0.243-5.7 1.32-0.33-0.66-0.66-1.32-1-2-1.91-0.679-3.86-1.27-5.81-1.81-17.4-5.2-35.8-13.6-49.2-26.2-0.473-0.434-0.947-0.868-1.43-1.31-17.8-16.4-28.2-38.5-29.9-62.7-0.614-25.6 7.24-49 23.3-69 0.777-0.993 1.55-1.99 2.36-3.01 2.89-3.27 5.93-5.85 9.39-8.49 0.618-0.477 1.24-0.954 1.87-1.45 6.57-5.03 13.1-9.67 20.7-13.2 2-0.949 2-0.949 4.73-2.86 4.11-1.37 7.66-2.26 12-2-0.495-1.49-0.495-1.49-1-3 0.799-0.156 1.6-0.311 2.42-0.471 29.5-5.41 29.5-5.41 58.3-13.7 2.08-0.729 4.13-1.28 6.28-1.8 7.5-2.34 14.7-5.25 22-8.2 1.95-0.784 3.9-1.55 5.86-2.31 6.67-2.6 13.1-5.38 19.5-8.67 3.9-2 7.87-3.84 11.8-5.71 30-14.2 57.7-32.5 83.8-53.1 0.92-0.726 1.84-1.45 2.79-2.2 11.1-8.89 21.3-18.7 31.2-28.8 3.28-3.29 6.59-6.56 9.91-9.81 10.1-9.91 19.7-19.7 28.1-31.2 1.31-1.7 2.63-3.39 3.95-5.08 4.55-5.84 8.89-11.8 13.1-17.9 0.724-1.05 1.45-2.1 2.2-3.18 16.1-23.5 29.8-48.6 40.8-74.8 0.582-1.37 0.582-1.37 1.18-2.76 20.3-47.9 31.4-98.4 34.8-150 0.0894-1.25 0.0894-1.25 0.181-2.52 1.16-16.8 0.272-33.2-1.31-49.9-0.115-1.27-0.23-2.54-0.349-3.85-4.83-53.2-15.3-105-38.2-154-1.23-2.63-2.42-5.27-3.59-7.92-15.8-34.7-36.5-67.5-60.8-96.9-0.466-0.569-0.932-1.14-1.41-1.72-6.34-7.7-13-14.9-20.2-21.8-1.49-1.45-2.93-2.94-4.37-4.44v-2h-2c-1.73-1.63-3.36-3.28-5-5-1.16-1.18-2.32-2.35-3.49-3.52-0.62-0.625-1.24-1.25-1.88-1.89-5.71-5.74-11.4-11.4-17.6-16.6-0.79-0.668-1.58-1.34-2.39-2.02-12-9.99-24.7-18.9-37.6-27.6-1.31-0.886-2.61-1.77-3.92-2.67-8.79-6.01-17.7-11.6-27.1-16.7-1.03-0.564-1.03-0.564-2.08-1.14-27.9-15.2-57.4-28-87.9-36.9-0.944-0.278-1.89-0.556-2.86-0.842-16.8-4.95-33.8-9.2-51.1-12.2-0.961-0.171-1.92-0.341-2.91-0.517-1.82-0.318-3.65-0.623-5.47-0.91-4.88-0.847-7.35-1.62-10.6-5.52-1.65-0.976-3.35-1.89-5.06-2.75-22.4-11.9-39.1-30.4-46.7-54.7-5.56-18.8-7.62-36.5-2.27-55.6 0.302-1.14 0.603-2.28 0.914-3.45 7.66-25 24.4-45.7 47.1-58.5 24-12.5 47.2-15.7 73.5-9.56z" fill="#00BF73"/>
<path transform="translate(918 89.4)" d="m0 0c3.24 0.73 6.49 1.36 9.74 2 9.04 1.8 18 3.6 26.8 6.56 1.87 0.458 3.73 0.916 5.6 1.37 2.98 0.785 5.9 1.71 8.84 2.63 4.42 1.38 8.79 2.54 13.3 3.48 2.17 0.507 4.24 1.14 6.35 1.86 0.788 0.267 1.58 0.534 2.39 0.81 0.826 0.282 1.65 0.564 2.5 0.854 0.818 0.275 1.64 0.55 2.48 0.833 15.4 5.18 30.5 11 45.5 17.2 1.04 0.424 2.08 0.848 3.15 1.29 5.5 2.26 10.9 4.62 16.2 7.34 6.7 3.41 13.5 6.66 20.2 9.88 7.83 3.72 15.5 7.58 23.1 11.7 4.09 2.2 8.24 4.24 12.4 6.25 3.75 1.98 7.3 4.23 10.9 6.52 0.641 0.409 1.28 0.818 1.94 1.24 46.2 29.6 46.2 29.6 64.1 44.8 2.05 1.69 4.1 3.37 6.15 5.05 27.5 22.5 27.5 22.5 38.4 33.5 3.35 3.33 6.91 6.39 10.5 9.48 0.996 0.984 0.996 0.984 2.01 1.99v2c0.572 0.235 1.14 0.469 1.73 0.711 2.79 1.59 4.42 3.48 6.52 5.91 2.82 3.22 5.67 6.34 8.75 9.31 3.88 3.81 7.23 7.95 10.6 12.2 2.45 2.97 5.01 5.8 7.62 8.62 3.61 3.92 6.74 7.87 9.75 12.2 0.433 0.427 0.866 0.853 1.31 1.29 2.47 2.5 4.59 5.26 6.75 8.02 0.48 0.61 0.959 1.22 1.45 1.85 3.89 5 7.61 10.1 11.2 15.3 2.21 3.17 2.21 3.17 4.79 6.04 2.24 2.27 3.77 4.92 5.47 7.61 0.804 1.27 1.61 2.54 2.41 3.8 0.633 0.999 0.633 0.999 1.28 2.02 1.75 2.74 3.53 5.47 5.31 8.19 14.6 22.5 28.5 45.6 40 69.9 0.473 0.993 0.945 1.99 1.43 3.01 12.7 26.8 23.6 53.8 32.6 82 0.216 0.677 0.433 1.35 0.655 2.05 2.78 8.74 5.42 17.5 7.78 26.4 0.295 1.11 0.59 2.22 0.894 3.36 0.897 3.4 1.78 6.8 2.67 10.2 0.265 1.01 0.529 2.02 0.802 3.07 11.8 45.5 16.4 91.9 17.8 139 0.0207 0.672 0.0415 1.34 0.0628 2.04 0.573 19.3 0.313 38.5-0.5 57.7-0.0663 1.58-0.0663 1.58-0.134 3.19-1.32 30.7-5.68 60.4-11.6 90.6-0.185 0.946-0.371 1.89-0.562 2.87-5.5 27.2-13 54.9-22.9 80.8-0.446 1.18-0.893 2.37-1.35 3.59-1.54 4.08-3.09 8.15-4.65 12.2-0.246 0.645-0.491 1.29-0.744 1.96-3.67 9.62-7.8 18.9-12.3 28.2-0.59 1.24-1.18 2.48-1.77 3.72-1.46 3.07-2.93 6.13-4.41 9.2-0.889 1.85-1.77 3.69-2.66 5.54-3.11 6.46-6.34 12.8-9.82 19.1-1.2 2.17-2.35 4.36-3.48 6.57-5.28 10.3-11.2 20-17.5 29.7-1.86 2.91-3.64 5.87-5.43 8.82-6.9 11.2-14.6 21.9-22.5 32.4-3.25 4.29-6.39 8.64-9.48 13.1-4.9 6.96-10.3 13.4-15.9 19.8-0.922 1.06-0.922 1.06-1.86 2.13-1.08 1.23-2.16 2.46-3.24 3.69-2.59 2.98-5.15 5.98-7.71 8.99-0.481 0.564-0.962 1.13-1.46 1.71-2.06 2.43-3.96 4.83-5.73 7.48h-2c-0.227 0.536-0.454 1.07-0.688 1.62-3.1 5.6-7.46 9.43-12.3 13.5-2.03 1.84-3.77 3.76-5.54 5.85-2.89 3.41-6 6.27-9.4 9.15-2.3 2.03-4.45 4.16-6.6 6.35-6.55 6.62-13.6 12.5-20.9 18.3-2.64 2.17-2.64 2.17-4.99 4.61-3.15 3.12-6.49 5.89-9.94 8.67-0.702 0.567-1.4 1.13-2.13 1.72-39 31.3-82.3 59.4-128 79.4-4.2 1.83-8.31 3.77-12.4 5.84-51.6 25.9-114 42.8-171 48.6-2.8 0.243-2.8 0.243-5.7 1.32-0.33-0.66-0.66-1.32-1-2-1.91-0.679-3.86-1.27-5.81-1.81-17.4-5.2-35.8-13.6-49.2-26.2-0.473-0.434-0.947-0.868-1.43-1.31-15.2-14-23.4-30.2-28.1-50.2-0.172-0.713-0.345-1.43-0.522-2.16-1.13-5.29-0.841-9.96 0.0225-15.3 0.33 0.66 0.66 1.32 1 2 0.99-0.99 1.98-1.98 3-3 0.99 0.33 1.98 0.66 3 1 0.33-0.99 0.66-1.98 1-3 0.495 1.49 0.495 1.49 1 3 1.1-0.0348 2.19-0.0696 3.32-0.105 1.45-0.0281 2.91-0.0554 4.36-0.082 1.08-0.0377 1.08-0.0377 2.19-0.0762 4.63-0.0635 7.47 0.391 11.1 3.26 2.02 1.97 2.02 1.97 3.81 4.06 0.605 0.692 1.21 1.38 1.83 2.1 1.36 1.84 1.36 1.84 1.36 3.84h3v3h2c1.35 1.31 2.69 2.65 4 4 0.66 0.33 1.32 0.66 2 1 0.495 1.49 0.495 1.49 1 3 5.72 7.16 13.8 9.52 22.5 10.6 2.5 0.359 2.5 0.359 4.5 1.36v2c0.577 0.144 1.15 0.289 1.75 0.438 2.08 0.521 4.17 1.04 6.25 1.56v4c1.32 0.33 2.64 0.66 4 1v1c4.45 0.304 8.91 0.578 13.4 0.837 1.86 0.115 3.72 0.24 5.57 0.373 3.08 0.22 6.17 0.413 9.25 0.603 0.991 0.0773 1.98 0.155 3 0.234 5.68 0.386 5.68 0.386 10.7-1.93 0.683-0.697 1.37-1.39 2.07-2.11 2.03-0.977 2.03-0.977 3.94-1.62 0.683-0.236 1.37-0.472 2.07-0.715 0.657-0.218 1.31-0.436 1.99-0.66 1.09-0.392 2.19-0.784 3.31-1.19 2.69-0.812 2.69-0.812 5.69-0.812v-2c1.98-0.33 3.96-0.66 6-1 0.33-0.99 0.66-1.98 1-3 1.98-0.33 3.96-0.66 6-1-0.0309-1.33-0.0309-1.33-0.0625-2.69 1.22-3.8 1.87-4.22 5.19-6.19 4.22-2.12 7.21-2.62 11.9-2.12v-2c1.34-0.489 1.34-0.489 2.7-0.988 1.76-0.655 1.76-0.655 3.55-1.32l3.52-1.3c2.85-1.22 4.79-2.55 7.23-4.39h3c0.33 0.99 0.66 1.98 1 3 3.3 0.33 6.6 0.66 10 1v-6c3.96 0.33 7.92 0.66 12 1v4h6c0.0412-0.619 0.0825-1.24 0.125-1.88 0.875-2.12 0.875-2.12 3.75-3.38 3.12-0.75 3.12-0.75 6.12-0.75 0.33-0.99 0.66-1.98 1-3 3.63-0.33 7.26-0.66 11-1 0.33-1.32 0.66-2.64 1-4 2.49-0.687 4.38-1 7-1 0.33-1.32 0.66-2.64 1-4h6v-5h5c0.33-0.66 0.66-1.32 1-2h2v2h3v-2h3v-3c0.959-0.186 0.959-0.186 1.94-0.375 0.681-0.206 1.36-0.412 2.06-0.625 0.33-0.66 0.66-1.32 1-2h4c0.33-0.99 0.66-1.98 1-3h3c0.33-1.32 0.66-2.64 1-4 2.97-0.33 5.94-0.66 9-1v-5c-1.32 0.66-2.64 1.32-4 2v-5h15v-2h2c0.0412-0.619 0.0825-1.24 0.125-1.88 0.289-0.701 0.577-1.4 0.875-2.12 0.969-0.309 1.94-0.619 2.94-0.938 3.28-0.746 3.28-0.746 4.44-3.69 0.206-0.784 0.412-1.57 0.625-2.38-1.98 1.32-3.96 2.64-6 4 0.846-4 1.45-6.45 4.38-9.38 2.32-1.44 3.95-2.23 6.62-2.62v-2c4.25-4.07 8.08-6.42 14-7 0.33-0.66 0.66-1.32 1-2 1.46-0.495 2.94-0.923 4.44-1.31 2.44-0.699 2.44-0.699 4.56-1.69 1.44-2.51 1.44-2.51 2-5 0.99-0.33 1.98-0.66 3-1 1.21-2 1.21-2 2-4h3v-3c4.34-4 4.34-4 7-4 0.309-0.835 0.309-0.835 0.625-1.69 1.95-3.28 4.32-5.02 7.38-7.31h2v-2h2c0.247-0.804 0.495-1.61 0.75-2.44 1.25-2.56 1.25-2.56 3.38-3.38 0.619-0.0619 1.24-0.124 1.88-0.188v-2c0.743-0.433 1.49-0.866 2.25-1.31 3.05-1.87 4.57-3.88 6.75-6.69 3.52-3 3.52-3 6-3 0.186-0.578 0.371-1.16 0.562-1.75 2.17-3.39 4.85-4.45 8.44-6.25h2l0.125-1.75c1.11-2.85 2.68-3.34 5.21-4.87 2.84-2.35 4.25-5.6 6.02-8.79 2.19-3.45 4.88-6 7.91-8.71 1.99-2.16 2.75-4.14 3.73-6.89 1.44-1.81 1.44-1.81 3-3h3c0.0825-0.536 0.165-1.07 0.25-1.62 1.77-5.59 5.7-9.33 9.75-13.4 0.33-0.99 0.66-1.98 1-3 1.62-1.71 3.29-3.37 5-5 0.722-0.763 1.44-1.53 2.19-2.31 1.81-1.69 1.81-1.69 3.81-1.69 0.33-0.99 0.66-1.98 1-3h2c0.33-0.99 0.66-1.98 1-3-1.32-0.33-2.64-0.66-4-1 0-2 0-2 1.31-3.62 1.69-1.38 1.69-1.38 4.69-1.38 2.12-2.21 3-4.01 3.94-6.94 1.17-3.38 2.62-5.47 5.06-8.06h2v-2h2c0.33-0.99 0.66-1.98 1-3 0.46-0.45 0.92-0.9 1.39-1.36 2.03-2.07 3.04-4.22 4.29-6.82 0.437-0.901 0.874-1.8 1.32-2.73 0.489-1.03 0.489-1.03 0.988-2.08h2v-3h2c0.186-0.66 0.371-1.32 0.562-2 1.74-3.62 4.08-6.12 6.76-9.09 2.67-3.04 4.37-5.85 5.51-9.73 1.26-3.43 2.81-5.67 5.11-8.5 0.69-0.862 1.38-1.72 2.09-2.61 1.97-2.07 1.97-2.07 4.97-3.07 0.247-0.825 0.495-1.65 0.75-2.5 1.2-3.37 2.26-4.89 4.5-7.57 3.8-4.79 6.41-9.76 8.93-15.3 0.43-0.924 0.86-1.85 1.3-2.8 2.84-6.17 5.44-12.4 7.51-18.8 0.583-1.73 1.17-3.46 1.75-5.19 0.418-1.27 0.836-2.54 1.25-3.81h2c0.33-0.99 0.66-1.98 1-3h-2v-4h2c-0.0232-0.831-0.0464-1.66-0.0703-2.52l-0.0547-3.29-0.0703-3.27c0.195-2.92 0.195-2.92 2.2-5.92h2c0.144-0.887 0.289-1.77 0.438-2.69 0.334-1.97 0.697-3.93 1.12-5.88 0.528-2.41 0.528-2.41 0.312-4.75 0.183-3.94 1.64-7.04 3.12-10.7-1.32 0.33-2.64 0.66-4 1 0.66 0.33 1.32 0.66 2 1v3c-2.31-0.33-4.62-0.66-7-1v-10h2c0.0387-0.922 0.0387-0.922 0.0781-1.86 0.472-6.73 0.472-6.73 2.86-8.89 0.681-0.412 1.36-0.825 2.06-1.25 2.47-4.87 2.41-9.68 2.66-15 0.344-2.96 0.344-2.96 2.34-5.96-0.294-3.65-0.76-7.02-1.62-10.6-0.516-3.35 0.0403-6.09 0.625-9.44l0.445-2.91c1.32-8.45 1.32-8.45 2.68-12.2 2.65-8.89 0.745-19.9 0.438-29.1-0.0398-1.34-0.0795-2.68-0.119-4.02-0.0628-1.88-0.0628-1.88-0.127-3.8-0.0367-1.14-0.0733-2.28-0.111-3.45 0.0836-2.53 0.0836-2.53-1.21-3.6-0.0607-3.71-0.0205-7.41 0.0391-11.1 0.0434-4.42-0.138-8.52-1.04-12.9-1.32-0.33-2.64-0.66-4-1 0.907-4.69 1.95-9.34 3-14h2c0.66-3.3 1.32-6.6 2-10h4v-4h2c0.124-1.13 0.247-2.27 0.375-3.44 0.567-4.6 1.55-9.06 2.62-13.6-0.66-0.33-1.32-0.66-2-1 0.33-0.99 0.66-1.98 1-3 0.223-2.06 0.407-4.12 0.562-6.19 0.0838-1.09 0.168-2.17 0.254-3.29 0.0606-0.831 0.121-1.66 0.184-2.52-0.66-0.33-1.32-0.66-2-1 0.165-1.11 0.33-2.23 0.5-3.38 0.728-5.83 1.38-12-0.5-17.6-0.0705-2.74-0.0936-5.45-0.0625-8.19 0.00677-1.12 0.00677-1.12 0.0137-2.27 0.0118-1.85 0.0297-3.69 0.0488-5.54h-2v4c-0.99-0.33-1.98-0.66-3-1 0.33-4.62 0.66-9.24 1-14h-2c-0.0276-2.42-0.0481-4.83-0.0625-7.25-0.0062-0.731-0.0124-1.46-0.0188-2.22-0.0089-4.29 0.278-8.35 0.894-12.6 0.594-5.73-1-10.3-2.97-15.6-1.75-4.73-2.35-8.33-1.84-13.3h-2c-0.193-1.01-0.387-2.03-0.586-3.07-0.263-1.35-0.526-2.7-0.789-4.05-0.189-0.998-0.189-0.998-0.383-2.02-0.613-3.13-1.33-6.11-2.34-9.14-1.01-3.04-1.06-5.53-0.906-8.72h-2c-0.33-1.98-0.66-3.96-1-6h-2v-6h-6c-0.506-1.27-1-2.54-1.5-3.81-0.418-1.06-0.418-1.06-0.844-2.14-0.656-2.04-0.656-2.04-0.656-5.04-1.14-0.0309-1.14-0.0309-2.31-0.0625-2.69-0.938-2.69-0.938-4.5-4.31-1.19-3.63-1.19-3.63-1.19-6.62h-2v-3c-1.65-0.33-3.3-0.66-5-1v-2h-5v-2h-3c-0.238-0.849-0.238-0.849-0.48-1.71-0.705-2.22-1.41-4.24-2.52-6.29-2.57-1.13-2.57-1.13-5-1v-8c-1.98-0.33-3.96-0.66-6-1-0.66-2.64-1.32-5.28-2-8h-2v-2h-2v-2c-2.31-0.33-4.62-0.66-7-1v-4h-4c-0.33-0.99-0.66-1.98-1-3-0.846-0.66-1.69-1.32-2.56-2-3.59-4.42-2.87-8.51-2.44-14 1.32-0.33 2.64-0.66 4-1v-2h-2v-2c-1.32-0.33-2.64-0.66-4-1-0.34-1.56-0.671-3.12-1-4.69-0.186-0.87-0.371-1.74-0.562-2.64-0.427-2.61-0.514-5.03-0.438-7.68 0.619-0.103 1.24-0.206 1.88-0.312 2.49-0.563 2.49-0.563 4.12-3.69 0.205-2.41 0.205-2.41 0.0625-5.06-0.108-5.39 0.288-10.6 0.938-15.9h-2v-3h-5c-0.33-1.65-0.66-3.3-1-5h-2c-0.339-2.04-0.671-4.08-1-6.12-0.186-1.14-0.371-2.27-0.562-3.45-0.407-3.19-0.516-6.22-0.438-9.43h-2c-1.78-3.06-2.23-5.22-2.12-8.75 0.018-0.799 0.0361-1.6 0.0547-2.42 0.0348-0.905 0.0348-0.905 0.0703-1.83h-2c-0.103-0.639-0.206-1.28-0.312-1.94l-0.688-2.06c-0.99-0.33-1.98-0.66-3-1-1.65-2.6-2-3.86-2-7-1.65-0.33-3.3-0.66-5-1v-2h-2v-5h-2v-3c-2.31-0.33-4.62-0.66-7-1-0.66-2.31-1.32-4.62-2-7h2c-0.66-1.65-1.32-3.3-2-5h2v-2c0.804-0.124 1.61-0.248 2.44-0.375 0.846-0.206 1.69-0.412 2.56-0.625 0.33-0.66 0.66-1.32 1-2 0.66-0.33 1.32-0.66 2-1-0.33-1.32-0.66-2.64-1-4 3.59-1.55 6.11-2 10-2 0.66 1.65 1.32 3.3 2 5h-2c0.66 1.65 1.32 3.3 2 5-2.31 0.33-4.62 0.66-7 1 0.33 0.66 0.66 1.32 1 2 0.134 2.67 0.0432 5.32 0 8h4v-5h2v-3c2 0 2 0 3.62 1.5 0.454 0.495 0.908 0.99 1.38 1.5v-3h2c1.46 2.65 2 3.89 2 7 4.29 0.33 8.58 0.66 13 1v2l1.83-0.105c6.56-0.222 6.56-0.222 9.73 1.48 1.44 1.62 1.44 1.62 1.44 3.62h5c0.806-3.99 0.806-3.99 1-8-1.29-1.38-2.63-2.71-4-4-0.352-1.91-0.352-1.91-0.5-4.06-0.069-3.95-0.069-3.95-2.56-5.81-0.639-0.371-1.28-0.742-1.94-1.12v-2h-2c0.33-0.99 0.66-1.98 1-3 0.763 0.804 1.53 1.61 2.31 2.44 2.48 2.73 2.48 2.73 5.69 3.56-0.495-0.784-0.99-1.57-1.5-2.38-1.5-2.62-1.5-2.62-1.5-4.62h-2c-1.4-1.69-2.72-3.46-4-5.25-0.701-0.975-1.4-1.95-2.12-2.95-1.5-2.23-2.76-4.36-3.88-6.8h-2c0.516 0.578 1.03 1.15 1.56 1.75 1.44 2.25 1.44 2.25 1.12 4.5-0.227 0.578-0.454 1.15-0.688 1.75-3.83-1.28-3.99-2.59-6-6-0.866-0.784-1.73-1.57-2.62-2.38-2.93-3.24-2.9-5.37-3.38-9.62-0.804-0.742-0.804-0.742-1.62-1.5-0.454-0.495-0.908-0.99-1.38-1.5 0.312-3.69 0.312-3.69 1-7h-2c-0.33 0.66-0.66 1.32-1 2-0.33-1.32-0.66-2.64-1-4-0.66 0.33-1.32 0.66-2 1-1.01-1.29-2-2.58-3-3.88-0.835-1.08-0.835-1.08-1.69-2.18-1.31-1.95-1.31-1.95-1.31-3.95-0.619-0.227-1.24-0.454-1.88-0.688-2.74-1.69-3.18-3.3-4.12-6.31h-2v-2c-0.66-0.33-1.32-0.66-2-1v-4c-0.776-3.07-0.776-3.07-3-5-0.33-0.66-0.66-1.32-1-2v3c-0.33 0.66-0.66 1.32-1 2-2.06-2-2.06-2-4-5 0.133-1.97 0.133-1.97 0.562-4.06 0.144-1.3 0.289-2.6 0.438-3.94-2.22-2.4-2.22-2.4-5-4-0.66-0.99-1.32-1.98-2-3-0.763-0.433-1.53-0.866-2.31-1.31-3.31-2.08-5.23-4.67-7.69-7.69-0.722-0.536-1.44-1.07-2.19-1.62-1.81-1.37-1.81-1.37-2.62-3.31-1.58-2.75-3.78-3.56-6.52-5-2.42-1.54-3.33-3.57-4.67-6.06-1.63-1.7-3.31-3.36-5-5-1.37-1.33-1.37-1.33-2.76-2.68-5.38-5.11-10.6-9.49-17.1-13.1-2.12-1.21-2.12-1.21-5-3.52-2.17-1.72-3.5-2.05-6.12-2.69-0.66-0.99-1.32-1.98-2-3-0.866-0.516-1.73-1.03-2.62-1.56-0.784-0.474-1.57-0.949-2.38-1.44v-2h-3v-2c-0.619-0.144-1.24-0.289-1.88-0.438-2.12-0.562-2.12-0.562-4.12-1.56v-2c-0.969-0.268-1.94-0.536-2.94-0.812-1.01-0.392-2.02-0.784-3.06-1.19-0.33-0.99-0.66-1.98-1-3-2.42-1.17-2.42-1.17-5-2-0.66-0.33-1.32-0.66-2-1v-2h-3v-2c-0.648-0.228-1.3-0.456-1.96-0.691-4.07-1.76-7.79-3.99-11.6-6.25-19-11.1-38.2-21.4-58.6-29.8-2.86-1.31-2.86-1.31-3.86-3.31-1.33-0.357-2.66-0.683-4-1-2.34-0.995-4.67-2-7-3-1.01-0.33-2.02-0.66-3.06-1-2.94-1-2.94-1-6-2.56-2.72-1.33-4.96-2-7.94-2.44v-2c-1.22-0.124-2.43-0.248-3.69-0.375-3.4-0.419-6.17-1.23-9.31-2.62-1.33-0.335-2.67-0.668-4-1-2.33-0.769-4.65-1.57-6.98-2.38-1.99-0.719-1.99-0.719-4.02-0.621v-2c-0.88-0.0374-1.76-0.0748-2.67-0.113-1.16-0.0657-2.32-0.131-3.52-0.199-1.15-0.058-2.3-0.116-3.48-0.176-3.51-0.539-5.5-1.41-8.33-3.51-0.33-0.66-0.66-1.32-1-2-1.95-0.579-1.95-0.579-4.25-0.938-3.81-0.757-6.47-1.94-9.75-4.06h-3v-2c-0.773 0.34-0.773 0.34-1.56 0.688-3 0.384-4.65-0.596-7.32-1.86-2.5-0.975-4.9-1.39-7.55-1.82-3.29-0.54-6.24-1.14-9.31-2.44-11.1-4.43-22.5-5.01-34.2-4.56-0.259 0.648-0.518 1.3-0.785 1.96-0.401 0.672-0.802 1.34-1.21 2.04-2.33 0.381-4.66 0.713-7 1-1.98 1.23-1.98 1.23-3 3v3c-1.29 0.504-2.58 1-3.88 1.5-1.08 0.418-1.08 0.418-2.18 0.844-1.95 0.656-1.95 0.656-3.95 0.656-0.231 0.787-0.461 1.57-0.699 2.38-1.3 2.62-1.3 2.62-3.45 3.78-8.62 2.21-16.4 1.74-25.2 0.986-7.63-0.502-13.8 0.236-20.7 3.85-1.68 1.45-1.68 1.45-3 3-4.25 4.25-4.25 4.25-8 5v2h3c-0.33 0.99-0.66 1.98-1 3-1.32-0.33-2.64-0.66-4-1v5c-1.49 0.495-1.49 0.495-3 1-1.03 2.03-1.03 2.03-1.69 4.44-0.251 0.803-0.503 1.61-0.762 2.43-0.748 2.89-0.446 5.32-0.113 8.25 0.0902 0.81 0.18 1.62 0.273 2.45 0.251 2.1 0.547 4.2 0.852 6.3 0.651 5.03 0.521 10.1 0.438 15.1h2c2.28 3.42 2.22 4.68 2.12 8.69-0.018 0.994-0.0361 1.99-0.0547 3.01-0.0232 0.759-0.0464 1.52-0.0703 2.3h2c1.62 2.5 1.62 2.5 3 5-0.351-0.784-0.701-1.57-1.06-2.38-1.23-4.76-0.641-8.81 0.0625-13.6h1v6h2c1.78 2.64 2.99 4.97 4 8 1.88 1.11 1.88 1.11 4 2 0.99 0.66 1.98 1.32 3 2v2c0.722 0.186 1.44 0.371 2.19 0.562 2.94 1.5 3.49 2.21 5.19 4.88 2.62 4.03 5.18 4.94 9.62 6.56 0.33 0.66 0.66 1.32 1 2 1.28 0.268 2.56 0.536 3.88 0.812 3.33 0.737 3.89 0.865 6 3.75 0.371 0.804 0.743 1.61 1.12 2.44 0.66 0.33 1.32 0.66 2 1v2h2v2h2c2.63 2.31 3.88 3.64 5 7 0.99 0.33 1.98 0.66 3 1v2h2c0.33 1.32 0.66 2.64 1 4h-5c-0.33-0.99-0.66-1.98-1-3-0.66-0.33-1.32-0.66-2-1v-2c-0.99 0.33-1.98 0.66-3 1v3c0.99 0.33 1.98 0.66 3 1v2h2c0.33 1.32 0.66 2.64 1 4 1.08 0.155 1.08 0.155 2.19 0.312 3.09 0.755 5.23 1.84 7.81 3.69v2c1.13 0.0825 2.27 0.165 3.44 0.25 7.65 0.824 15.1 2.91 22.6 4.75v2c0.762 0.121 1.52 0.242 2.31 0.367 16.9 2.75 16.9 2.75 20.7 4.63v4h3c0.433 0.619 0.866 1.24 1.31 1.88 1.59 2.41 1.59 2.41 4.75 3.12 0.969 0.33 1.94 0.66 2.94 1 0.309 0.66 0.619 1.32 0.938 2 1.01 2.44 1.01 2.44 4.69 3.25 1.67 0.371 1.67 0.371 3.38 0.75v2h2v2c2.97 1.65 5.66 2.44 9 3 0.66-0.99 1.32-1.98 2-3-2.31-0.99-4.62-1.98-7-3v-3h-3v-3c-2.64-0.33-5.28-0.66-8-1v-2c-1.65-0.33-3.3-0.66-5-1v-2c-0.908-0.206-1.82-0.413-2.75-0.625-4.05-1.71-5.21-3.54-7.25-7.38v-3h5c0.329 0.814 0.329 0.814 0.664 1.64 1.78 4.02 2.74 5.99 6.59 8.36 0.908 0.33 1.82 0.66 2.75 1v2c1.65 0.33 3.3 0.66 5 1v2c2.64 0.33 5.28 0.66 8 1v3h3v3c2.97 0.99 2.97 0.99 6 2-0.0619 0.949-0.124 1.9-0.188 2.88 0.0619 1.03 0.124 2.06 0.188 3.12 0.99 0.66 1.98 1.32 3 2h-5l1 1c0.33 0.66 0.66 1.32 1 2-1.65-0.33-3.3-0.66-5-1-0.33 0.66-0.66 1.32-1 2 0.797-0.0348 1.59-0.0696 2.41-0.105 6.3-0.161 9.96 0.234 15.6 3.11 4.32 0.562 8.65 0.813 13 1v-3c1.7-0.217 1.7-0.217 3.44-0.438 3.37-0.174 3.37-0.174 4.56-1.56 2.7-0.0732 5.37-0.0924 8.06-0.0625 0.759 0.00451 1.52 0.00902 2.3 0.0137 1.88 0.0118 3.76 0.0298 5.64 0.0488-0.33-0.66-0.66-1.32-1-2-0.804-0.268-1.61-0.536-2.44-0.812-0.846-0.392-1.69-0.784-2.56-1.19-0.433-1.21-0.433-1.21-0.875-2.44-1.31-2.98-1.87-3.16-4.75-4.38-1.11-0.392-2.23-0.784-3.38-1.19v-1c9.21 0.78 9.21 0.78 13 4 0.33 1.65 0.66 3.3 1 5 3.63 0.99 7.26 1.98 11 3v2h2v2c0.99 0.33 1.98 0.66 3 1v7h3v-2h3v2c1.98 0.66 3.96 1.32 6 2v2c-0.639-0.186-1.28-0.371-1.94-0.562-0.681-0.144-1.36-0.289-2.06-0.438-0.33 0.33-0.66 0.66-1 1 1.65 0.33 3.3 0.66 5 1v2c0.743-0.124 1.49-0.248 2.25-0.375 0.908 0.124 1.82 0.248 2.75 0.375 1.33 2 2.67 4 4 6 1.76 0.97 1.76 0.97 3.69 1.62 1.09 0.454 2.19 0.908 3.31 1.38 0.625 2.06 0.625 2.06 1 4 1.65 0.702 3.32 1.37 5 2 0.33 0.99 0.66 1.98 1 3 0.66 0.66 1.32 1.32 2 2h-3c0.33 2.64 0.66 5.28 1 8 1.14 0.34 1.14 0.34 2.31 0.688 3.32 1.62 3.91 3.13 5.69 6.31 1.24 1.11 1.24 1.11 2.5 2.25 2.52 2.77 3 3.97 3.94 7.44 0.622 2.34 0.622 2.34 1.56 4.31 2.86 1.34 2.86 1.34 6 2 1.71 1.62 3.37 3.29 5 5 0.99 0.639 1.98 1.28 3 1.94 3.44 2.37 5.4 4.81 8 8.06 0.66 0.33 1.32 0.66 2 1v3c0.99 0.33 1.98 0.66 3 1 0.33 0.66 0.66 1.32 1 2 0.784 0.412 1.57 0.825 2.38 1.25 3.34 2.23 4.25 4 5.62 7.75-0.0206 1.16-0.0412 2.31-0.0625 3.5 0.0802 4.49 1.28 6 4.06 9.5 2.27 1.78 4.69 3.24 7.19 4.69 6.69 3.93 6.69 3.93 7.81 7.31h2v3h2v2h2v2h2v2c0.583 0.0735 1.17 0.147 1.77 0.223 3.03 1.05 4.08 2.67 5.98 5.21 0.614 0.803 1.23 1.61 1.86 2.43 1.39 2.13 1.39 2.13 1.39 4.13h2v2c0.99 0.33 1.98 0.66 3 1 1.19 3.06 1.19 3.06 2 6h2c1.4 1.83 1.4 1.83 2.94 4.25 1.52 2.38 3.02 4.69 4.75 6.92 1.31 1.83 1.31 1.83 1.31 3.83h2v2h2c2.12 1.88 2.12 1.88 4 4v2c0.639 0.248 1.28 0.495 1.94 0.75 2.06 1.25 2.06 1.25 2.81 3.38 0.0825 0.619 0.165 1.24 0.25 1.88h2c0.33 1.65 0.66 3.3 1 5h2v2c0.66 0.33 1.32 0.66 2 1 0.33 0.99 0.66 1.98 1 3h2c0.66 1.65 1.32 3.3 2 5h2v2c0.66 0.33 1.32 0.66 2 1 0.33 0.66 0.66 1.32 1 2h3c1.62 1.62 1.16 3.58 1.25 5.81 0.178 2.73 0.178 2.73 0.75 5.19 1.65 1.35 3.32 2.69 5 4 0.762 2.58 1.18 5.09 1.54 7.76 0.282 2.43 0.282 2.43 2.46 4.24 0.26 1.98 0.515 3.97 0.715 5.96 0.356 2.55 1.2 4.72 2.29 7.04h-2c0.66 1.65 1.32 3.3 2 5h2c0.182 0.638 0.364 1.28 0.551 1.93 0.251 0.826 0.503 1.65 0.762 2.5 0.244 0.824 0.487 1.65 0.738 2.5 0.313 0.682 0.626 1.36 0.949 2.07 0.99 0.33 1.98 0.66 3 1 0.66 6.27 1.32 12.5 2 19h1v5h2c0.049 0.69 0.098 1.38 0.148 2.09 0.35 4.4 0.705 8.69 1.79 13 1.36 5.49 1.78 11.1 2.28 16.7 0.367 3.78 0.645 6 2.79 9.21 0.344 2.01 0.344 2.01 0.5 4.12 0.165 1.28 0.33 2.56 0.5 3.88 0.66 0.33 1.32 0.66 2 1v10h-2v13h3c1.47 2.94 1.24 5.96 1.32 9.2 0.0312 1.06 0.0312 1.06 0.063 2.14 0.0654 2.26 0.124 4.52 0.183 6.79 0.0432 1.53 0.0868 3.07 0.131 4.6 0.107 3.76 0.208 7.52 0.307 11.3h-2c-1.92 7.95-2.22 15.7-2.25 23.9-0.00902 0.998-0.018 2-0.0273 3.03 0.021 5.19 0.514 9.18 2.28 14.1 0.16 3.52 0.16 3.52 0.0625 7.25-0.103 4.24-0.0466 8.26 0.434 12.5 0.638 5.85 0.577 11.7 0.504 17.5-0.135 8.92-0.135 8.92 1 17.8 0.0376 2.33 0.0467 4.67 0 7h-3c-1.05 9.31-1.52 18.6-2 28-0.66 0.33-1.32 0.66-2 1v4c-0.66 0.33-1.32 0.66-2 1-2.52 7.88-2.97 16.8-4 25h-2c-0.33 1.98-0.66 3.96-1 6-0.99 0.33-1.98 0.66-3 1v6c0.66-1.32 1.32-2.64 2-4-0.115 1.73-0.243 3.46-0.375 5.19-0.0696 0.963-0.139 1.93-0.211 2.92-0.416 2.91-1.21 5.22-2.41 7.89h-2c-0.289 0.969-0.577 1.94-0.875 2.94-1.12 3.06-1.12 3.06-3.12 4.06-1.03 2.37-1.03 2.37-1.94 5.19-3.61 10.4-3.61 10.4-6.06 12.8 0.33 0.66 0.66 1.32 1 2h-3c-0.103 0.846-0.206 1.69-0.312 2.56-0.885 4.43-2.63 8.24-4.59 12.3-1.69 3.62-2.15 5.36-1.1 9.14-1.44 2.25-1.44 2.25-3 4v-5c-0.398 1.04-0.797 2.07-1.21 3.14-0.535 1.37-1.07 2.74-1.61 4.11-0.261 0.682-0.522 1.36-0.791 2.07-1.44 3.66-2.92 6.59-5.4 9.68-0.33 0.99-0.66 1.98-1 3-0.481 0.46-0.962 0.92-1.46 1.39-1.9 1.98-2.44 3.68-3.23 6.29-0.251 0.808-0.503 1.62-0.762 2.45-0.182 0.615-0.364 1.23-0.551 1.86h2c-0.33 0.66-0.66 1.32-1 2h-3c-0.33 0.66-0.66 1.32-1 2h-2l-0.516 1.93c-0.242 0.826-0.485 1.65-0.734 2.5-0.232 0.824-0.464 1.65-0.703 2.5-1.05 2.07-1.05 2.07-3.16 2.85-0.936 0.106-0.936 0.106-1.89 0.215-0.33 1.98-0.66 3.96-1 6h-2v2c-0.454 0.433-0.908 0.866-1.38 1.31-1.77 1.61-1.77 1.61-2.44 3.94-1.14 2.64-2.14 3.92-4.06 6-3.44 3.82-5.29 7.98-7.12 12.8h-3c-0.66 2.64-1.32 5.28-2 8h-2c-0.33 0.66-0.66 1.32-1 2h-2c-0.99 2.31-1.98 4.62-3 7h-4c-0.33 0.99-0.66 1.98-1 3-1.31 1.03-2.65 2.02-4 3-1.69 1.65-3.35 3.31-5 5-1.08 0.959-1.08 0.959-2.19 1.94-2.01 1.99-2.01 1.99-2.66 4.9-2.27 6.23-7.81 10.8-13.4 14.1-1.77 0.682-3.54 1.35-5.31 2-3.98 1.74-6.73 3.86-8.94 7.62-1.5 2.44-1.5 2.44-4.19 3.94-0.763 0.495-1.53 0.99-2.31 1.5-0.418 2.63-0.418 2.63 0 5l-3.12-0.125c-3.74 0.121-6.41 0.774-9.88 2.12v2c-2.38 1.69-2.38 1.69-5 3-0.66-0.33-1.32-0.66-2-1 4.3-5.05 8.66-9.7 13.7-14 4.45-3.94 8.57-8.23 12.7-12.5 3.78-3.82 7.61-7.61 11.5-11.4 10.1-9.91 19.7-19.7 28.1-31.2 1.31-1.7 2.63-3.39 3.95-5.08 4.55-5.84 8.89-11.8 13.1-17.9 0.724-1.05 1.45-2.1 2.2-3.18 16.1-23.5 29.8-48.6 40.8-74.8 0.582-1.37 0.582-1.37 1.18-2.76 20.3-47.9 31.4-98.4 34.8-150 0.0894-1.25 0.0894-1.25 0.181-2.52 1.16-16.8 0.272-33.2-1.31-49.9-0.115-1.27-0.23-2.54-0.349-3.85-4.83-53.2-15.3-105-38.2-154-1.23-2.63-2.42-5.27-3.59-7.92-15.8-34.7-36.5-67.5-60.8-96.9-0.466-0.569-0.932-1.14-1.41-1.72-6.34-7.7-13-14.9-20.2-21.8-1.49-1.45-2.93-2.94-4.37-4.44v-2h-2c-1.73-1.63-3.36-3.28-5-5-1.16-1.18-2.32-2.35-3.49-3.52-0.62-0.625-1.24-1.25-1.88-1.89-5.71-5.74-11.4-11.4-17.6-16.6-0.79-0.668-1.58-1.34-2.39-2.02-12-9.99-24.7-18.9-37.6-27.6-1.31-0.886-2.61-1.77-3.92-2.67-8.79-6.01-17.7-11.6-27.1-16.7-1.03-0.564-1.03-0.564-2.08-1.14-27.9-15.2-57.4-28-87.9-36.9-0.944-0.278-1.89-0.556-2.86-0.842-16.8-4.95-33.8-9.2-51.1-12.2-0.961-0.171-1.92-0.341-2.91-0.517-1.82-0.318-3.65-0.623-5.47-0.91-4.88-0.847-7.35-1.62-10.6-5.52-1.65-0.976-3.35-1.89-5.06-2.75-22.4-11.9-39.1-30.4-46.7-54.7-5.56-18.8-7.62-36.5-2.27-55.6 0.302-1.14 0.603-2.28 0.914-3.45 7.66-25 24.4-45.7 47.1-58.5 24-12.5 47.2-15.7 73.5-9.56z" fill="#00BD70"/>
<path transform="translate(767 595)" d="m0 0c21.3 19.8 26.5 49.4 29.5 77 0.173 1.24 0.345 2.48 0.523 3.76 0.814 7.39 0.662 14.8 0.68 22.3 0.00424 1.23 0.00424 1.23 0.00857 2.48 0.0149 4.35 0.0242 8.71 0.0285 13.1 0.00435 3.54 0.0181 7.09 0.041 10.6 0.55 86.8 0.55 86.8-28 117-18.4 17.7-40.7 20.7-65.2 20.4-21.8-0.55-41.3-8.31-56.5-24.2-22-25.6-25.7-64.3-25.7-96.6-6.75e-4 -1.57-0.00165-3.13-0.0029-4.7-0.00146-3.26 6.34e-4 -6.52 0.00534-9.77 0.00574-4.18 0.00238-8.35-0.00357-12.5-0.00361-3.22-0.00247-6.45 1.28e-4 -9.67 6.66e-4 -1.54-1.49e-4 -3.08-0.00248-4.62-0.00254-2.14 0.00132-4.29 0.0069-6.43 7.96e-4 -1.22 0.00159-2.44 0.00241-3.69 0.127-2.98 0.127-2.98 1.13-5.98 0.112-2.05 0.22-4.1 0.29-6.16 0.977-28.4 8.73-59.5 29.7-79.8 30.2-27 82.1-27.4 113-1.98z" fill="#000100"/>
<path transform="translate(445 581)" d="m0 0c1.75-0.00835 1.75-0.00835 3.53-0.0169 1.92 0.0138 1.92 0.0138 3.87 0.0279 1.36-7.91e-4 2.72-0.00289 4.08-0.0062 3.69-0.00514 7.38 0.00841 11.1 0.0255 3.86 0.015 7.71 0.0139 11.6 0.0147 6.47 0.00369 12.9 0.0187 19.4 0.0412 8.32 0.0289 16.6 0.0392 25 0.0437 7.14 0.00397 14.3 0.0165 21.4 0.0303 2.3 0.00411 4.6 0.00703 6.91 0.0098 3.61 0.00488 7.22 0.0151 10.8 0.0294 1.96 0.00671 3.93 0.00853 5.89 0.0102 1.16 0.00571 2.32 0.0114 3.51 0.0173 1.01 0.00297 2.03 0.00595 3.07 0.00901 2.27 0.131 2.27 0.131 3.27 1.13v32c-54.9 0.495-54.9 0.495-111 1-1.65 15.5-3.3 31-5 47-0.66 5.94-1.32 11.9-2 18 0.495 3.47 0.495 3.47 1 7 0.857-0.364 0.857-0.364 1.73-0.734 25.5-10.5 52.3-13.4 78.2-2.71 4.99 2.38 9.54 5.23 14 8.45 0.634 0.449 1.27 0.897 1.92 1.36 5.81 4.53 9.9 10.6 14.1 16.6 0.559 0.793 1.12 1.59 1.7 2.4 9.75 14.9 13.6 34.1 14.3 51.6 0.0793 1.58 0.0793 1.58 0.16 3.19 0.7 25.8-5.92 51-22.9 70.8-13.8 14.6-34.4 22.3-54.3 23.1-28.5 0.669-54.2-3.41-75.7-23.7-12.1-13.3-21.3-32.1-21.3-50.4 2-2 2-2 5.07-2.23 1.29 0.0105 2.58 0.0209 3.9 0.0317 0.685 0.00283 1.37 0.00566 2.08 0.00858 2.19 0.0112 4.38 0.0363 6.57 0.0617 1.48 0.01 2.97 0.0192 4.45 0.0273 3.64 0.0221 7.28 0.0566 10.9 0.0977 0.181 0.589 0.361 1.18 0.547 1.78 0.844 2.72 1.71 5.44 2.58 8.15 0.284 0.926 0.567 1.85 0.859 2.81 4.23 13.1 11.8 22.3 24.1 28.6 12.5 6.15 29.6 7.18 43.1 3.75 13.3-4.79 21.7-14 27.7-26.5 7.08-17.1 8.44-40.5 2.23-58-0.373-0.878-0.745-1.76-1.13-2.66-0.3-0.744-0.601-1.49-0.91-2.25-5.61-12.4-14.7-22.6-27.4-27.8-13.3-4.72-30.5-5.19-43.7 0.0352-0.807 0.313-1.61 0.626-2.45 0.949-5.85 2.44-10.9 5.51-15.6 9.8-3.56 2.67-4.67 2.6-9 2.25-2.15-0.548-4.27-1.18-6.38-1.88-3.73-1.21-7.42-2.37-11.2-3.25-3.38-0.875-3.38-0.875-6.38-2.88-0.18-2.63-0.18-2.63 0.125-6.23 0.0824-1.03 0.0824-1.03 0.167-2.08 0.215-2.57 0.461-5.13 0.708-7.69 0.152-1.61 0.152-1.61 0.307-3.26 0.788-8.34 1.63-16.7 2.49-25 0.28-2.74 0.556-5.49 0.831-8.23 0.331-3.29 0.667-6.57 1-9.86 0.123-1.22 0.246-2.45 0.373-3.71 0.117-1.13 0.234-2.26 0.354-3.42 0.152-1.49 0.152-1.49 0.307-3.01 0.341-2.49 0.341-2.49 1.34-5.49 0.00206-1.94 0.0014-3.87-0.0229-5.81 0.0368-3.52 0.494-6.96 0.96-10.4 0.087-0.694 0.174-1.39 0.264-2.1 0.668-5.16 0.668-5.16 1.33-7.63 0.763-3.31 0.8-6.7 0.965-10.1 0.085-1.52 0.171-3.05 0.258-4.57 0.146-2.61 0.286-5.21 0.422-7.82 0.0645-0.963 0.129-1.93 0.195-2.92 0.049-0.833 0.098-1.67 0.148-2.52 1.15-5.07 4.35-5.48 9.07-5.47z" fill="#000100"/>
<path transform="translate(741 616)" d="m0 0c2.98 2.65 5.02 5.59 7.1 8.95 0.393 0.63 0.786 1.26 1.19 1.91 1.1 1.79 2.18 3.59 3.25 5.4 0.438 0.742 0.877 1.49 1.33 2.25 8.94 17.6 7.84 40 7.88 59.1 0.00424 1.53 0.00424 1.53 0.00857 3.09 0.0149 5.4 0.0242 10.8 0.0285 16.2 0.00546 5.51 0.0294 11 0.058 16.5 0.0189 4.3 0.0238 8.6 0.0254 12.9 0.00298 2.03 0.0108 4.05 0.0242 6.08 0.156 25.4-0.619 53.9-18.7 73.7-10.5 9.86-23.7 10.7-37.3 10.4-6.03-0.25-11-1.39-16.4-4.32-1.11-0.613-1.11-0.613-2.25-1.24-3.81-2.26-7.46-4.78-10.8-7.76v-2h-2c-15.3-21.1-16.2-47.2-16.2-72.1-0.00322-1.96-0.00659-3.92-0.0101-5.88-0.00596-4.1-0.00784-8.19-0.00725-12.3 1.01e-4 -5.2-0.0135-10.4-0.0308-15.6-0.0112-4.05-0.0131-8.09-0.0126-12.1-0.00116-1.91-0.0055-3.83-0.0133-5.74-0.0934-25.2 0.743-55 19.2-74.2 17.9-16.5 43.8-17.2 63.5-3.26z" fill="#FBFDFD"/>
<path transform="translate(1163,743)" d="m0 0c11.2 8.78 18.7 22 21 36 0.128 2.69 0.211 5.36 0.238 8.05 0.00807 0.779 0.0161 1.56 0.0245 2.36 0.0138 1.65 0.0245 3.3 0.0324 4.95 0.0114 1.66 0.0317 3.32 0.0615 4.97 0.331 18.5-2.53 33.5-15.7 47.5-12.5 11.8-26.6 14.8-43.3 14.7-11.3-0.338-20.9-3.25-30.4-9.47-1.03-0.661-1.03-0.661-2.08-1.34-11.7-8.1-18.8-21.5-21.5-35.3-0.75-5.85-0.748-11.7-0.777-17.6-0.00564-1.1-0.0113-2.2-0.0171-3.34 0.157-17.7 5.09-34.2 17.8-46.9 21.5-18.9 50.9-18.9 74.5-4.53z" fill="#000100"/>
<path transform="translate(1026,586)" d="m0 0c6.74 5.06 11.8 10.7 16 18 0.378 0.634 0.755 1.27 1.14 1.92 10.7 19.3 8.76 46.5 3.01 67.1-4.13 11.6-13.6 21.3-24.4 26.9-1.57 0.734-3.15 1.44-4.75 2.12-0.799 0.353-1.6 0.706-2.42 1.07-12.5 4.51-31.5 3.96-43.9-0.73-14.5-7.11-24.9-16.9-30.7-32.1-6.38-19.9-6.37-43.2 2.47-62.4 7.76-14.4 19.1-23.3 34.4-28.8 16.7-4.82 34.4-2.17 49.1 7.04z" fill="#000100"/>
<path transform="translate(1117,609)" d="m0 0c3.95 0.344 7.33 2.66 10.7 4.62 0.594 0.318 1.19 0.637 1.8 0.965 3.25 1.92 4.43 3.15 5.65 6.75-0.16 4.4-1.56 7.04-3.95 10.6-0.617 0.972-0.617 0.972-1.25 1.96-0.869 1.36-1.74 2.72-2.63 4.08-1.24 1.91-2.45 3.84-3.65 5.78-3.57 5.78-7.19 11.5-10.8 17.2-7.13 11.2-14.1 22.4-21.1 33.7-3.72 6.06-7.49 12.1-11.4 18-5.48 8.37-10.6 16.9-15.8 25.5-7.82 12.9-15.8 25.7-23.9 38.5-4.08 6.44-8.12 12.9-12.2 19.4-5.16 8.27-10.3 16.5-15.6 24.8-0.672 1.06-0.672 1.06-1.36 2.14-0.433 0.673-0.867 1.35-1.31 2.04-0.882 1.42-1.71 2.88-2.51 4.36-1.14 2.07-2.23 3.91-3.77 5.7-3.26 0.94-4.89 0.573-7.88-0.969-2.06-1.27-4.03-2.62-5.99-4.03-0.688-0.477-1.38-0.954-2.09-1.45-1.69-1.17-3.36-2.36-5.04-3.55 1.64-4.6 4.01-8.63 6.5-12.8 0.446-0.752 0.892-1.5 1.35-2.28 4.12-6.92 8.38-13.7 12.7-20.6 2.31-3.68 4.61-7.37 6.91-11.1 5.17-8.28 10.3-16.5 15.6-24.8 9.98-15.8 19.8-31.6 29.6-47.5 3.11-5.02 6.25-10 9.43-15 2.74-4.32 5.42-8.68 8.11-13 6.93-11.2 13.9-22.4 21.1-33.5 5.53-8.52 10.8-17.2 16-25.9 0.868-1.44 0.868-1.44 1.75-2.91 0.778-1.3 0.778-1.3 1.57-2.62 1.37-2.12 1.37-2.12 3.37-4.12z" fill="#000100"/>
<path transform="translate(1144,760)" d="m0 0c2.75 2.25 2.75 2.25 5 5 0.503 0.565 1.01 1.13 1.52 1.71 7.64 9.13 7.96 19.8 7.85 31.3 0.0116 1.19 0.0232 2.39 0.0352 3.62-0.0301 9.17-0.801 18.8-6.41 26.4-0.516 0.825-1.03 1.65-1.56 2.5-5.41 5.55-11.1 7.73-18.8 7.99-9.62 0.024-17-1.41-24.7-7.51-9.91-10.4-10.4-24.8-10.1-38.3 0.451-11.2 3.73-22.3 12.1-30 10.9-8.06 23.4-9.16 35.2-2.61z" fill="#FBFDFD"/>
<path transform="translate(1013,607)" d="m0 0c10.3 11.7 11.7 25.7 11.1 40.8-0.606 9.15-1.83 19.5-8.23 26.5-0.755 0.655-1.51 1.31-2.29 1.98-0.75 0.665-1.5 1.33-2.27 2.02-7.47 5.51-17.5 4.69-26.4 3.73-7.72-2.1-14.3-7.29-18.3-14.2-4.03-8.45-3.93-16.9-3.97-26.1-0.0206-1.08-0.0412-2.15-0.0625-3.26-0.0624-12.9 3.63-21.3 11.6-31.2 11-8.77 27.9-9.94 38.8-0.188z" fill="#FBFDFD"/>
<path transform="translate(1063,1089)" d="m0 0c0.99 0.33 1.98 0.66 3 1-1.85 1.76-3.7 3.51-5.56 5.25-0.514 0.491-1.03 0.982-1.56 1.49-2.7 2.51-5.29 4.6-8.53 6.37-3.1 1.75-4.91 3.36-7.35 5.89-3.08 2.21-6.19 4.36-9.32 6.49-3.36 3.15-3.8 5.07-4.68 9.51h-2v2c-1.07 0.29-1.07 0.29-2.15 0.586-1.38 0.391-1.38 0.391-2.79 0.789-0.917 0.255-1.83 0.51-2.78 0.773-2.45 0.618-2.45 0.618-3.29 2.85h-2c-0.0825 0.784-0.165 1.57-0.25 2.38-0.75 2.62-0.75 2.62-2.39 3.62-0.779 0.331-1.56 0.663-2.36 1-1.02 0.437-2.04 0.874-3.09 1.32-1.12 0.45-2.25 0.9-3.41 1.36-1.12 0.458-2.25 0.915-3.41 1.39-3.14 0.941-4.11 0.9-7.09-0.0742-3.2 0.871-3.2 0.871-6 2v3c-2.48 0.495-2.48 0.495-5 1v3c-2.97 0.495-2.97 0.495-6 1v2c-3.75 1.12-3.75 1.12-6 0-0.33 0.99-0.66 1.98-1 3-5.98 7.71-21 10.5-30 12-1.52 0.142-3.04 0.268-4.56 0.375-4.91 0.433-9.04 2.39-13.5 4.36-4.72 2.05-9.55 3.62-14.5 4.97-0.874 0.241-1.75 0.482-2.65 0.73-0.789 0.205-1.58 0.41-2.39 0.621-2.51 0.857-2.51 0.857-4.7 2.94-3.29 2.48-5.86 2.94-9.91 3.63-1.33 0.239-2.67 0.478-4 0.719-1.24 0.217-2.47 0.433-3.75 0.656-3.01 0.629-6 1.31-9 2-0.697 0.101-1.39 0.201-2.11 0.305-0.623 0.229-1.25 0.459-1.89 0.695-0.271 0.588-0.541 1.18-0.82 1.78-1.79 3.37-4.87 4.82-8.05 6.72-4.22 2.55-7.63 4.99-11.1 8.5-3.25 0.75-3.25 0.75-6 1v2c-3.73 2.03-5.67 3-10 3-0.701 0.206-1.4 0.412-2.12 0.625-0.619 0.124-1.24 0.247-1.88 0.375-0.66-0.66-1.32-1.32-2-2-0.0412 0.619-0.0825 1.24-0.125 1.88-0.289 0.701-0.578 1.4-0.875 2.12-3.06 1.25-3.06 1.25-6 2 0.186 0.598 0.371 1.2 0.562 1.81 0.438 2.19 0.438 2.19-0.562 5.19 0.66 0.33 1.32 0.66 2 1v2h-2v2c-1.32 0.33-2.64 0.66-4 1 0.0412 0.908 0.0825 1.82 0.125 2.75-0.12 3.13-0.516 4.64-2.12 7.25h-2c0.186-0.557 0.371-1.11 0.562-1.69 0.513-2.71 0.102-4.66-0.562-7.31-0.66 0.33-1.32 0.66-2 1-0.33 0.99-0.66 1.98-1 3h-2c0.66-2.97 1.32-5.94 2-9h-2c1.72-8.74 8.52-16.3 14-23 0.592-0.799 1.18-1.6 1.79-2.42 2.68-3.13 5.63-5.52 8.89-8.02 0.622-0.482 1.24-0.963 1.89-1.46 6.58-5.06 13.2-9.71 20.7-13.2 2-0.949 2-0.949 4.73-2.86 4.11-1.37 7.66-2.26 12-2-0.33-0.99-0.66-1.98-1-3 0.799-0.156 1.6-0.311 2.42-0.471 29.5-5.41 29.5-5.41 58.3-13.7 2.08-0.729 4.13-1.28 6.28-1.8 7.5-2.34 14.7-5.25 22-8.2 1.95-0.784 3.9-1.55 5.86-2.31 6.67-2.6 13.1-5.38 19.5-8.67 3.9-2 7.87-3.84 11.8-5.71 23.3-11 45-24.2 65.6-39.7 1.66-1.21 3.39-2.33 5.14-3.42z" fill="#00BD70"/>
<path transform="translate(1341,1062)" d="m0 0c2.18 3.27 2.35 4.77 1.75 8.6-1.64 5.25-5.07 9.62-8.19 14.1-0.727 1.07-1.45 2.13-2.2 3.23-4.54 6.6-9.21 13.1-14.2 19.3-2.2 2.78-4.28 5.62-6.36 8.5-3.5 4.84-7.11 9.57-10.8 14.2-0.626 0.802-1.25 1.6-1.9 2.43-3.32 4.22-6.72 8.3-10.4 12.3-4.54 4.95-8.67 10.2-12.8 15.5-1.28 1.64-2.63 3.24-3.99 4.83h-2c-0.227 0.536-0.454 1.07-0.688 1.62-2.31 4.19-4.77 7.62-9.12 9.75-1.08 0.309-1.08 0.309-2.19 0.625-0.33-0.99-0.66-1.98-1-3 1.48-0.495 1.48-0.495 3-1-0.186-0.908-0.371-1.82-0.562-2.75-0.41-3.05-0.35-4.42 0.562-7.25 0.341-1.67 0.676-3.33 1-5h2v-2h-2v-2h2c0.0825-0.949 0.165-1.9 0.25-2.88 0.247-1.03 0.495-2.06 0.75-3.12 1.32-0.702 2.65-1.37 4-2 1.77-3.03 1.77-3.03 3-6 0.33 0.66 0.66 1.32 1 2 5.31-2.36 6.84-5.91 9-11h3v-3h-2c0.75-2.44 0.75-2.44 2-5 2.12-0.812 2.12-0.812 4-1-0.66 1.32-1.32 2.64-2 4 1.48 0.495 1.48 0.495 3 1l-3 3c1.48 0.495 1.48 0.495 3 1v-8c1.11-0.0825 2.23-0.165 3.38-0.25 1.2-0.247 2.39-0.495 3.62-0.75 1.18-1.87 1.18-1.87 2-4 1.66-1.01 3.33-2.01 5-3 0.33-0.99 0.66-1.98 1-3-0.99-0.66-1.98-1.32-3-2 1.32-0.66 2.64-1.32 4-2v-2h2c0.33 0.66 0.66 1.32 1 2h2v-2h-2v-3h2c-0.33-0.99-0.66-1.98-1-3h3c0.33-0.99 0.66-1.98 1-3 0.99-0.33 1.98-0.66 3-1 1.03-1.65 2.02-3.32 3-5 1.16-1.62 2.35-3.22 3.56-4.81 0.899-1.19 0.899-1.19 1.82-2.39 0.802-0.888 0.802-0.888 1.62-1.79h2c0.0735-1.5 0.0735-1.5 0.148-3.03 0.0748-1.29 0.15-2.58 0.227-3.91 0.0696-1.29 0.139-2.58 0.211-3.9 0.137-1.04 0.273-2.09 0.414-3.16 2.71-1.35 5.01-1.07 8-1 0.33-0.66 0.66-1.32 1-2v2h2c0.33-1.65 0.66-3.3 1-5z" fill="#00BF73"/>
<path transform="translate(1237,1186)" d="m0 0h9c-0.219 6.26-3.25 8.89-7.56 12.9-0.64 0.619-1.28 1.24-1.94 1.88-6.99 6.72-14.3 12.9-21.9 19-2.69 2.28-5.13 4.71-7.61 7.21-1.47 1.28-2.97 2.53-4.5 3.75-0.732 0.593-1.46 1.19-2.22 1.8-2.47 1.57-4.4 2.07-7.28 2.45-0.688-2.31-0.688-2.31-1-5 1.19-1.81 1.19-1.81 3-3h4v-3h2c0.66-1.32 1.32-2.64 2-4h3v-3h-5v-2h5v-3c0.99 0.33 1.98 0.66 3 1 0.33 0.99 0.66 1.98 1 3-0.66 0.99-1.32 1.98-2 3 1.48 0.495 1.48 0.495 3 1-0.33-3.96-0.66-7.92-1-12h-2c0.99-2.97 1.98-5.94 3-9h3v-3c10.1-1.32 10.1-1.32 12.8-0.375 3.1 0.532 5.3-0.509 8.19-1.62v-4h2v-4z" fill="#00BF73"/>
<path transform="translate(1041,1307)" d="m0 0c2.32 0.638 4.65 1.12 7.01 1.57 1.99 0.43 1.99 0.43 3.99 1.43v6l3-6h2c-0.615 5.54-0.615 5.54-2.56 7.88-0.474 0.371-0.949 0.743-1.44 1.12-0.784-0.351-1.57-0.701-2.38-1.06-0.866-0.309-1.73-0.619-2.62-0.938-0.99 0.495-0.99 0.495-2 1-0.33 0.99-0.66 1.98-1 3-0.33-0.66-0.66-1.32-1-2-0.99 0.33-1.98 0.66-3 1 0.66 0.99 1.32 1.98 2 3-2.31 0.33-4.62 0.66-7 1 0.66-1.32 1.32-2.64 2-4h-2v-3c-2.97-0.495-2.97-0.495-6-1-1-3-1-3 0.188-6.56 1.81-3.44 1.81-3.44 3.69-5.06 3.13-0.552 4.45 0.959 7.12 2.62z" fill="#00BF73"/>
<path transform="translate(1108,1289)" d="m0 0c2.1-0.399 2.1-0.399 4-1-0.835 3.76-1.37 5.55-4.56 7.81-3.54 1.22-6.61 1.58-10.3 1.87-2.85 0.425-4.83 1.61-7.12 3.32v-2c-1.65 0.66-3.3 1.32-5 2v-5c5.44-0.495 5.44-0.495 11-1 0.33-0.99 0.66-1.98 1-3h5v-3c3.75-1.12 3.75-1.12 6 0z" fill="#00BF73"/>
<path transform="translate(1282,1114)" d="m0 0c1.32 0.66 2.64 1.32 4 2-0.99 1.48-0.99 1.48-2 3h-2c-0.33 0.66-0.66 1.32-1 2-0.33-0.99-0.66-1.98-1-3h-2v4c-0.606 1.69-1.28 3.36-2 5-0.371 0.928-0.743 1.86-1.12 2.81-0.289 0.722-0.578 1.44-0.875 2.19h-2v2h-4c-1.34 0.298-2.68 0.622-4 1v-2c1.32-0.33 2.64-0.66 4-1 0.33-2.31 0.66-4.62 1-7 1.18-0.34 1.18-0.34 2.38-0.688 2.83-1.08 2.83-1.08 3.81-3.81 0.268-0.825 0.536-1.65 0.812-2.5 0.66-0.66 1.32-1.32 2-2h4v-2z" fill="#00C074"/>
<path transform="translate(1333,1083)" d="m0 0c0 7.95-9.68 17.4-14.4 23.7-0.524 0.707-1.05 1.41-1.59 2.14-0.742 0.987-0.742 0.987-1.5 1.99-0.662 0.883-0.662 0.883-1.34 1.78-1.2 1.39-1.2 1.39-3.2 2.39-0.201-3.63 0.142-5.87 2-9h3v-2c-0.99-0.33-1.98-0.66-3-1 0.99-0.66 1.98-1.32 3-2v2c4.21-2.16 6.24-4.35 8.69-8.38 0.581-0.936 1.16-1.87 1.76-2.84 1.61-2.72 1.61-2.72 2.57-5.58 0.324-0.73 0.647-1.46 0.98-2.21 0.99-0.33 1.98-0.66 3-1z" fill="#00BD70"/>
<path transform="translate(1320,1068)" d="m0 0c2-0.0425 4-0.0408 6 0 1 1 1 1 1.06 4.56-0.0206 1.13-0.0412 2.27-0.0625 3.44h-2c-0.33 0.66-0.66 1.32-1 2v-5h-2c0.0619 1.11 0.0619 1.11 0.125 2.25-0.133 2.93-0.368 4.41-2.12 6.75-2.62 0.75-2.62 0.75-5 1-0.33-1.65-0.66-3.3-1-5 1.65-0.33 3.3-0.66 5-1 1.81-4.43 1.81-4.43 1-9z" fill="#00BF73"/>
<path transform="translate(821,153)" d="m0 0h1c1.56 6.98 2.48 13.9 3 21h2c-0.33 3.63-0.66 7.26-1 11-5.3-10.6-7.57-20.3-5-32z" fill="#00BD70"/>
<path transform="translate(119,1464)" d="m0 0c1.46-0.054 2.92-0.0928 4.38-0.125 0.812-0.0232 1.62-0.0464 2.46-0.0703 2.16 0.195 2.16 0.195 4.16 2.2-0.99 0.99-1.98 1.98-3 3 0.99 0.66 1.98 1.32 3 2-1 1-1 1-3.07 1.1-0.824-0.0116-1.65-0.0232-2.5-0.0352-0.826-0.00902-1.65-0.018-2.5-0.0273-0.638-0.0116-1.28-0.0232-1.93-0.0352-0.33-2.64-0.66-5.28-1-8z" fill="#FDFEFE"/>
<path transform="translate(1506,1463)" d="m0 0h11c0.982 2.94 1.16 4.94 1 8-1 1-1 1-4.06 1.06-0.969-0.0206-1.94-0.0412-2.94-0.0625v-8h-5v-1z" fill="#FDFEFE"/>
<path transform="translate(638,1462)" d="m0 0h9c-0.33 1.32-0.66 2.64-1 4h-4v3c1.32 0.66 2.64 1.32 4 2-1 1-1 1-4.06 1.06-0.969-0.0206-1.94-0.0412-2.94-0.0625-0.778-3.41-1.1-6.51-1-10z" fill="#FDFEFE"/>
<path transform="translate(1262,1137)" d="m0 0c0.99 0.33 1.98 0.66 3 1 1.67 0.0387 3.33 0.045 5 0-0.804 0.619-1.61 1.24-2.44 1.88-2.6 1.87-2.6 1.87-3.56 4.12-2.06 1.12-2.06 1.12-4 2v2h-3c-0.33 1.65-0.66 3.3-1 5h-3c0.99-2.31 1.98-4.62 3-7h2v-3c0.99-0.66 1.98-1.32 3-2 0.724-2.06 0.724-2.06 1-4z" fill="#00C074"/>
<path transform="translate(1220,250)" d="m0 0c1.67 1.67 3.33 3.33 5 5 0.846 0.454 1.69 0.907 2.56 1.38 0.804 0.536 1.61 1.07 2.44 1.62v3c1.53 1.9 1.53 1.9 3.5 3.69 0.65 0.623 1.3 1.25 1.97 1.89 0.505 0.471 1.01 0.941 1.53 1.43-0.33 0.66-0.66 1.32-1 2-2.7-2.63-5.22-5.23-7.56-8.19-2.26-2.61-3.47-3.38-6.44-4.81-1.69-2.62-2-3.83-2-7z" fill="#00BD70"/>
<path transform="translate(916,245)" d="m0 0h5c0.33 1.32 0.66 2.64 1 4 1.65 0.33 3.3 0.66 5 1v2h2v2h-5v-2h-2v-2c-1.65-0.33-3.3-0.66-5-1-0.33-1.32-0.66-2.64-1-4z" fill="#00BD70"/>
<path transform="translate(1334,931)" d="m0 0c2.06 2.25 2.06 2.25 4 5-0.25 2.12-0.25 2.12-1 4v3c-0.631 2.01-1.29 4.01-2 6h-1c-1.33-12.7-1.33-12.7 0-18z" fill="#00BD70"/>
<path transform="translate(1327,1057)" d="m0 0h4c2 2 2 2 2.12 4.62-0.0412 0.784-0.0825 1.57-0.125 2.38h-5v-2h-3c0-3 0-3 2-5z" fill="#00C074"/>
<path transform="translate(1044,297)" d="m0 0h5v2c1.98 0.66 3.96 1.32 6 2v3c0.99 0.33 1.98 0.66 3 1-2 1-2 1-4.44 0.25-2.48-1.21-3.69-2.3-5.56-4.25-2.1-1.18-2.1-1.18-4-2v-2z" fill="#00BD70"/>
<path transform="translate(851,118)" d="m0 0c5.15-0.0904 9.92 0.153 15 1-3.48 2.14-6.21 2.21-10.2 2.12-1.08-0.018-2.16-0.0361-3.27-0.0547-0.82-0.0232-1.64-0.0464-2.48-0.0703 0.33-0.99 0.66-1.98 1-3z" fill="#00BD70"/>
<path transform="translate(1295,1134)" d="m0 0c0.66 0.33 1.32 0.66 2 1-1.39 1.76-2.79 3.5-4.19 5.25-0.777 0.975-1.55 1.95-2.36 2.95-2.31 2.63-4.66 4.71-7.46 6.8 1.46-3.19 3.27-5.81 5.44-8.56 0.597-0.764 1.19-1.53 1.81-2.32 1.51-1.82 3.05-3.49 4.75-5.12z" fill="#00BD70"/>
<path transform="translate(1154,415)" d="m0 0c0.99 0.33 1.98 0.66 3 1 0.688 2.06 0.688 2.06 1 4h3c0.33 1.32 0.66 2.64 1 4h-5c-0.33-0.99-0.66-1.98-1-3-0.99-0.33-1.98-0.66-3-1 0.33-0.66 0.66-1.32 1-2v-3z" fill="#00BD70"/>
<path transform="translate(1339,931)" d="m0 0c2.06 2.06 2.06 2.06 4 5-0.25 3.81-0.25 3.81-1 7-0.99 0.33-1.98 0.66-3 1-0.838-4.66-1.02-8.37 0-13z" fill="#00BD70"/>
<path transform="translate(814,1469)" d="m0 0c1.44-0.0542 2.87-0.0929 4.31-0.125 0.801-0.0232 1.6-0.0464 2.43-0.0703 2.26 0.195 2.26 0.195 5.26 2.2-1 1-1 1-3.29 1.1-1.37-0.0174-1.37-0.0174-2.78-0.0352-0.919-0.00902-1.84-0.018-2.79-0.0273-0.71-0.0116-1.42-0.0232-2.15-0.0352-0.33-0.99-0.66-1.98-1-3z" fill="#FDFEFE"/>
<path transform="translate(1323 1055)" d="m0 0c0.897 0.309 0.897 0.309 1.81 0.625-0.619 0.0825-1.24 0.165-1.88 0.25-2.82 0.996-2.84 2.11-4.12 4.75-4.44 4-4.44 4-7 4v-2h3v-2h2c0.155-0.928 0.155-0.928 0.312-1.88 1.02-3.14 2.57-4.32 5.88-3.75z" fill="#00C074"/>
<path transform="translate(867,1174)" d="m0 0v2c-4.79 1.63-8.06 2.21-13 1 4.52-3.01 7.66-3.1 13-3z" fill="#00482A"/>
<path transform="translate(1297,346)" d="m0 0c1.48 0.99 1.48 0.99 3 2 0.144 0.825 0.289 1.65 0.438 2.5 0.292 2.67 0.292 2.67 2.62 3.81 0.639 0.227 1.28 0.454 1.94 0.688-0.33 0.99-0.66 1.98-1 3-1.38-1.29-2.71-2.63-4-4v-2h-2c-0.33-1.98-0.66-3.96-1-6z" fill="#00C074"/>
</svg>
