<?xml version="1.0" encoding="UTF-8"?>
<svg version="1.1" viewBox="0 0 1600 1464" width="1280" height="1280" xmlns="http://www.w3.org/2000/svg">
<path transform="translate(0)" d="m0 0h1600v1464h-1600v-1464z" fill="#00BF71"/>
<path transform="translate(0)" d="m0 0h1600v1464h-1600v-1464zm700 88.7c-2.84 0.428-5.68 0.818-8.52 1.21-11.2 1.57-22.3 3.23-33.3 6.2-3.32 0.891-6.64 1.62-10 2.3-18.1 3.81-35.8 9.07-53.4 14.6l-2.04 0.635c-34.8 10.8-69.1 26-101 43.3-2.59 1.4-5.2 2.74-7.84 4.04-11.8 5.87-23 12.8-34 20-1.87 1.19-3.75 2.38-5.62 3.56-9.29 5.91-18.4 12.1-27.4 18.4l-1.98 1.4c-8.36 5.91-16.6 11.9-24.3 18.6-3.86 3.35-7.84 6.52-11.9 9.65-5.85 4.54-11.4 9.36-16.8 14.4-1.31 1.15-2.62 2.3-3.94 3.44-10.4 8.95-10.4 8.95-19.7 19-1.49 1.69-3.08 3.08-4.82 4.51-3.32 2.74-6.03 5.79-8.81 9.06-1.68 1.92-3.43 3.72-5.25 5.5-3.04 2.99-5.85 6.12-8.62 9.34-2.05 2.36-4.15 4.66-6.25 6.97-18.2 20.3-34.5 42.6-49.6 65.2-0.754 1.12-0.754 1.12-1.52 2.27-24 35.9-44.4 74.7-60.5 115-0.306 0.755-0.612 1.51-0.927 2.29-21.4 53.2-36.8 111-42.1 168-0.131 1.34-0.131 1.34-0.264 2.7-0.872 9.86-0.882 19.7-0.869 29.6-6.76e-4 1.85-0.00165 3.69-0.0029 5.54-0.00147 3.85 6.4e-4 7.71 0.00534 11.6 0.00568 4.89 0.00242 9.78-0.00357 14.7-0.00365 3.81-0.00245 7.62 1.28e-4 11.4 6.58e-4 1.8-1.18e-4 3.6-0.00248 5.4-0.00977 9.54 0.13 19 0.788 28.6 0.273 3.95 0.39 7.86 0.336 11.8-0.0554 6.39 0.52 12.7 1.2 19 0.199 1.87 0.199 1.87 0.401 3.78 2.69 24.3 6.86 48.2 12.4 72l0.886 3.81c14.6 62.3 38.6 122 71.1 177 0.585 0.999 1.17 2 1.77 3.03 11 18.8 22.9 36.8 36 54.3 1.21 1.63 2.42 3.26 3.62 4.89 11.4 15.3 23.8 29.7 36.8 43.7 1.78 1.92 3.54 3.85 5.3 5.79 6.49 7.16 13.2 14.1 20 20.9 1.7 1.7 3.4 3.4 5.09 5.1 5.63 5.64 11.3 11.1 17.4 16.3 1.23 1.07 2.45 2.14 3.68 3.21 14.9 13 30.2 25.3 46.4 36.6 2.95 2.17 2.95 2.17 3.95 4.17 1.64 1.04 3.31 2.04 5 3 5.3 3.3 10.5 6.68 15.7 10.2 45 30.5 95.1 56.3 147 72.7 3.48 1.11 6.95 2.25 10.4 3.39 26.4 8.69 52.8 15.2 80.1 20.3 2.73 0.52 5.46 1.05 8.19 1.59 12.4 2.38 24.9 4.04 37.4 5.45 2.31 0.325 2.31 0.325 4.23 0.844 2.73 0.634 5.36 0.702 8.16 0.798 1.18 0.0419 2.36 0.0838 3.57 0.127 1.84 0.059 1.84 0.059 3.72 0.119 1.22 0.0432 2.44 0.0864 3.7 0.131 6.6 0.238 6.6 0.238 13.2 0.256 2.73 0.051 2.73 0.051 4.73 1.05 1.41 0.0718 2.83 0.0839 4.25 0.0625l2.54-0.0234c1.77-0.026 3.53-0.052 5.3-0.0781l2.54-0.0234c0.768-0.0116 1.54-0.0232 2.33-0.0352 2.05 0.0977 2.05 0.0977 5.05 1.1 2.21 0.0955 4.43 0.131 6.64 0.133l3.99 0.00391c0.686-0.00209 1.37-0.00419 2.08-0.00635 2.08-0.00533 4.16-6.19e-5 6.24 0.00635 1.33-6.61e-4 2.67-0.00194 4-0.00391 1.81-0.00169 1.81-0.00169 3.66-0.00342 3.22-0.123 6.22-0.565 9.39-1.13 2.42-0.0422 4.83-0.0411 7.25 0 4.54 0.258 4.54 0.258 8.75-1 2.23-0.0463 4.46-0.0379 6.69 0 4.91 0.0399 9.46-0.253 14.3-1 1.67-0.0218 3.33-0.02 5 0 4.81 0.0434 9.31-0.412 14-1.44 5.61-1.21 11.2-1.92 16.9-2.5 6.18-0.633 12-1.62 18-3.28 3.85-0.968 7.71-1.63 11.6-2.29 6.93-1.17 13.7-2.7 20.5-4.5 1.94-0.482 3.87-0.961 5.81-1.44 7.08-1.78 14.1-3.63 21.2-5.56 1.19-0.324 2.38-0.647 3.61-0.98 19.6-5.54 39.1-12.3 58-19.9 2.94-1.19 5.82-2.22 8.89-3.06 3.95-1.18 7.36-2.83 11-4.73 1.42-0.724 2.84-1.45 4.25-2.17 1.07-0.542 1.07-0.542 2.15-1.1 3.15-1.58 6.33-3.07 9.53-4.55 0.614-0.286 1.23-0.571 1.86-0.865 3.21-1.49 6.43-2.96 9.65-4.43 22.3-10.2 43.8-22.4 64.1-36.2 1.18-0.779 2.36-1.56 3.54-2.33 8.32-5.47 16.4-11.2 24.4-17.1 2.24-1.65 4.49-3.29 6.74-4.92 9.3-6.74 18.2-13.7 26.8-21.3 2.22-1.92 4.53-3.73 6.83-5.56 5.77-4.68 11.1-9.77 16.5-14.9 4.07-3.88 8.2-7.66 12.5-11.3 1.54-1.37 2.98-2.85 4.41-4.34 2.31-2.19 2.31-2.19 5-3.19l2.31-1c0.302-0.767 0.603-1.53 0.914-2.32 1.2-2.95 2.46-4.33 4.77-6.49 3.32-3.2 6.39-6.49 9.4-9.99 3.03-3.49 6.17-6.88 9.29-10.3 17.6-19.5 33.5-40.4 48.6-61.9 0.699-0.969 1.4-1.94 2.12-2.94 6.9-9.7 13-19.9 19.1-30.1 1.68-2.81 3.38-5.6 5.08-8.4 11.4-18.8 21.3-38.4 30.8-58.1 0.532-1.1 1.06-2.2 1.61-3.33 3.01-6.28 5.77-12.6 8.26-19.1 0.312-0.8 0.623-1.6 0.944-2.42 4.96-12.8 9.67-25.6 14.1-38.6 0.282-0.825 0.564-1.65 0.854-2.5 19.9-58.6 29-121 30.8-183 0.0337-1.17 0.0337-1.17 0.0681-2.36 0.338-12.3 0.293-24.5-0.0681-36.8-0.0213-0.756-0.0427-1.51-0.0646-2.29-0.0795-8.66-0.0795-8.66-1.56-17.1-0.0641-2.2 2.34e-4 -4.38 0.0625-6.59-0.00313-2.47-0.00313-2.47-0.541-5.08-0.576-3.68-0.764-7.33-0.924-11-0.488-9.4-1.73-18.6-3.16-27.9-0.128-0.848-0.257-1.7-0.389-2.57-2.95-19.4-6.8-38.6-11-57.8-0.346-1.57-0.346-1.57-0.698-3.17-7.78-34.6-20.1-69.3-34.3-102-0.707-1.64-1.41-3.28-2.12-4.91-3.94-9.06-8.16-17.9-12.7-26.7-1.37-2.67-2.72-5.35-4.07-8.03-13.2-25.9-28.7-50.3-44.9-74.4-1.09-1.64-2.14-3.3-3.2-4.96-1.68-2.39-3.37-4.46-5.31-6.62-3.55-3.97-6.62-8.2-9.72-12.5-3.19-4.39-6.6-8.58-10-12.8-1.08-1.35-1.08-1.35-2.19-2.72-4.42-5.46-8.97-10.8-13.7-16-1.86-2.04-3.68-4.11-5.48-6.2-3.45-3.96-7.01-7.82-10.6-11.7-2.69-2.92-5.34-5.87-7.94-8.88-2.59-2.99-5.29-5.8-8.12-8.56l-2.23-2.25c-7.95-7.89-16.2-15.4-24.9-22.4-3.34-2.71-6.59-5.5-9.84-8.31-5.92-5.1-11.9-10.1-18-15l-2.8-2.25c-10.3-8.14-21.3-15.4-32.2-22.8-1.2-0.807-2.39-1.61-3.59-2.42-2.79-1.87-5.6-3.73-8.41-5.58l-3.27-2.16c-8.03-5.27-16.3-10.1-24.7-14.7-1.97-1.09-3.92-2.21-5.87-3.33-48.7-27.9-101-48.5-155-62.8l-3.22-0.852c-21.6-5.68-43.3-9.97-65.4-12.9-0.803-0.107-1.61-0.214-2.43-0.324-58.5-7.72-124-8.4-183 0.738z" fill="#FCFDFE"/>
<path transform="translate(773 277)" d="m0 0c1.56-0.00957 1.56-0.00957 3.14-0.0193 1.13-0.00111 2.27-0.00223 3.43-0.00337 1.18-0.00333 2.36-0.00666 3.57-0.0101 2.52-0.00508 5.03-0.00741 7.55-0.00725 3.75-0.00214 7.51-0.0202 11.3-0.0393 22.2-0.0551 44.1 0.79 65.9 5.54 1.51 0.318 3.02 0.636 4.53 0.952 4.22 0.89 8.44 1.81 12.7 2.74 1.01 0.215 2.03 0.431 3.07 0.652 41.6 8.83 83.5 23.9 120 45.3 2.37 1.36 4.79 2.63 7.21 3.89 14.5 7.93 28.2 17.4 41.6 27.1 1.51 1.08 1.51 1.08 3.05 2.18 10.8 7.76 21.2 15.7 31 24.8 0.656 0.612 1.31 1.22 1.99 1.86 5.02 4.69 10 9.39 15 14.1 0.61 0.578 1.22 1.16 1.85 1.75 1.42 1.38 2.79 2.81 4.15 4.25v2h2c4.3 3.91 8.06 8.36 11.9 12.7 1.65 1.83 3.34 3.57 5.09 5.3 20.5 24.1 38.7 51 53.8 78.8 1.1 2.02 2.21 4.03 3.34 6.04 47.6 85.8 60.4 187 43.9 303-0.221 1.14-0.221 1.14-0.447 2.31-13.2 67.6-45.7 135-89.6 188l-2.1 2.66c-4.8 6.03-9.89 11.5-15.4 16.8-2.54 2.47-2.54 2.47-4.68 5.33-0.594 0.719-1.19 1.44-1.8 2.18h-2c-0.33 0.99-0.66 1.98-1 3h-2c-0.268 0.598-0.536 1.2-0.812 1.81-1.19 2.19-2.28 3.6-4.19 5.19h-2c-0.268 0.639-0.536 1.28-0.812 1.94-1.19 2.06-1.19 2.06-4.19 3.06-0.671 1.33-1.34 2.66-2 4-2 2.01-2 2.01-4.44 4.12-3.75 3.29-7.46 6.61-11.1 10-10.1 9.18-21.3 16.9-32.4 24.9-0.588 0.421-1.18 0.841-1.78 1.27-23.6 16.8-48.9 30.6-75.2 42.7-0.848 0.393-1.7 0.786-2.57 1.19-11 5.04-22.2 9.24-33.6 13.1-1.2 0.4-2.4 0.801-3.63 1.21-15.4 5.05-31.1 9.18-46.9 12.6-0.792 0.171-1.58 0.342-2.4 0.519-15.5 3.33-31 5.79-46.8 7.42-1.62 0.174-1.62 0.174-3.28 0.351-30.4 3.1-62.4 3.6-92.7-0.351-0.999-0.118-2-0.237-3.03-0.358-15-1.79-29.8-4.49-44.7-7.58-0.789-0.163-1.58-0.326-2.39-0.494-16.9-3.51-33.2-8.5-49.5-13.9-0.722-0.241-1.44-0.482-2.19-0.73-9.52-3.19-18.9-6.46-28-10.8-2.95-1.4-5.93-2.76-8.9-4.13-6.1-2.8-12.2-5.63-18.2-8.48-1.87-0.88-3.75-1.76-5.62-2.62-31.3-14.5-60.3-36.9-86.3-59.3-4.62-3.99-9.35-7.81-14.2-11.6-2.07-1.9-3.07-3.36-4.11-5.94h-2c-1.45-1.47-1.45-1.47-3.12-3.5-2.52-2.97-5.1-5.78-7.88-8.5-3.12-3.08-6.05-6.24-8.91-9.57-1.65-1.92-3.32-3.82-5-5.71-13-14.7-24.3-30.4-35.1-46.7-0.396-0.597-0.792-1.19-1.2-1.81-10.9-16.5-20.1-33.3-28.4-51.3-0.891-1.91-1.79-3.82-2.69-5.73-21.3-45.1-34.1-93.1-39.4-143-0.178-1.65-0.364-3.31-0.56-4.96-1.25-10.5-1.47-21.1-1.72-31.7-0.0202-0.794-0.0403-1.59-0.0611-2.41-1.65-67 12.2-130 39.1-192 0.425-0.974 0.85-1.95 1.29-2.95 5.57-12.6 12.3-24.5 19.2-36.5 1.41-2.46 2.78-4.93 4.14-7.42 2.75-4.96 5.87-9.62 9.06-14.3 1.41-2.08 2.81-4.17 4.21-6.25 7.31-10.8 15-21.3 23.1-31.6 0.79-1.01 1.58-2.01 2.39-3.05 9.5-11.8 20.1-22.7 30.9-33.4 1.81-1.81 3.6-3.62 5.4-5.44 6.8-6.83 13.7-13.2 21.3-19.1 1.18-0.942 2.36-1.88 3.54-2.83 2.85-2.23 5.7-4.46 8.55-6.68 1.29-1 2.57-2.01 3.85-3.02 15.6-12.3 32-23.3 49.1-33.5 1.02-0.617 2.04-1.23 3.09-1.87 31.2-18.4 66.2-32.6 101-42.1 3.48-0.95 6.94-1.94 10.4-2.94 14.8-4.11 29.8-6.65 45-9.02 0.977-0.156 1.95-0.312 2.96-0.473 11.4-1.81 22.5-2.92 34.1-2.6 3.67 0.011 6.54-1.12 10.3-1.14z" fill="#FCFDFE"/>
<path transform="translate(889,89)" d="m0 0v2c-0.837 0.0142-1.67 0.0284-2.54 0.043-9.55 0.391-17.6 2.61-26.5 5.96-1.1 0.371-2.21 0.743-3.34 1.12-23.6 8.25-41.3 26-52.7 47.9-0.483 0.926-0.967 1.85-1.46 2.8-11.1 22.7-10.7 48.1-3.35 71.9 7.52 21 20.4 35.9 38.8 48.3 2.35 1.58 4.64 3.2 6.92 4.88 2.93 2.03 5.84 3.63 9.06 5.12-3.19 0.987-5.73 0.997-9.05 0.667-1.01-0.0927-2.02-0.185-3.06-0.281-1.64-0.154-1.64-0.154-3.31-0.312-13.4-1.15-26.8-1.35-40.3-1.28-3.78 0.0187-7.56 0.0205-11.3 0.0203-2.42 0.0049-4.84 0.0107-7.26 0.0176-1.68 0.00167-1.68 0.00167-3.4 0.00337-1.04 0.00638-2.07 0.0128-3.14 0.0193-0.908 0.00381-1.82 0.00762-2.75 0.0116-2.29 0.126-4.22 0.555-6.43 1.13-2.29-0.00574-4.58-0.0536-6.88-0.125-10.5-0.142-20.8 1.49-31.1 3.12-1.01 0.156-2.02 0.312-3.05 0.473-18 2.81-35.5 6.42-52.9 11.5-0.638 0.186-1.28 0.372-1.93 0.563-19.9 5.84-39 13.1-58.1 21.4-0.955 0.411-1.91 0.823-2.89 1.25-32.8 14.2-63.3 32.8-91.2 55.2-2.27 1.8-4.57 3.56-6.89 5.3-13 9.85-24.8 20.7-36.3 32.2-2.09 2.1-4.18 4.18-6.28 6.27-7.29 7.28-14.2 14.6-20.5 22.8-1.02 1.26-2.05 2.51-3.08 3.76-10.3 12.7-19.6 26.1-28.6 39.8-1.46 2.22-2.95 4.41-4.46 6.59-4.29 6.23-7.8 12.6-11.1 19.4-1.68 3.36-3.52 6.55-5.45 9.77-37.7 64.5-53.1 143-51.4 216 0.0491 2.11 0.0884 4.22 0.126 6.33 1.54 82.3 28.2 166 73.9 234 0.793 1.22 0.793 1.22 1.6 2.46 3.93 6 8.14 11.8 12.4 17.5 0.654 0.896 0.654 0.896 1.32 1.81 12.5 17.1 26.3 33.3 41.6 48 2.06 2.16 2.06 2.16 2.06 4.16h2c1.7 1.63 3.36 3.3 5 5 7.41 7.01 15 13.6 23 20 1.11 0.91 2.21 1.82 3.32 2.73 22.3 18.3 47.5 36 73.7 48.3-0.33 0.99-0.66 1.98-1 3-2.46-0.308-4.92-0.621-7.38-0.938-0.699-0.087-1.4-0.174-2.12-0.264-5.28-0.686-5.28-0.686-7.51-1.8-2.93-0.0991-5.82-0.139-8.75-0.125l-2.42-0.0117c-4.39 0.00723-8.51 0.257-12.8 1.14-0.981 0.191-1.96 0.382-2.97 0.578-18.9 4.11-35.7 12.4-50 25.4l-1.91 1.63c-18.1 16.5-25.6 42.5-27 66-0.956 21.9 8.51 46.2 21.9 63.3 2.51 2.54 5.07 4.87 7.84 7.13 2.09 1.8 3.6 3.6 5.16 5.87l-1 2c-19.8-9.91-38.6-21.5-56.9-33.9-5.42-3.66-10.9-7.33-16.6-10.5-2.51-1.62-2.51-1.62-4.77-3.91-3.53-3.51-7.44-6.26-11.5-9.15-9.4-6.83-18.4-14-27.2-21.6-0.644-0.545-1.29-1.09-1.95-1.65-14.3-12.1-27.8-25-41-38.2-0.543-0.54-1.09-1.08-1.64-1.64-5.47-5.44-10.9-10.9-15.9-16.8-2.21-2.58-4.53-5.04-6.85-7.53-4.29-4.64-8.35-9.42-12.3-14.3-2.11-2.6-4.27-5.15-6.45-7.68-4.46-5.2-8.69-10.5-12.7-16.1-1.69-2.38-3.4-4.74-5.13-7.09-13.2-18-25-36.7-36.1-56-0.558-0.965-1.12-1.93-1.69-2.92-14.4-24.9-27.1-50.4-38-77-1.1-2.66-2.22-5.3-3.36-7.94-11.3-26.7-19.1-55-25.9-83.1-0.622-2.51-1.24-5.03-1.87-7.54-7.52-30.8-14.8-64.4-14.1-96.3 0.0478-4.68-0.114-9.28-0.487-13.9-0.632-9.08-0.696-18.1-0.716-27.2-0.00283-0.887-0.00565-1.77-0.00857-2.69-0.0149-4.7-0.0242-9.41-0.0285-14.1-0.00436-3.82-0.0182-7.63-0.041-11.4-0.475-81 18-161 50.3-235 0.327-0.758 0.653-1.52 0.99-2.3 9.71-22.4 20.7-44.6 33-65.7 0.47-0.806 0.94-1.61 1.42-2.44 6.5-11.1 13.3-22 20.6-32.6 0.388-0.568 0.776-1.14 1.18-1.72 14.7-21.5 30.2-42.7 47.7-62 1.86-2.04 3.68-4.11 5.48-6.2 3.47-3.99 7.05-7.87 10.6-11.8 2.48-2.69 4.9-5.42 7.24-8.24 2.41-2.87 5.1-5.16 7.98-7.55 1.84-1.64 3.37-3.38 4.95-5.27 4.34-5.09 9.3-9.47 14.3-13.9 1.47-1.32 2.92-2.66 4.37-3.99 6.2-5.71 12.6-11.1 19.2-16.4 1.27-1.03 2.53-2.07 3.79-3.1 19.8-16.2 40.2-30.9 61.7-44.7 2.33-1.49 4.65-2.99 6.96-4.5 6.97-4.54 14-8.82 21.3-12.9 2.68-1.53 5.29-3.12 7.9-4.77 6.23-3.78 12.9-6.71 19.5-9.79 3.5-1.63 6.95-3.33 10.4-5.09 25.8-13.2 53.7-26.4 81.7-34 4.33-1.2 8.63-2.45 12.9-3.79 12-3.75 24.1-7.08 36.3-10 4.72-1.15 9.41-2.41 14.1-3.7 13.1-3.58 26.6-5.26 40.1-7.18 3.08-0.443 6.16-0.902 9.24-1.37 1.79-0.267 3.58-0.534 5.36-0.801 1.16-0.179 1.16-0.179 2.34-0.361 13.1-1.91 26.3-2.18 39.5-2.51 0.799-0.0208 1.6-0.0417 2.42-0.0632 92.7-2.35 92.7-2.35 136 4.63z" fill="#000101"/>
<path transform="translate(767 596)" d="m0 0c20.9 19.1 27.6 49.1 29.7 76.1 0.0814 1.01 0.163 2.01 0.247 3.05 0.76 10.3 0.933 20.5 0.956 30.8 0.00424 1.3 0.00424 1.3 0.00857 2.64 0.0149 4.6 0.0242 9.19 0.0285 13.8 0.00548 4.69 0.0296 9.38 0.058 14.1 0.0188 3.66 0.0238 7.32 0.0254 11 0.00298 1.73 0.0109 3.46 0.0242 5.18 0.0825 11.5-0.977 22.3-3.35 33.5-0.177 0.885-0.355 1.77-0.537 2.68-3.79 18.4-9.95 36-22.5 50.3-0.508 0.602-1.02 1.2-1.54 1.82-13.5 14.7-33.5 19.4-52.7 20.3-23.9 0.828-44.6-3.59-63-19.5-23.8-22.5-29.7-58.3-30.8-89.6-0.197-9.56-0.196-19.1-0.188-28.7 9.37e-4 -1.31 0.00187-2.63 0.00284-3.98 0.11-86.5 0.11-86.5 26.2-116 0.895-1.07 0.895-1.07 1.81-2.16 27.8-30.6 84.5-30.1 116-4.96z" fill="#000101"/>
<path transform="translate(923,99)" d="m0 0c7.79 0.516 15.1 2.05 22.7 3.94 1.09 0.265 2.18 0.53 3.3 0.803 5.37 1.32 10.7 2.69 16 4.26 0.97 0.281 1.94 0.562 2.94 0.852 17.6 5.11 34.9 10.7 52.1 17.1 0.861 0.322 1.72 0.645 2.61 0.977 8.53 3.2 16.9 6.59 25.1 10.5 2.99 1.4 6.01 2.72 9.04 4.03 8.12 3.49 16.1 7.28 23.9 11.3 1.62 0.83 3.23 1.66 4.85 2.48 21.4 10.9 41.8 22.8 61.8 36.1 0.702 0.468 1.4 0.937 2.13 1.42 7.51 5.02 14.9 10.1 22.2 15.5 3.68 2.69 7.46 5.22 11.3 7.73 1.4 0.945 2.75 1.96 4.08 2.98v2c0.726 0.251 1.45 0.503 2.2 0.762 3.03 1.34 5.12 2.89 7.61 5.05 0.79 0.666 1.58 1.33 2.39 2.02 1.79 2.17 1.79 2.17 2.05 4.93-0.0864 0.739-0.173 1.48-0.262 2.24-1.32-0.66-2.64-1.32-4-2-0.33 0.66-0.66 1.32-1 2 0.66 0.33 1.32 0.66 2 1v3c0.66-0.99 1.32-1.98 2-3 0.247 0.619 0.495 1.24 0.75 1.88 1.46 2.48 2.63 3.08 5.25 4.12v2c1.65 0.825 3.32 1.61 5 2.38 3 1.63 3 1.63 5 4.62 1.89 0.858 1.89 0.858 4 1.44 3.83 1.32 3.83 1.32 5.44 3.56 0.186 0.66 0.371 1.32 0.562 2 0.33 0.99 0.66 1.98 1 3 1.09 0.289 2.19 0.578 3.31 0.875 4.24 1.29 5.17 2.62 7.69 6.12 0.99 0.33 1.98 0.66 3 1v2h2v3c1.32 0.33 2.64 0.66 4 1v3c0.639 0.206 1.28 0.413 1.94 0.625 2.06 1.38 2.06 1.38 2.69 4.44 0.124 0.969 0.247 1.94 0.375 2.94 0.66 0.33 1.32 0.66 2 1 1.52 3.29 2.85 6.56 4 10h-2c0.66 0.99 1.32 1.98 2 3h3c4 6.75 4 6.75 4 9-1.32-0.66-2.64-1.32-4-2v-2c-0.33 0.66-0.66 1.32-1 2 0.66 0.99 1.32 1.98 2 3 0.0791 2.33 0.088 4.67 0 7h-2c-0.33 1.32-0.66 2.64-1 4 0.99 0.33 1.98 0.66 3 1h-2v2h-4v3h-2v-3h-3c-0.33 1.65-0.66 3.3-1 5-3.63-0.66-7.26-1.32-11-2v-2c-1.65 0.33-3.3 0.66-5 1-0.66-1.32-1.32-2.64-2-4 1.32-0.33 2.64-0.66 4-1-1.18-0.155-1.18-0.155-2.38-0.312-2.62-0.688-2.62-0.688-4.62-3.69-3.57-0.736-3.57-0.736-7-1v-2h-2v-2c-2.64-0.66-5.28-1.32-8-2-0.33-1.65-0.66-3.3-1-5h-4c-0.33 0.66-0.66 1.32-1 2v-2h-2c-1.02-1.66-2.02-3.32-3-5-0.66-0.33-1.32-0.66-2-1v-2h-2c0.33 0.99 0.66 1.98 1 3v3c0.33 0.66 0.66 1.32 1 2-2.38-0.188-2.38-0.188-5-1-1.31-2.56-1.31-2.56-2-5h2c-0.33-1.32-0.66-2.64-1-4-0.835-0.155-0.835-0.155-1.69-0.312-2.75-0.819-4.9-2.15-7.31-3.69v3c-7.43 0.143-7.43 0.143-11-1v-2c-0.928-0.268-1.86-0.536-2.81-0.812-3.04-1.13-4.08-1.88-6.19-4.19-0.99-0.33-1.98-0.66-3-1v-3c-0.615-0.0374-1.23-0.0748-1.86-0.113-1.21-0.0986-1.21-0.0986-2.45-0.199-1.2-0.087-1.2-0.087-2.43-0.176-2.65-0.6-3.63-1.37-5.26-3.51v-2c-1.98-0.33-3.96-0.66-6-1v-2c-1.66-0.382-3.32-0.714-5-1-0.33 0.33-0.66 0.66-1 1-2.02 0.0724-4.04 0.0838-6.06 0.0625-1.1-0.00902-2.21-0.018-3.35-0.0273l-2.59-0.0352v-6h2c-0.33-1.65-0.66-3.3-1-5h-3v15h-9c-0.33-1.32-0.66-2.64-1-4l-2 1c-2 0.04-4 0.0435-6 0v-2c-1.07 0.0412-2.14 0.0825-3.25 0.125-3.57-0.119-4.74-0.569-7.75-2.12-2.11 0.319-2.11 0.319-4 1h-2c-1.34 0.315-2.67 0.646-4 1v-4h-9v-3h-11c-0.33-0.99-0.66-1.98-1-3h-2v-3c-0.856-0.138-1.71-0.276-2.59-0.418-15.5-2.65-15.5-2.65-22.4-7.58-1.2-0.165-2.39-0.33-3.62-0.5-3.95-0.585-4.77-1.63-7.38-4.5-2.14-0.787-2.14-0.787-4-1v-2h-6v-2c-0.603 0.0232-1.21 0.0464-1.83 0.0703-0.799 0.018-1.6 0.0361-2.42 0.0547-0.789 0.0232-1.58 0.0464-2.39 0.0703-2.63-0.218-4.17-0.732-6.36-2.2-0.33-0.99-0.66-1.98-1-3-5.08-0.847-9.85-1.09-15-1v-2c-2.31-0.33-4.62-0.66-7-1v-3h-3c-1.6-3.51-2.22-6.14-2-10h6c-0.267-1.98-0.267-1.98-1-4-0.99-0.33-1.98-0.66-3-1h4c-0.33-1.32-0.66-2.64-1-4h-3c-0.33-0.66-0.66-1.32-1-2-4.52-0.0765-8.59-0.102-13 1v-4h-8v-2c-0.99 0.495-0.99 0.495-2 1v3h-2c-0.33-1.65-0.66-3.3-1-5-2.64-0.66-5.28-1.32-8-2v-3c0.784 0.0206 1.57 0.0412 2.38 0.0625 2.61 0.124 2.61 0.124 4.62-1.06 0.619 0.66 1.24 1.32 1.88 2 1.88 2.23 1.88 2.23 4.12 2v-2h-2v-2c-1.09 0.0206-2.19 0.0412-3.31 0.0625-3.69-0.0625-3.69-0.0625-6.69-1.06-0.99 0.495-0.99 0.495-2 1-1.49-0.495-1.49-0.495-3-1-0.846 0.474-1.69 0.949-2.56 1.44-4.57 2.08-8.5 1.83-13.4 1.56v-2c-2.98 0.724-2.98 0.724-4.44 2.56-1.56 1.44-1.56 1.44-5.56 1.44v-2h-4c-0.33 0.66-0.66 1.32-1 2v-2c-1.39 0.309-1.39 0.309-2.81 0.625-3.19 0.375-3.19 0.375-6.19-1.62 3.15-1.05 5.39-1.1 8.69-1.06 0.994 0.00902 1.99 0.018 3.01 0.0273 0.759 0.0116 1.52 0.0232 2.3 0.0352v-3c-0.557 0.0954-1.11 0.191-1.69 0.289-5.7 0.828-9.81 0.411-15.3-1.29v-2h-9v-2c-3.64 0.446-6.9 0.965-10.4 2.19-4.55 1.02-8.28 0.492-12.6-1.19-0.33-0.66-0.66-1.32-1-2-2.93-1.51-5.89-2.9-8.9-4.26-2.73-1.29-4.78-2.28-6.54-4.78-0.559-1.96-0.559-1.96-0.559-4.96-2.29-2.68-3.62-3.87-7-5-0.33-2.31-0.66-4.62-1-7-1.28 0.0206-2.56 0.0412-3.88 0.0625-3.88 0.0625-3.88 0.0625-6.12-1.06-0.0544-2.38-0.0939-4.75-0.125-7.12-0.0168-0.665-0.0335-1.33-0.0508-2.02-0.0426-4.35 0.447-7.86 2.18-11.9 1.94-1.06 1.94-1.06 4-2 0.681-1.21 0.681-1.21 1.38-2.44 3.01-4.75 7.65-5.68 12.9-6.88 2.58-0.551 2.58-0.551 4.75-0.688 0.66 0.66 1.32 1.32 2 2-1.11 0.268-2.23 0.536-3.38 0.812-3.84 0.846-3.84 0.846-5.62 4.19 0.619-0.309 1.24-0.619 1.88-0.938 8.26-2.81 14.2-2.09 22.3 0.945 3.31 1.18 6.3 1.68 9.79 1.99 0.33-1.32 0.66-2.64 1-4 8 0 8 0 10.1 0.562 0.639 0.144 1.28 0.289 1.94 0.438 0.33-0.33 0.66-0.66 1-1-1.49-0.99-1.49-0.99-3-2 0.99-0.99 1.98-1.98 3-3-0.99-0.66-1.98-1.32-3-2 1.81-2 1.81-2 4-4h3v-2h2c0.268-0.804 0.536-1.61 0.812-2.44 0.588-1.27 0.588-1.27 1.19-2.56 0.99-0.33 1.98-0.66 3-1v-11c0.908-0.124 1.82-0.248 2.75-0.375 5.43-0.773 10.8-1.71 16.2-2.62v-1z" fill="#00C072"/>
<path transform="translate(537 582)" d="m0 0c1.08-0.0058 1.08-0.0058 2.19-0.0117 5.31 0.00996 5.31 0.00996 6.43 1.14 0.0878 2.15 0.107 4.29 0.0977 6.44-0.00322 1.31-0.00645 2.61-0.00977 3.96-0.00836 1.39-0.0168 2.78-0.0254 4.17-0.00501 1.39-0.00958 2.79-0.0137 4.18-0.0118 3.42-0.0283 6.84-0.0488 10.3-0.896 0.0516-0.896 0.0516-1.81 0.104-13.9 0.858-26.9 2.58-40.2 6.9-1.66 0.538-1.66 0.538-3.35 1.09-18.4 6.86-33.3 21.8-41.8 39.3-5.56 12.3-10.1 24.9-9.82 38.6 1.51-1.09 1.51-1.09 3.04-2.2 21.6-15.4 43.8-22.4 70.5-18.2 18.4 3.68 33.4 13.6 44.3 28.7 17.8 27.2 21.7 58.9 15.3 90.5-4.62 20.4-15.3 39.6-33.2 51.2-22.1 13.5-47.7 16.1-72.8 10.5-19.7-4.99-37.4-20-48-37-13.4-22.5-17.6-46.9-17.4-72.8 0.0236-3.01 0.0205-6.03 0.0139-9.04 0.0237-17.3 1.02-34.4 4.57-51.4 0.217-1.05 0.434-2.09 0.657-3.17 7.05-32.8 22.7-64.3 51.3-83 0.863-0.557 0.863-0.557 1.74-1.12 0.623-0.413 1.25-0.825 1.89-1.25 15.5-10 33.1-13.8 51.1-16.8 1.22-0.205 2.45-0.41 3.71-0.621 3.91-0.45 7.74-0.526 11.7-0.504z" fill="#000101"/>
<path transform="translate(712 608)" d="m0 0c0.956-0.0206 1.91-0.0412 2.9-0.0625 6.38-0.0348 11.5 0.907 17.4 3.31 0.703 0.269 1.41 0.538 2.13 0.814 10.6 4.22 16.6 14.9 21.1 24.8 3 7.14 4.5 14.8 5.73 22.4 0.168 1.03 0.336 2.07 0.509 3.13 0.584 4.6 0.847 9.16 1.04 13.8 0.0418 0.99 0.0837 1.98 0.127 3 0.484 12.7 0.51 25.4 0.508 38-8.11e-5 2.8 0.00686 5.61 0.0205 8.41 0.0702 14.7-0.0649 29.3-1.08 44-0.0762 1.12-0.152 2.24-0.231 3.39-1.4 18-5.65 37.7-19.5 50.4-12.1 9.26-25.8 9.97-40.4 8.84-11.8-2.1-22.1-9.19-29-19-21.3-34.2-15.3-86.2-13.2-125 0.192-3.75 0.215-7.48 0.176-11.2-0.0191-5.16 0.381-10.1 1.23-15.2 0.132-0.805 0.265-1.61 0.401-2.44 2.58-14.7 7.05-32.3 19.4-41.9 10-6.99 18.6-9.64 30.7-9.7z" fill="#FCFDFE"/>
<path transform="translate(1161,743)" d="m0 0c11 8.62 19.6 22.5 21.5 36.5 0.303 3.85 0.456 7.68 0.543 11.5 0.0205 0.673 0.0409 1.35 0.062 2.04 0.255 8.85-0.198 17.3-2.06 26-0.257 1.48-0.257 1.48-0.52 2.98-2.32 11.5-9.27 21.7-18.5 29-14.6 9.39-30.9 12.4-48.1 9.67-3.78-0.852-7.32-2.16-10.9-3.67-0.718-0.277-1.44-0.554-2.18-0.84-14.7-6.39-23.1-18.8-28.8-33.2-6.42-18.3-3.87-43 4.12-60.1 7.62-14.9 19.3-22.7 34.8-27.9 1.01-0.312 2.02-0.624 3.07-0.945 0.633-0.202 1.27-0.405 1.92-0.613 15.6-2.89 31.9 1.22 45.1 9.61z" fill="#000101"/>
<path transform="translate(1023,586)" d="m0 0c0.65 0.407 1.3 0.815 1.97 1.23 12.3 8.44 19.3 21.8 22.4 36.1 0.976 5.97 1.09 11.9 1.05 17.9-0.0085 2.1 0.0204 4.2 0.052 6.3 0.0861 16.7-3.53 31.4-15.2 43.8-12 11.4-25.9 15.4-42.2 15.1-17.5-0.654-31.3-6.92-43.5-19.6-8.2-10.5-11.9-24.6-12.6-37.7-0.0412-0.766-0.0825-1.53-0.125-2.32-0.5-18.9 4.13-38.3 17.2-52.4 18.7-17.4 48.8-22.6 70.9-8.25z" fill="#000101"/>
<path transform="translate(527,714)" d="m0 0c14.3 11.8 20.5 27.7 22.7 45.6 1.86 20.1-0.992 40.5-13.6 56.8-8.74 10.4-19.2 14.5-32.6 15.9-7.25 0.19-13.7-0.899-20.5-3.35-0.673-0.232-1.35-0.464-2.04-0.703-10.1-4.22-18.8-14-24-23.3-0.425-0.697-0.851-1.39-1.29-2.11-3.11-5.52-4.83-11.3-6.46-17.4-0.211-0.783-0.422-1.57-0.639-2.37-3.33-13.1-6.14-32.1-0.236-44.7 1.68-2.74 1.68-2.74 3.62-5.44 0.704-1.01 1.41-2.03 2.13-3.07 9.73-12.8 24.1-21.4 40-23.6 11.5-1.28 23.4 0.728 32.8 7.68z" fill="#FCFDFE"/>
<path transform="translate(1128,316)" d="m0 0h6c-0.33 1.32-0.66 2.64-1 4 1.32 0.66 2.64 1.32 4 2v-5h6c0.66 2.31 1.32 4.62 2 7h6v3h2v2h2v2c1.21 0.0561 1.21 0.0561 2.45 0.113 1.6 0.0986 1.6 0.0986 3.24 0.199 1.58 0.087 1.58 0.087 3.2 0.176 3.39 0.558 5.41 1.4 8.11 3.51v3h2c0.578 0.639 1.15 1.28 1.75 1.94 2.73 2.51 4.62 2.73 8.25 3.06 0.227 0.928 0.454 1.86 0.688 2.81 1.54 3.75 2.87 4.29 6.31 6.19v3h2c0.33-0.99 0.66-1.98 1-3l4 1h-2v2h2c0.33-0.99 0.66-1.98 1-3h4v-2h5v2c1.48 0.495 1.48 0.495 3 1-2.64 0.33-5.28 0.66-8 1 1.65 0.33 3.3 0.66 5 1v2h3v2h2c0.495 1.98 0.495 1.98 1 4h2c0.672 1.29 1.34 2.58 2 3.88 0.371 0.719 0.743 1.44 1.12 2.18 0.875 1.95 0.875 1.95 0.875 3.95h3c1.35 2.71 1.07 5.01 1 8h2v2h2c2.15 3.23 2.2 4.28 2 8h2c0.99 3.63 1.98 7.26 3 11h2v2h3c0.99 4.29 1.98 8.58 3 13h3v6h2c0.99 6.27 1.98 12.5 3 19h-2v10h2v2c1.65 0.33 3.3 0.66 5 1-0.0174 1.68-0.0174 1.68-0.0352 3.39-0.00938 1.47-0.0185 2.95-0.0273 4.42-0.00838 0.738-0.0168 1.48-0.0254 2.24-0.0147 3.25 0.0526 5.85 1.09 8.95 0.0674 1.56 0.0851 3.13 0.0625 4.69-0.00902 0.808-0.018 1.62-0.0273 2.45-0.0174 0.922-0.0174 0.922-0.0352 1.86-3 1-3 1-7 1-0.103 0.639-0.206 1.28-0.312 1.94-0.227 0.681-0.454 1.36-0.688 2.06-3 1-3 1-6 0v-4h-4c-0.506-1.27-1-2.54-1.5-3.81-0.278-0.708-0.557-1.42-0.844-2.14-0.656-2.04-0.656-2.04-0.656-5.04h-2v2h-3v-2h-2c-0.33 0.66-0.66 1.32-1 2-2.38-0.875-2.38-0.875-5-3-1.05-3.28-1.57-6.58-2-10-1.98-0.33-3.96-0.66-6-1v-2c-3.01-0.934-3.87-1.04-7 0-0.33-1.32-0.66-2.64-1-4-0.987-0.0606-1.97-0.121-2.99-0.184-1.28-0.0838-2.56-0.168-3.88-0.254-1.91-0.122-1.91-0.122-3.87-0.246-3.26-0.316-3.26-0.316-5.26-1.32v-2h-2v-2c-1.33-0.155-1.33-0.155-2.69-0.312-3.47-0.72-5.55-1.48-8.31-3.69-0.812-2.69-0.812-2.69-1-5h3c-0.99-0.495-0.99-0.495-2-1 0-2 0-2 2-4-0.99-0.495-0.99-0.495-2-1v-2h-3v-2h-2c-1.01-1.66-2.01-3.33-3-5-0.701-0.701-1.4-1.4-2.12-2.12-1.88-1.88-1.88-1.88-2.88-4.88-0.99-0.33-1.98-0.66-3-1v-6c-0.959-0.371-0.959-0.371-1.94-0.75-2.06-1.25-2.06-1.25-2.81-3.38-0.0825-0.619-0.165-1.24-0.25-1.88h-2v-2c-1.65-0.33-3.3-0.66-5-1v-2h-2c-0.0825-0.949-0.165-1.9-0.25-2.88-0.247-1.03-0.495-2.06-0.75-3.12-0.623-0.26-1.25-0.521-1.89-0.789-3.2-1.83-3.53-4.29-4.68-7.71-1.55-5.11-1.55-5.11-5.44-8.5-0.688-3.12-0.688-3.12-1-6h-2v-2c-0.928-0.433-0.928-0.433-1.88-0.875-2.12-1.12-2.12-1.12-4.12-3.12-0.449-2.9-0.449-2.9-0.688-6.38-0.0864-1.14-0.173-2.28-0.262-3.46-0.074-4.61 1.19-7.94 2.95-12.2h3c-0.0412-1.22-0.0825-2.43-0.125-3.69-0.0125-3.53 0.525-6.11 2.12-9.31-1.65-0.33-3.3-0.66-5-1v-13z" fill="#00C072"/>
<path transform="translate(1116,610)" d="m0 0c6.75 2.91 12.8 6.79 18 12-0.32 4.03-1.84 6.68-4.06 10-2.67 4.07-5.28 8.16-7.81 12.3-2.68 4.37-5.4 8.7-8.19 13-9.16 14.2-18 28.5-26.8 43-4.26 6.99-8.67 13.9-13.1 20.8-3.67 5.75-7.24 11.5-10.7 17.4-3.58 6.03-7.35 11.9-11.1 17.9-2.48 3.91-4.94 7.83-7.29 11.8-2.57 4.35-5.31 8.58-8.06 12.8-3.99 6.14-7.96 12.3-11.9 18.5-0.497 0.786-0.995 1.57-1.51 2.38-3.02 4.79-5.97 9.61-8.89 14.5-4.16 6.9-8.34 13.6-13.6 19.7-6.69-3.16-12.8-6.95-19-11 1.28-3.36 2.72-6.43 4.55-9.53 0.508-0.864 1.02-1.73 1.54-2.62 0.823-1.38 0.823-1.38 1.66-2.79 0.857-1.45 0.857-1.45 1.73-2.92 5.28-8.85 10.8-17.5 16.4-26.2 3.15-4.9 6.21-9.85 9.25-14.8 5.78-9.42 11.7-18.8 17.6-28.1 9.59-15.2 19.1-30.4 28.5-45.7 6.19-10.2 12.5-20.2 19-30.2 4.77-7.32 9.37-14.7 13.9-22.2 0.684-1.11 1.37-2.23 2.07-3.38 2.51-4.09 5.02-8.18 7.52-12.3 1.4-2.29 2.81-4.57 4.22-6.85 0.398-0.654 0.797-1.31 1.21-1.98 2.69-4.34 2.69-4.34 4.92-5.45z" fill="#000101"/>
<path transform="translate(1143 760)" d="m0 0c8.74 7.45 12.4 16.7 13.3 28 0.0987 3.3 0.0955 6.58 0.0469 9.88 0.00322 1.1 0.00645 2.2 0.00977 3.34-0.0638 9.77-0.826 18.3-6.32 26.5-0.578 0.887-1.15 1.77-1.75 2.69-5.76 5.92-13.2 7.58-21.2 7.69-8.4 0.0285-15.5-1.13-21.9-7.14-8.01-9.77-9.38-21-9.52-33.1-0.0374-1.26-0.0748-2.52-0.113-3.82-0.105-11.3 2.3-22.2 10.4-30.7 10.4-8.16 25.5-10.8 37-3.41z" fill="#FCFDFE"/>
<path transform="translate(1e3 603)" d="m0 0c8.02 3.47 12.4 10.3 15.9 18.1 2.4 6.66 2.38 13 2.42 20 0.0114 1.39 0.0318 2.79 0.0615 4.18 0.228 10.7-0.38 21.1-7.17 29.9-5.23 5.42-11 7.79-18.5 8.17-9.73 0.0532-18.1-0.589-25.7-7.17-8.1-9.94-9.25-21.2-9.38-33.6-0.014-0.957-0.028-1.91-0.0425-2.9 0.071-10.6 2.32-20.4 9.42-28.5 9.6-8.76 20.4-11.4 33-8.23z" fill="#FCFDFE"/>
<path transform="translate(922 94.2)" d="m0 0c1.5 0.317 3 0.634 4.5 0.951 10.8 2.31 21.5 4.99 32.2 8.09 2.87 0.823 5.74 1.61 8.62 2.38 52.8 14.3 105 36.5 152 64.4 0.882 0.513 1.76 1.03 2.67 1.55 16.3 9.58 31.9 20.3 47.3 31.1 1.28 0.884 2.55 1.77 3.83 2.65 8.65 5.95 16.6 12.4 24.5 19.3 2.35 2.03 4.76 4 7.17 5.96 8.93 7.27 17.7 14.7 26.2 22.4 1.98 1.79 3.99 3.52 6.03 5.25 4.47 3.81 8.41 7.99 12.3 12.4 3.39 3.79 6.88 7.42 10.5 11 3.71 3.67 7.25 7.39 10.6 11.4 1.99 2.32 4.05 4.57 6.11 6.83 3.84 4.26 7.51 8.62 11.1 13.1 1.86 2.3 3.73 4.59 5.62 6.87 5.79 7.03 11.4 14.1 16.6 21.6 1.82 2.64 3.65 4.92 5.93 7.19 2.39 2.4 3.76 4.48 5.41 7.42 0.837 1.35 1.68 2.7 2.53 4.05 0.475 0.753 0.95 1.51 1.44 2.28 0.505 0.799 1.01 1.6 1.53 2.42 0.532 0.843 1.06 1.69 1.61 2.56 2.51 3.98 5.04 7.95 7.63 11.9 37.4 56.7 65.8 121 81.6 187 0.457 1.89 0.924 3.78 1.4 5.67 3.85 15.4 7.06 30.8 9.66 46.5 0.197 1.18 0.197 1.18 0.399 2.39 2.33 14 2.33 14 2.16 19-2.18-1.74-2.94-2.61-3.37-5.42-0.0219-0.914-0.0438-1.83-0.0664-2.77-0.4-6.28-2.06-11.3-6.56-15.8 0.33-0.66 0.66-1.32 1-2 0.04-2 0.0435-4 0-6-0.99-0.33-1.98-0.66-3-1-0.695-1.93-0.695-1.93-1.12-4.31l-0.445-2.36c-0.142-0.767-0.284-1.53-0.43-2.32-0.18-0.661-0.361-1.32-0.547-2-0.513-2.26-0.586-4.31-0.578-6.62-0.00258-0.776-0.00516-1.55-0.00781-2.35 0.133-2.02 0.133-2.02 1.13-4.02h-3c-0.141-0.651-0.282-1.3-0.427-1.97-0.643-2.95-1.3-5.89-1.95-8.84-0.222-1.02-0.443-2.05-0.672-3.1-0.219-0.983-0.438-1.97-0.664-2.98-0.298-1.36-0.298-1.36-0.603-2.75-0.627-2.6-0.627-2.6-2.69-5.36-0.523-1.68-0.984-3.37-1.4-5.08-0.376-1.49-0.376-1.49-0.76-3.02-0.513-2.09-1.03-4.17-1.54-6.26-1.38-5.48-2.98-10.5-5.3-15.6-2.47-6.89-4.56-13.9-6.75-20.9-1.48-4.71-3.01-9.4-4.6-14.1-0.638-1.99-1.15-3.99-1.65-6.03-0.33-0.99-0.66-1.98-1-3-0.99-0.33-1.98-0.66-3-1-0.809-1.71-0.809-1.71-1.44-3.94-1.56-5.15-3.51-10.1-5.56-15.1-0.281-0.687-0.562-1.37-0.852-2.08-1.19-2.86-2.42-5.32-4.15-7.92-0.449-1.36-0.863-2.74-1.25-4.12-1.42-4.46-3.58-7.81-6.27-11.6-1.91-2.93-3.18-5.97-4.43-9.23-0.984-2.18-0.984-2.18-3.02-3.91-2.52-2.64-3.31-5.01-4.47-8.45-1.65-4.53-3.28-8.08-6.25-11.8-1.71-2.43-2.9-5-4.18-7.67-1.9-3.93-3.9-7.43-6.5-10.9-3.6-4.91-6.2-10.1-8.78-15.6-3.18-6.89-3.18-6.89-8.84-11.6-0.57-1.27-1.08-2.57-1.56-3.88-1.68-3.94-3.71-6.87-6.5-10.1-4.07-4.76-7.55-9.74-10.9-15-0.481-0.742-0.962-1.48-1.46-2.25-1.87-2.94-3.44-5.43-4.54-8.75h-2c-1.23-1.43-2.45-2.87-3.63-4.34-1.52-1.9-1.52-1.9-4.12-4.34-2.25-2.31-2.25-2.31-3.25-5.31h-2c-1.45-1.62-1.45-1.62-3.12-3.88-3.32-4.41-6.77-8.7-10.3-13-1.6-2.16-1.6-2.16-2.6-5.16h-2c-4.77-4.3-4.77-4.3-6-8h-2v-2h-2v-2c-0.541-0.213-1.08-0.425-1.64-0.645-3.21-1.85-5.56-4.4-8.11-7.04-5.19-5.29-10.4-10.6-16.5-14.9-0.882-0.713-0.882-0.713-1.78-1.44v-2c-0.598-0.289-1.2-0.578-1.81-0.875-2.19-1.13-2.19-1.13-5.19-3.12v-2c-0.552-0.242-1.1-0.485-1.67-0.734-2.84-1.54-5.11-3.44-7.58-5.52-7.45-6.48-7.45-6.48-15.8-11.8v-2c-0.564-0.264-1.13-0.527-1.71-0.799-2.48-1.3-4.68-2.8-6.97-4.42-1.32-0.936-1.32-0.936-2.67-1.89-0.876-0.624-1.75-1.25-2.65-1.89-20.7-14.7-41.7-28.7-64-41-0.983-0.545-1.97-1.09-2.98-1.65-20.5-11.4-41.6-22.9-63.7-31-2.89-1.13-5.66-2.37-8.47-3.67-5.92-2.71-11.9-5.07-18.1-7.33-1.14-0.423-2.29-0.846-3.46-1.28-9.4-3.42-18.9-6.54-28.4-9.53-0.676-0.213-1.35-0.427-2.05-0.647-6.89-2.17-13.7-4.15-20.8-5.44-2.78-0.552-5.38-1.49-8.06-2.41-3.69-1.02-7.41-1.95-11.1-2.88-1.05-0.263-2.1-0.526-3.19-0.798-8.54-2.11-17.1-3.91-25.8-5.57-3.92-0.762-3.92-0.762-5.8-1.3-2.7-0.584-5.22-0.57-7.98-0.556-1.12 0.00322-2.23 0.00645-3.38 0.00977-1.74 0.0126-1.74 0.0126-3.51 0.0254-1.76 0.00677-1.76 0.00677-3.56 0.0137-2.9 0.0118-5.79 0.0282-8.69 0.0488-0.33 0.99-0.66 1.98-1 3h-4v2c-5.57 2.21-10.1 3.16-16 2.91-2.7 0.13-4.11 1.17-5.95 3.09-1.98-1.32-3.96-2.64-6-4 2.11-2.11 3.35-2.65 6.11-3.66 1.23-0.451 1.23-0.451 2.48-0.91 0.858-0.308 1.72-0.616 2.6-0.934 1.26-0.462 1.26-0.462 2.54-0.934 20.5-7.44 40-5.9 60.9-1.38z" fill="#00B96C"/>
<path transform="translate(1142,442)" d="m0 0c8.55 6.65 8.55 6.65 10 11 0.99 0.66 1.98 1.32 3 2v3c0.557 0.0825 1.11 0.165 1.69 0.25 5.5 1.78 8.48 5.92 11.3 10.8v2c0.99 0.33 1.98 0.66 3 1 1.67 2.95 2.93 5.78 4 9h2c0.495 1.98 0.495 1.98 1 4h2c0.242 0.603 0.485 1.21 0.734 1.83 1.99 4.94 1.99 4.94 5.2 9.11 2.25 2.25 3.2 4.2 4.56 7.06 1.79 3.75 3.52 6.11 6.5 9 1.09 1.96 2.04 3.96 3 5.99 1.06 2.24 1.06 2.24 3.07 5.01 2.31 3.57 3.55 6.99 4.94 11v-2h2c0.33-0.66 0.66-1.32 1-2v2h2c2.77 4.81 3.64 8.55 4 14-0.495 1.49-0.495 1.49-1 3 0.209 3.66 1.55 6 3.5 9 1.99 3.05 3.12 5.32 3.5 9 0.273 2.34 0.598 4.68 1 7l2 1c0.547 1.73 0.547 1.73 0.965 3.96 0.241 1.2 0.241 1.2 0.486 2.42 0.323 1.69 0.644 3.39 0.961 5.09 0.162 0.801 0.324 1.6 0.49 2.43 0.139 0.737 0.278 1.47 0.422 2.23 0.606 2.25 0.606 2.25 3.68 3.86 0.477 2.97 0.477 2.97 0.625 6.5 0.0575 4.41 0.0575 4.41 1.38 8.5 0.0983 2.84 0.139 5.66 0.125 8.5 0.00387 0.785 0.00773 1.57 0.0117 2.38-0.0101 5.87-0.0101 5.87-1.14 8.12 0.619 0.0412 1.24 0.0825 1.88 0.125 2.12 0.875 2.12 0.875 3.38 3.38 1.2 5.61 1.32 11-0.25 16.5l2 1c-0.0116 0.724-0.0232 1.45-0.0352 2.2-0.00902 0.967-0.018 1.93-0.0273 2.93-0.0116 0.951-0.0232 1.9-0.0352 2.88 0.0298 3 0.0298 3 0.605 5.96 0.525 3.24 0.518 6.2 0.43 9.47-0.0453 4.93 0.247 9.51 0.996 14.4 1.12 8.01 1.66 16 2.07 24.1 0.12 2.35 0.25 4.71 0.381 7.06 1.08 19.9 1.08 19.9 0.613 24-0.66 0.66-1.32 1.32-2 2-0.961-3.29-1.21-6.39-1.36-9.82-0.0609-1.21-0.122-2.43-0.185-3.68-0.0328-0.658-0.0655-1.32-0.0992-2-3.61-70.1-14.9-140-48.2-202-1.4-2.67-2.75-5.36-4.11-8.05-6.69-13.2-13.8-25.9-22-38.2-0.521-0.786-1.04-1.57-1.58-2.38-6.46-9.72-13.2-19.2-20.5-28.3-0.779-0.989-0.779-0.989-1.57-2-0.462-0.576-0.924-1.15-1.4-1.74-0.987-1.6-0.987-1.6-0.987-4.6z" fill="#00B96C"/>
<path transform="translate(1063 1088)" d="m0 0c0.866 0.34 0.866 0.34 1.75 0.688-2.76 2.26-5.56 4.41-8.5 6.44-2.18 1.53-3.88 2.95-5.75 4.88-6.64 6.49-14.5 11.3-22.6 15.8-3.72 2.07-7.28 4.27-10.8 6.62-5.51 3.56-11.3 5.93-17.4 8.31-5.91 2.5-11.7 5.26-17.5 8-17 8-17 8-19.5 8v2c-6.62 3-6.62 3-10 3-0.33 0.66-0.66 1.32-1 2-1.65-0.33-3.3-0.66-5-1-0.224 0.782-0.449 1.56-0.68 2.37-1.32 2.63-1.32 2.63-3.58 3.85-0.946 0.277-1.89 0.554-2.87 0.84-1.07 0.32-2.13 0.639-3.23 0.969-4.66 1.24-9.33 2.42-14 3.49-3.07 0.719-5.69 1.53-8.49 3.01-4.16 1.96-8.15 2.41-12.7 2.97-7.96 1.09-15.7 2.51-23.4 4.5-0.659 0.161-1.32 0.322-2 0.488-1.55 0.396-3.09 0.824-4.63 1.27-0.968 0.267-1.94 0.534-2.93 0.809-0.95 0.269-1.9 0.539-2.88 0.816-3.97 0.693-7.66 0.664-11.7 0.609-3.6 0.015-7.12 0.359-10.7 0.724-12.9 1.3-25.6 1.49-38.5 1.48-0.901 7.25e-4 -1.8 0.00145-2.73 0.0022-2.58-2.35e-4 -5.15-0.00893-7.73-0.0217-0.78-0.00119-1.56-0.00239-2.36-0.00362-3.19-0.0279-5.75-0.147-8.8-1.16-1.65-0.104-3.31-0.155-4.97-0.176-28-0.57-55.7-3.71-83-9.82-0.979-0.219-1.96-0.438-2.97-0.663-39.1-8.93-75.6-23.8-112-40.3 1-2 1-2 4-3 2.79 1.16 5.43 2.39 8.12 3.75 1.73 0.841 3.46 1.68 5.19 2.52 0.923 0.447 1.85 0.893 2.8 1.35 17.5 8.39 35.4 15.4 53.9 21.4 0.761 0.249 1.52 0.499 2.31 0.756 28.1 9.13 58.3 15.1 87.7 18.2 0.699 0.0888 1.4 0.178 2.12 0.269 41.7 5.23 86.7 3.07 128-5.27 1.29-0.258 2.59-0.517 3.92-0.783 23.8-4.76 23.8-4.76 47.1-11.2 0.904-0.285 1.81-0.569 2.74-0.862 28.6-9.08 55.9-20.8 82.3-35.1 0.693-0.375 1.39-0.75 2.1-1.14 16.4-8.9 32.6-19 47.1-30.7 1.75-1.2 1.75-1.2 4-0.887z" fill="#00B96C"/>
<path transform="translate(1431,811)" d="m0 0h1c-0.492 10.8-2.06 21.2-4.06 31.8-0.153 0.818-0.305 1.64-0.463 2.48-6.01 32.1-13.7 63.9-24.5 94.8-0.66-0.66-1.32-1.32-2-2 0.381-5.45 2.46-10.2 5-15 1.59-3.8 2.15-7.18 2.44-11.2 0.424-5.57 1.79-10.5 3.56-15.8 1.82-5.68 2.55-11.1 3-17h2c-0.0619-1.09-0.124-2.19-0.188-3.31 0.213-4.2 0.431-4.04 3.19-6.69 1.68-5.31 2.34-10.4 2.75-16 0.246-2 0.246-2 1.25-3-0.0206-1.28-0.0412-2.56-0.0625-3.88-0.0737-6.57 0.363-13.6 4.06-19.1 0.425-2.15 0.771-4.32 1.06-6.5 0.454-3.33 0.873-6.31 1.94-9.5z" fill="#00B96C"/>
<path transform="translate(1243,757)" d="m0 0c1.48 4.03 0.749 7.98 0.258 12.1-0.0878 0.792-0.176 1.58-0.266 2.4-0.282 2.53-0.574 5.06-0.867 7.59-0.189 1.68-0.378 3.36-0.566 5.04-0.273 2.44-0.547 4.87-0.824 7.31-0.554 4.86-1.07 9.73-1.51 14.6-0.431 3.71-1.34 7.3-2.22 10.9-0.51 2.12-1.02 4.23-1.52 6.35-0.353 1.48-0.71 2.97-1.07 4.45-0.795 3.32-1.46 6.56-1.94 9.95-0.399 2.77-0.953 5.08-1.91 7.69-1.04 2.94-1.89 5.83-2.56 8.88-0.911 3.36-1.69 5.16-4 7.69-0.355-6.09 0.954-11.1 2.69-16.9 8.03-28.2 11.5-57 14.3-86.1h2v-2z" fill="#00BB6D"/>
<path transform="translate(491,1293)" d="m0 0c0.527 0.366 1.05 0.732 1.6 1.11 21 13.9 44.8 24.7 68.4 33.2 3.67 1.32 7.32 2.71 11 4.09 1.35 0.508 2.71 1.02 4.06 1.52 0.969 0.364 1.94 0.727 2.94 1.1-4.6 1.46-8.05-0.0383-12.4-1.62-1.3-0.463-1.3-0.463-2.62-0.935-17.7-6.5-34.8-14.9-51.8-22.9-1.01-0.48-2.03-0.96-3.07-1.45-15.2-7.31-15.2-7.31-17.6-11.9-0.165-0.722-0.33-1.44-0.5-2.19z" fill="#00B96C"/>
<path transform="translate(458,1221)" d="m0 0h2v3h2c1.11 2.23 1.23 3.78 1.44 6.25 0.382 3.82 1.18 7.15 2.56 10.8v-4h2v8h-2c-0.33 0.99-0.66 1.98-1 3-1.89-0.664-1.89-0.664-4-2-3.08-7.31-3.95-16.1-4-24 0.33-0.33 0.66-0.66 1-1z" fill="#00B96C"/>
<path transform="translate(535,1126)" d="m0 0c0.33 0.66 0.66 1.32 1 2h2c0.33 0.66 0.66 1.32 1 2h3c-0.474 0.412-0.949 0.825-1.44 1.25-1.73 1.93-2.13 3.23-2.56 5.75-4.44 0.435-6.33 0.54-9.88-2.31-2.12-2.69-2.12-2.69-3.12-5.69 4.95-1.48 4.95-1.48 10-3z" fill="#00B96C"/>
<path transform="translate(1142,1014)" d="m0 0c0 5.61-4.06 9.42-7.5 13.5-1.5 1.45-1.5 1.45-4.5 2.45-2.32 2.2-4.51 4.48-6.69 6.81-1.31 1.19-1.31 1.19-3.31 1.19-0.66 1.32-1.32 2.64-2 4-0.66-0.33-1.32-0.66-2-1 1.57-3.86 4.05-6.11 7-9 0.992-0.99 1.98-1.98 2.97-2.97 6.19-6.19 6.19-6.19 7.66-7.66 1.19-1.19 2.37-2.4 3.55-3.61 1.82-1.75 1.82-1.75 4.82-3.75z" fill="#00BA6C"/>
<path transform="translate(1221,870)" d="m0 0c1.1 3.29 0.8 4.71 0 8h-2c-0.112 0.633-0.224 1.27-0.34 1.92-0.896 4.18-2.06 8.28-3.22 12.4-0.234 0.836-0.468 1.67-0.709 2.53-0.575 2.05-1.15 4.1-1.73 6.15h-2c-0.289 0.598-0.578 1.2-0.875 1.81-1.12 2.19-1.12 2.19-3.12 5.19 0.566-6.26 2.56-11.6 4.88-17.4 0.708-1.8 1.41-3.6 2.12-5.4 0.341-0.869 0.683-1.74 1.03-2.63 1.22-3.26 2.27-6.57 3.27-9.9 0.707-1.69 0.707-1.69 2.71-2.69z" fill="#00BA6D"/>
<path transform="translate(1089,388)" d="m0 0c4.51 1.45 7.34 3.81 10.8 7 0.976 0.887 1.95 1.77 2.96 2.69 2.23 2.31 2.23 2.31 2.23 4.31 0.557 0.227 1.11 0.454 1.69 0.688 6.16 3.5 10.7 10.1 15.3 15.3-0.33 0.66-0.66 1.32-1 2-1.71-1.28-3.37-2.62-5-4v-2h-2c-1.45-1.47-1.45-1.47-3.12-3.5-5.58-6.55-11.6-12.4-18.2-18-1.66-1.54-1.66-1.54-3.66-4.54z" fill="#00B96C"/>
<path transform="translate(867,87)" d="m0 0c2.73 0.141 5.46 0.288 8.19 0.438 0.769 0.0393 1.54 0.0786 2.33 0.119 3.91 0.218 7.65 0.53 11.5 1.44v2c-0.929 0.0606-1.86 0.121-2.82 0.184-7.62 0.454-7.62 0.454-15.2 1.44-3.24 0.405-5.83 0.0714-9-0.625 3-2 3-2 6-3-0.33-0.66-0.66-1.32-1-2z" fill="#000C06"/>
<path transform="translate(550 1124)" d="m0 0c1.19 0.00773 1.19 0.00773 2.4 0.0156 1.24 0.0309 1.24 0.0309 2.5 0.0625 0.828 0.00516 1.66 0.0103 2.51 0.0156 6.12 0.0797 6.12 0.0797 8.43 1.23v2c-1.37 0.0735-1.37 0.0735-2.77 0.148-1.19 0.0748-2.38 0.15-3.6 0.227-1.78 0.104-1.78 0.104-3.59 0.211-3.14 0.116-3.14 0.116-5.04 2.41-2.69 0.27-5.29 0.0874-8 0 0-3 0-3 1.24-4.67 2.16-1.63 3.24-1.7 5.92-1.66z" fill="#00B96C"/>
<path transform="translate(491,1293)" d="m0 0c0.539 0.366 1.08 0.732 1.63 1.11 10.1 6.63 20.8 12.2 31.4 17.9-4.78 1.59-7.96-1.13-12.3-3.29-0.595-0.302-1.19-0.604-1.8-0.915-1.8-0.912-3.62-1.8-5.44-2.69-1.15-0.575-2.29-1.15-3.47-1.74-1.05-0.525-2.1-1.05-3.18-1.59-3.03-1.93-4.79-3.81-6.79-6.78v-2z" fill="#00B167"/>
<path transform="translate(582,1125)" d="m0 0c-0.33 0.99-0.66 1.98-1 3-7.42-0.99-7.42-0.99-15-2v-5c5.73-2.2 11 1.36 16 4z" fill="#000904"/>
<path transform="translate(1239,777)" d="m0 0h1c1.19 11 0.96 20.5-3 31h-1c0.786-10.4 1.89-20.7 3-31z" fill="#00BC6E"/>
<path transform="translate(929,1178)" d="m0 0c-2.6 0.724-5.2 1.43-7.81 2.12-0.738 0.208-1.48 0.415-2.24 0.629-1.96 0.514-3.96 0.889-5.95 1.25-0.99-0.66-1.98-1.32-3-2 6.23-2.99 12.5-5.72 19-2z" fill="#00C072"/>
<path transform="translate(1063 1088)" d="m0 0c0.578 0.227 1.15 0.454 1.75 0.688l-5 4c-0.866 0.763-1.73 1.53-2.62 2.31-0.784 0.557-1.57 1.11-2.38 1.69-0.99-0.33-1.98-0.66-3-1 7.93-8.15 7.93-8.15 11.2-7.69z" fill="#00BB6E"/>
<path transform="translate(1397,951)" d="m0 0c1.39 4.18-0.293 6.83-1.94 10.7-0.291 0.702-0.581 1.4-0.881 2.13-0.719 1.73-1.45 3.46-2.18 5.19h-1c0.633-5.83 1.81-11.5 4-17 0.66-0.33 1.32-0.66 2-1z" fill="#00B96C"/>
<path transform="translate(1252,1180)" d="m0 0c0.99 0.33 1.98 0.66 3 1-0.33 2.64-0.66 5.28-1 8-1.65-0.33-3.3-0.66-5-1 1.88-6.88 1.88-6.88 3-8z" fill="#89DEBB"/>
<path transform="translate(1228,848)" d="m0 0c1.44 2.89 0.476 5.02-0.32 8.02-0.821 2.39-1.98 4.12-3.68 5.98-0.125-6.62-0.125-6.62 1-10h2c0.33-1.32 0.66-2.64 1-4z" fill="#00B96C"/>
</svg>
