<?xml version="1.0" encoding="UTF-8"?>
<svg version="1.1" viewBox="0 0 1600 1464" width="1280" height="1280" xmlns="http://www.w3.org/2000/svg">
<path transform="translate(0)" d="m0 0h1600v1464h-1600v-1464z" fill="#00BF73"/>
<path transform="translate(0)" d="m0 0h1600v1464h-1600v-1464zm700 88.7c-2.96 0.453-5.93 0.87-8.9 1.29-2.45 0.351-4.91 0.703-7.36 1.05l-7 1c-1.52 0.217-1.52 0.217-3.06 0.438-3.1 0.594-5.95 1.54-8.94 2.56-2.65 0.498-5.28 0.955-7.94 1.38-8.17 1.38-16.1 3.33-24.1 5.62-0.902 0.258-1.8 0.517-2.73 0.783-11.7 3.36-23.5 6.76-35.1 10.5-1.58 0.506-3.15 1.01-4.73 1.5-25.6 8.07-50.2 18.8-74.5 30.2-1.01 0.474-2.02 0.947-3.06 1.44-11.1 5.24-22.2 10.5-32.9 16.6-1.28 0.704-2.56 1.41-3.84 2.11-8.97 4.95-17.6 10.3-26.2 15.9-1.87 1.19-3.75 2.38-5.62 3.56-9.29 5.91-18.4 12.1-27.4 18.4l-1.98 1.4c-9.03 6.37-17.8 12.9-26.1 20.1-2.63 2.27-5.29 4.46-8.01 6.61l-2.43 1.93-2.45 1.95c-7.26 5.77-14.2 11.8-20.9 18.1-2.62 2.45-5.31 4.82-8.02 7.17-3.19 2.81-5.92 5.76-8.61 9.04-1.52 1.72-3.12 3.13-4.89 4.58-3.32 2.74-6.03 5.79-8.81 9.06-1.68 1.92-3.43 3.72-5.25 5.5-3.04 2.99-5.85 6.12-8.62 9.34-2.05 2.36-4.15 4.66-6.25 6.97-7.93 8.8-15.2 18.1-22.4 27.5-1.25 1.63-2.51 3.25-3.77 4.88-51.2 65.8-89.8 144-118 258l-0.83 3.76c-4.2 19.3-7.25 38.6-9.17 58.2-0.0874 0.859-0.175 1.72-0.265 2.6-0.948 10.5-0.88 20.9-0.868 31.4-6.75e-4 2.02-0.00165 4.04-0.0029 6.06-0.00147 4.21 6.43e-4 8.42 0.00534 12.6 0.00571 5.38 0.0024 10.8-0.00357 16.1-0.00363 4.16-0.00246 8.33 1.28e-4 12.5 6.63e-4 1.98-1.37e-4 3.96-0.00248 5.95-0.00256 2.77 0.00136 5.55 0.0069 8.32-0.00202 0.804-0.00405 1.61-0.00613 2.44 0.0181 4.94 0.384 9.76 0.918 14.7 0.262 2.73 0.275 5.41 0.207 8.16-0.0507 6.02 0.476 11.9 1.18 17.8 0.124 1.08 0.247 2.17 0.375 3.28 0.262 2.28 0.528 4.56 0.797 6.84 0.401 3.41 0.787 6.81 1.17 10.2 2.24 19.4 5.22 38.7 9.8 57.7 0.452 1.9 0.452 1.9 0.913 3.83 0.909 3.79 1.84 7.57 2.77 11.4 0.4 1.63 0.4 1.63 0.808 3.29 11.5 46.3 28.9 92.5 51.9 134 1.38 2.52 2.72 5.05 4.07 7.58 7.25 13.6 15.1 26.7 23.2 39.8 0.56 0.897 1.12 1.79 1.7 2.72 4.22 6.7 8.64 13.2 13.2 19.7 1.06 1.51 1.06 1.51 2.14 3.06 7.35 10.5 15 20.6 23.3 30.3 2.49 2.91 4.91 5.87 7.32 8.85 3.63 4.45 7.4 8.74 11.3 13 1.86 2.04 3.68 4.11 5.48 6.2 8.37 9.59 17.1 18.8 26.1 27.8 1.7 1.7 3.4 3.4 5.09 5.1 5.64 5.64 11.3 11.1 17.4 16.3 1.61 1.45 3.21 2.91 4.81 4.38 4.26 3.84 8.64 7.52 13.1 11.1 2.24 1.81 4.46 3.63 6.67 5.46 8.12 6.7 16.4 13.1 24.9 19.3 3.25 2.36 6.42 4.71 9.48 7.32 3.7 3.02 7.62 5.49 11.7 8 1.7 1.06 3.4 2.12 5.11 3.19l2.62 1.63c2.47 1.55 4.93 3.11 7.39 4.68 75.6 48.3 159 78.5 292 97.9 1.45 0.0911 2.91 0.182 4.36 0.273 60.2 3.72 121 2.58 180-10.6 3.14-0.686 6.29-1.32 9.44-1.95 46.5-9.35 91.8-25.1 135-45.3 2.9-1.37 5.82-2.73 8.73-4.09 19.8-9.27 39-19.6 57.4-31.5 0.728-0.473 1.46-0.946 2.21-1.43 6.55-4.26 13.1-8.57 19.6-12.9 1.46-0.981 2.91-1.96 4.37-2.94 8.66-5.81 17.2-11.6 25.1-18.3 2.73-2.27 5.54-4.37 8.4-6.48 4.99-3.7 9.74-7.61 14.5-11.7 3.93-3.38 7.98-6.56 12.2-9.63l1.51-1.34v-2l1.8-0.801c2.28-1.24 3.68-2.5 5.45-4.39 2.49-2.57 5.03-4.98 7.75-7.31 2.69-2.31 5.22-4.7 7.69-7.25 2.01-2.06 3.55-3.39 6.06-4.88 2.41-1.23 2.41-1.23 3.6-3.67 1.81-2.96 3.83-5.01 6.34-7.39 1.47-1.4 2.92-2.83 4.31-4.31v-2c0.99-0.33 1.98-0.66 3-1 1.44-1.59 2.8-3.25 4.12-4.94 3.88-4.89 7.96-9.51 12.2-14.1 1.86-1.82 1.86-1.82 1.65-4 0.99-0.33 1.98-0.66 3-1 1.78-2.05 3.43-4.09 5.06-6.25 0.484-0.628 0.968-1.26 1.47-1.9 1-1.31 2.01-2.61 3.01-3.93 1.36-1.78 2.72-3.55 4.09-5.32 2.47-3.19 4.92-6.39 7.37-9.6 0.715-0.928 1.43-1.86 2.17-2.81 5.9-7.73 11.4-15.7 16.8-23.8 2.18-3.21 4.41-6.38 6.69-9.53 3.87-5.51 7.18-11.3 10.6-17.2 3.41-5.88 6.94-11.7 10.5-17.5 5.96-9.87 11.2-20 16.2-30.4 3.47-7.28 6.94-14.5 10.6-21.8 0.478-0.953 0.478-0.953 0.965-1.92 1.35-2.68 2.71-5.35 4.09-8.01l1.32-2.56c0.357-0.679 0.714-1.36 1.08-2.06 1.28-2.91 2.24-5.86 3.22-8.88 1.33-3.97 2.82-7.87 4.29-11.8 8.52-22.7 15.9-45.3 21.6-68.8 0.163-0.672 0.325-1.34 0.493-2.04 4.96-20.5 9.29-41.1 12.5-62 0.148-0.919 0.296-1.84 0.448-2.78 8.01-50.4 6.85-102 2.75-153-0.186-2.31-0.364-4.62-0.539-6.94-3.24-42.3-11.6-85.2-24.7-126-0.436-1.36-0.872-2.73-1.31-4.09-6.19-19.3-12.8-38.2-20.7-56.9-0.558-1.36-1.12-2.72-1.67-4.07-3.4-8.17-7.3-16-11.3-23.9-0.971-1.92-1.93-3.84-2.88-5.76-8.44-17.1-17-34.1-27.1-50.2-0.351-0.559-0.702-1.12-1.06-1.69-5.14-8.16-10.5-16.2-15.9-24.2-2.99-4.45-5.86-8.92-8.45-13.6-1.54-2.58-1.54-2.58-3.8-4.59-3.69-3.62-6.56-7.85-9.57-12-5.21-7.16-10.5-14.1-16.2-20.9l-1.37-1.62c-6.17-7.31-12.5-14.5-19-21.5-2.02-2.2-3.98-4.43-5.92-6.7-4.07-4.67-8.45-9-12.9-13.3-8.72-8.57-8.72-8.57-11.7-12.2-1.85-2.26-3.64-4.1-5.86-5.96-3.09-2.64-6.12-5.32-9.12-8.06-5.25-4.73-10.7-9.19-16.2-13.6-1.79-1.46-3.58-2.91-5.38-4.38l-2.79-2.27c-1.91-1.59-3.79-3.2-5.65-4.84-9.19-8.08-19.2-14.8-29.3-21.6-2.77-1.84-5.52-3.7-8.28-5.55-5.17-3.48-10.4-6.92-15.6-10.4-0.763-0.506-1.53-1.01-2.31-1.53-13.4-8.86-27.4-16.4-41.7-23.9-2.4-1.27-4.79-2.56-7.17-3.87-20.1-11.1-41.4-20.1-62.8-28.5-2.79-1.1-5.58-2.23-8.37-3.35-14.9-5.95-30.3-10.4-45.7-14.9-1.13-0.329-2.26-0.658-3.43-0.998-14.4-4.19-28.9-7.88-43.6-11-0.86-0.187-1.72-0.374-2.6-0.566-9.91-2.15-19.7-3.89-29.8-4.84-5.38-0.507-5.38-0.507-7.56-1.59-4.63-0.661-9.29-1.06-13.9-1.5-0.711-0.0669-1.42-0.134-2.16-0.203-54.8-5.05-114-6.25-169 2.36z" fill="#FBFDFD"/>
<path transform="translate(791 277)" d="m0 0c3.84-0.00218 7.68-0.0204 11.5-0.0393 12.1-0.028 24.1 0.17 36.1 1.11 1 0.0777 2 0.155 3.03 0.236 5.17 0.455 10.1 1.2 15.2 2.41 2.62 0.622 5.27 1.05 7.93 1.48 48.2 7.92 97.5 23.7 140 48 1.94 1.04 3.87 2.09 5.81 3.12 10.4 5.7 20.3 11.8 30.1 18.4 2.26 1.53 4.53 3.06 6.8 4.58 9.76 6.58 19.2 13.4 28.3 20.9 0.847 0.692 0.847 0.692 1.71 1.4 6.38 5.24 12.5 10.6 18.2 16.6 1.97 1.97 4 3.8 6.11 5.61 6.15 5.29 12 11 16.9 17.4v2c0.576 0.253 1.15 0.505 1.75 0.766 8.68 4.75 14.9 14.6 20.8 22.3 1.43 1.86 2.88 3.7 4.35 5.53 15.4 19.4 29.1 40.4 40.9 62.2 1.1 2.02 2.21 4.03 3.34 6.04 18.8 34 31.6 71.6 40.6 109 0.27 1.11 0.54 2.22 0.818 3.36 4.67 20.2 7.03 40.9 8.87 61.6 0.312 3.46 0.645 6.91 0.98 10.4 1.89 20.2 3.13 40.9 0.207 61.1-0.281 2.16-0.561 4.33-0.84 6.49-0.205 1.54-0.205 1.54-0.414 3.12-0.446 3.55-0.779 7.1-1.09 10.7-1.08 12.2-3.06 24.2-5.28 36.3-0.152 0.834-0.304 1.67-0.46 2.53-2.56 13.8-6.4 27.1-10.5 40.5-0.272 0.884-0.544 1.77-0.824 2.68-11.6 37.3-28.5 73.8-50.2 106-0.632 0.966-1.26 1.93-1.91 2.93-8.16 12.4-16.6 24.6-26.1 36.1-0.74 0.924-1.48 1.85-2.24 2.8-3.82 4.75-7.67 9.28-12.1 13.5-2.55 2.55-4.82 5.32-7.12 8.1-1.58 1.6-1.58 1.6-4.58 2.6-0.268 0.557-0.536 1.11-0.812 1.69-1.72 3.35-4.27 5.94-7.19 8.31h-2c-0.268 0.639-0.536 1.28-0.812 1.94-1.19 2.06-1.19 2.06-4.19 3.06-0.676 1.33-1.34 2.66-2 4-1.89 1.94-1.89 1.94-4.25 4-0.895 0.784-1.79 1.57-2.71 2.38-0.488 0.422-0.976 0.843-1.48 1.28-1.64 1.42-3.28 2.85-4.91 4.29-6.78 5.91-13.7 11.5-21 16.8-1.85 1.35-3.69 2.71-5.53 4.08-35.8 26.4-74.9 48.5-117 63.1-1.91 0.665-3.82 1.36-5.7 2.09-8.43 3.29-17.2 5.28-26 7.39-2.14 0.522-4.27 1.07-6.4 1.62-18.7 4.88-37.8 8.56-57 11-1.05 0.137-2.09 0.274-3.17 0.415-35.2 4.46-70.7 3.65-106-0.415-1.21-0.139-2.42-0.277-3.66-0.42-6.79-0.793-13.6-1.65-20.3-2.58-1.96-0.259-1.96-0.259-3.96-0.523-3.04-0.477-3.04-0.477-5.91-1.48-2.62-0.84-4.56-1.19-7.26-1.41-4.81-0.499-9.25-1.65-13.9-3.03-4.51-1.32-9-2.59-13.6-3.58-6.94-1.5-13.7-3.76-20.4-5.98-0.66-0.216-1.32-0.433-2-0.656-48.5-16.1-92.6-41.1-133-71.9-1.76-1.33-3.52-2.65-5.29-3.96-7.5-5.62-14.4-11.7-21.2-18.1-1.82-1.69-3.7-3.32-5.59-4.93-6.8-5.89-13-12.4-18.8-19.2-2.51-2.78-5.17-5.38-7.84-8-5.48-5.4-10.4-11.1-15.1-17.2-0.63-0.763-1.26-1.53-1.91-2.31-6.49-7.89-12.3-16.3-18.1-24.7-0.848-1.23-0.848-1.23-1.71-2.48-8.79-12.8-16.9-25.8-24.3-39.5-0.763-1.41-0.763-1.41-1.54-2.86-22.8-42.7-39.2-90.2-47.1-138-0.364-2.16-0.77-4.31-1.19-6.45-3.67-19-4.75-38.4-5.18-57.7-0.0191-0.77-0.0382-1.54-0.0579-2.33-1.49-60.9 8.57-122 33.1-178 0.326-0.76 0.651-1.52 0.987-2.3 4.26-9.94 8.85-19.7 13.8-29.3 1.41-2.76 2.8-5.54 4.19-8.31 6.15-12.2 12.7-23.7 20.5-34.9 1.6-2.29 3.16-4.6 4.71-6.92 6.8-10.1 13.9-19.9 21.4-29.5 1.17-1.5 2.33-3.01 3.49-4.52 9.55-12.3 20.8-23.3 31.8-34.3 1.18-1.19 2.36-2.38 3.54-3.57 7.2-7.27 14.5-14.1 22.6-20.4 1.18-0.942 2.36-1.89 3.54-2.83 2.85-2.23 5.7-4.46 8.55-6.68 1.29-1 2.57-2.01 3.85-3.02 15.6-12.3 32-23.3 49.1-33.5 1.02-0.617 2.04-1.23 3.09-1.87 31.2-18.4 66.2-32.6 101-42.1 3.48-0.95 6.94-1.94 10.4-2.94 14.8-4.11 29.8-6.63 45-8.96 0.977-0.152 1.95-0.303 2.96-0.46 21-3.22 41.4-3.85 62.6-3.85z" fill="#FBFDFD"/>
<path transform="translate(837 84.4)" d="m0 0c1.05 0.0293 1.05 0.0293 2.12 0.0593 12.5 0.361 24.9 1.11 37.3 2.57 0.795 0.0909 1.59 0.182 2.41 0.275 1.91 0.218 3.81 0.44 5.71 0.662v2c-2.91 0.705-5.24 0.986-8.25 0.812-4.1 0.205-6.43 1.17-10.1 2.94-3.17 1.47-6.41 2.61-9.69 3.81-24.8 9.58-44.5 28.5-55.2 52.6-0.259 0.592-0.518 1.18-0.784 1.8-0.42 0.955-0.84 1.91-1.27 2.89-9.45 23.7-7.51 50 2.39 73.2 9.49 21 25.2 35.7 44.9 46.9 0.889 0.541 1.78 1.08 2.7 1.64 2.37 1.4 4.73 2.4 7.3 3.36-3.26 1.09-3.86 0.885-7 0-16.9-2.19-34.1-2.29-51.1-2.21-3.85 0.0184-7.71 0.0205-11.6 0.0203-20.8 0.0265-40.9 1.06-61.5 4.25-1 0.153-2 0.307-3.04 0.465-18 2.77-35.4 6.48-52.8 11.5-1.2 0.332-2.39 0.664-3.63 1.01-19 5.3-36.8 12.5-54.8 20.4-2.98 1.32-5.96 2.61-8.96 3.89-31.2 13.4-60.2 31.9-86.6 53.1-2.27 1.8-4.57 3.56-6.89 5.3-13 9.9-24.9 20.8-36.4 32.4-2.11 2.13-4.23 4.25-6.35 6.37-1.37 1.38-2.74 2.75-4.12 4.13-0.93 0.932-0.93 0.932-1.88 1.88-6.83 6.9-13.1 14.2-19 21.9-0.604 0.779-1.21 1.56-1.83 2.36-10.5 13.6-20.1 27.8-29.5 42.2l-2.07 3.18c-27.3 43.1-46.3 92-56.9 142l-0.709 3.26c-1.62 7.55-3.02 15.1-4.29 22.7-0.198 1.16-0.395 2.32-0.599 3.52-4.02 24.5-3.9 48.7-3.4 73.5 0.0222 1.27 0.0445 2.54 0.0674 3.85 0.343 17.1 2.14 34.1 3.93 51.2-2.23-2.05-3.56-3.85-4.81-6.61-2.34-4.86-5.24-9.25-8.25-13.7-0.529-0.797-1.06-1.59-1.6-2.42-2.73-4.17-2.73-4.17-6.01-7.89-1.33-1.38-1.33-1.38-1.33-3.38-0.568-0.245-1.14-0.49-1.72-0.742-2.67-1.48-4.52-3.26-6.71-5.38-18.8-17.3-43.1-25.1-68.3-24-11 0.736-21.2 3.69-31.3 8.15l-2.61 1.15c-26.4 12.5-43.1 33.5-52.9 60.6-2.69 7.75-4.47 15-4.5 23.3h-2c-0.58-5.01-1.15-10-1.71-15-0.191-1.7-0.385-3.4-0.582-5.1-1.07-9.28-1.95-18.3-1.68-27.7 0.0379-3.25 0.0379-3.25-0.519-6.81-0.571-4.42-0.663-8.78-0.669-13.2-0.00496-0.85-0.00993-1.7-0.015-2.58-0.0145-2.8-0.0214-5.6-0.0269-8.4-0.00283-0.97-0.00565-1.94-0.00857-2.94-0.015-5.16-0.0242-10.3-0.0285-15.5-0.00435-4.2-0.0181-8.4-0.041-12.6-0.128-23.9 0.0375-47.4 3.28-71.1 0.145-1.07 0.29-2.14 0.44-3.24 5.94-43 17.3-84.8 31.6-126 0.355-1.02 0.71-2.05 1.08-3.1 4.09-11.7 8.86-23.1 13.8-34.4 0.982-2.24 1.95-4.49 2.91-6.75 9.07-21.1 19.6-41.9 31.2-61.7 0.47-0.806 0.94-1.61 1.42-2.44 6.5-11.1 13.3-22 20.6-32.6 0.388-0.568 0.776-1.14 1.18-1.72 7.44-10.9 15.2-21.5 23.3-32 1.68-2.17 3.35-4.35 5-6.54 8.76-11.6 18.2-22.4 28.1-33.1 2.11-2.3 4.18-4.63 6.21-7 2.72-3.14 5.6-6.06 8.57-8.97 1.66-1.69 3.17-3.45 4.68-5.28 2.49-2.97 5.18-5.44 8.19-7.88 2.92-2.51 5.56-5.28 8.25-8.03 6.32-6.47 12.6-12.7 19.7-18.3 3.18-2.54 6.28-5.17 9.38-7.81 21.4-18.2 44.1-34.2 67.7-49.3 1.73-1.11 3.46-2.23 5.19-3.35 12.8-8.34 25.8-16.1 39.6-22.8 2.48-1.21 4.95-2.46 7.41-3.71 3.51-1.77 7.03-3.52 10.6-5.26 0.974-0.481 1.95-0.963 2.95-1.46 15-7.38 30-14.3 45.5-20.5 2.14-0.865 4.27-1.75 6.39-2.65 25-10.4 51.3-17.5 77.5-24 4.72-1.16 9.4-2.42 14.1-3.74 3.46-0.901 6.94-1.52 10.5-2.13 2.88-0.497 5.74-1.03 8.61-1.58 26.2-4.99 52-7.83 78.6-8.51 1.2-0.0313 1.2-0.0313 2.42-0.0632 27.6-0.7 55.2-0.721 82.8 0.0632z" fill="#000100"/>
<path transform="translate(1284 564)" d="m0 0c1.77 0.0135 1.77 0.0135 3.57 0.0273 0.904 0.0116 1.81 0.0232 2.74 0.0352v2h4c1.92 4.98 2.55 9.73 3 15h3c2.69 2.31 2.69 2.31 5 5v3h2c1.48 2.96 1.06 5.74 1 9h5c0.144 0.763 0.289 1.53 0.438 2.31 0.526 2.77 0.526 2.77 1.56 5.69-0.199 2.38-0.199 2.38-0.688 5-0.148 0.866-0.296 1.73-0.449 2.62-1.06 2.92-2.19 3.84-4.86 5.38-2.75 0.188-2.75 0.188-5 0v4c-0.66 0.33-1.32 0.66-2 1 0.66 0.33 1.32 0.66 2 1v3c-0.66 0.33-1.32 0.66-2 1 4.36 0.168 7.19 0.102 11-2h4c0.33-0.99 0.66-1.98 1-3 1.85-0.73 1.85-0.73 4.06-1.19 0.733-0.159 1.47-0.317 2.22-0.48 0.849-0.164 0.849-0.164 1.71-0.332 0.0269 1.96 0.0464 3.92 0.0625 5.88 0.0116 1.09 0.0232 2.18 0.0352 3.3-0.0977 2.82-0.0977 2.82-1.1 4.82h-2c0.33 1.65 0.66 3.3 1 5-1.32 0.33-2.64 0.66-4 1-0.33 1.98-0.66 3.96-1 6h-2c-0.33 0.66-0.66 1.32-1 2h3v2c1.65-0.66 3.3-1.32 5-2v2h4c0.66-1.32 1.32-2.64 2-4h2v-2h2c1 3 1 3 0 6.56-2 3.44-2 3.44-5.69 4.88-1.09 0.186-2.19 0.371-3.31 0.562 0.66 0.33 1.32 0.66 2 1v3c-0.66 0.33-1.32 0.66-2 1 0.66 0.33 1.32 0.66 2 1v7h9c0.124 1.07 0.247 2.14 0.375 3.25 0.377 3.57 0.377 3.57 1.75 5.75 1.58 3.62 0.368 7.48-0.812 11.1-0.506 1.99-0.506 1.99 0.668 4.14 1.14 3.06 1.16 5.18 1.02 8.43-0.0911 4.12 0.168 7.68 1.12 11.7 0.939 4.15 0.871 6.73-1.12 10.6-1.61 1.95-2.74 2.87-5 4-0.505 1.65-1 3.3-1.43 4.98-0.581 2.06-1.33 3.98-2.13 5.96-1.56 4.02-2.06 7.78-2.44 12.1h-2v3c-1.32 0.33-2.64 0.66-4 1-3.01 10.2-5.41 20.3-5 31 0.33-1.65 0.66-3.3 1-5 2.29 3.44 2.26 4.97 2 9-0.33 0.33-0.66 0.66-1 1-0.0715 1.35-0.084 2.71-0.0625 4.06 0.0309 1.95 0.0309 1.95 0.0625 3.94h2v2h2v3h2v6h-2c-0.027 1.62-0.0464 3.25-0.0625 4.88-0.0174 1.36-0.0174 1.36-0.0352 2.74-0.0648 2.4-0.0648 2.4 1.1 4.38-0.33 0.66-0.66 1.32-1 2h-2c-0.592 5.35-1.14 10.6-1 16 1.65 0.33 3.3 0.66 5 1v10c-0.99 0.33-1.98 0.66-3 1v2h-2c0.165 1.03 0.33 2.06 0.5 3.12 0.433 3.36 0.582 6.5 0.5 9.88-0.99 0.33-1.98 0.66-3 1v12c-1.32 0.33-2.64 0.66-4 1-0.33 1.32-0.66 2.64-1 4h-18c2.64 0.33 5.28 0.66 8 1v3c-2.64 0.33-5.28 0.66-8 1 2.64 0.33 5.28 0.66 8 1-0.33 1.32-0.66 2.64-1 4-0.784-0.0619-1.57-0.124-2.38-0.188-0.866 0.0619-1.73 0.124-2.62 0.188-0.66 0.99-1.32 1.98-2 3-2.62 0.188-2.62 0.188-5 0-1.32 2.31-2.64 4.62-4 7 0.99-0.33 1.98-0.66 3-1-0.351 0.639-0.701 1.28-1.06 1.94-1.12 3.65-0.74 6.17-0.129 9.88 0.207 2.36-0.167 3.92-0.809 6.18-1 6.43-1 6.43-0.312 12.8 0.312 2.19 0.312 2.19-1.44 4.69-0.742 0.825-1.49 1.65-2.25 2.5-2.1 3.22-3.66 6.4-5 10h-4c-0.33-0.99-0.66-1.98-1-3h-2c0.33 1.32 0.66 2.64 1 4 1.32 0.33 2.64 0.66 4 1-0.33 0.99-0.66 1.98-1 3h-3c-0.227 0.908-0.454 1.82-0.688 2.75-1.49 3.7-3.07 5.03-6.31 7.25-0.33-0.99-0.66-1.98-1-3-5.21 4.22-6.56 11.6-8.25 17.8-0.817 2.45-1.9 4.39-3.75 6.23 1.32 0.33 2.64 0.66 4 1v-2h2v5h-2v4h-3c-0.33 1.32-0.66 2.64-1 4-0.66-0.33-1.32-0.66-2-1v-2c-0.66-0.33-1.32-0.66-2-1-0.103 0.557-0.206 1.11-0.312 1.69-1.09 3.65-2.49 6.55-5.75 8.62-2.27 1.98-2.41 2.94-3.06 5.81-0.289 1.28-0.577 2.56-0.875 3.88-0.99 0.495-0.99 0.495-2 1-0.722 1.64-1.39 3.31-2 5h-2c-0.33 2.64-0.66 5.28-1 8h4c0.33 1.65 0.66 3.3 1 5 0.66-1.32 1.32-2.64 2-4h2c0.201 3.72 0.152 4.77-2 8h2c-0.33 0.99-0.66 1.98-1 3-1.07-0.0206-2.14-0.0412-3.25-0.0625-3.99 0.0434-3.99 0.0434-7.75 1.06-0.33 0.66-0.66 1.32-1 2h-8c-0.33 1.32-0.66 2.64-1 4h-3v4c-0.99 0.33-1.98 0.66-3 1-0.33 0.66-0.66 1.32-1 2h12v6c-0.99 0.33-1.98 0.66-3 1v2h-8c-0.33 0.99-0.66 1.98-1 3h-6c-0.66-1.32-1.32-2.64-2-4h-2c-0.289 0.577-0.577 1.16-0.875 1.75-1.04 2.08-2.08 4.17-3.12 6.25h-2v4h2c0.33-0.99 0.66-1.98 1-3h10c0.33 1.98 0.66 3.96 1 6 1.32-0.66 2.64-1.32 4-2v8c-0.626 0.11-1.25 0.219-1.9 0.332-1.23 0.238-1.23 0.238-2.48 0.48-0.812 0.151-1.62 0.302-2.46 0.457-2.52 0.606-2.52 0.606-4.16 3.73-3.62 0.688-3.62 0.688-7 1-0.66-1.65-1.32-3.3-2-5-3.3-0.33-6.6-0.66-10-1v5c-0.99 0.66-1.98 1.32-3 2-0.577 1.96-0.577 1.96-0.688 4.12-0.155 1.92-0.155 1.92-0.312 3.88h-3c-0.33 1.98-0.66 3.96-1 6h-2c-0.33 2.64-0.66 5.28-1 8-1.32 0.33-2.64 0.66-4 1 0.0309 1.42 0.0309 1.42 0.0625 2.88-0.0625 3.12-0.0625 3.12-1.06 5.12h-6c0.0619 1.42 0.0619 1.42 0.125 2.88-0.125 3.12-0.125 3.12-2.12 5.12-0.648 2.57-0.648 2.57-1 5-1.65 0.33-3.3 0.66-5 1v8h-2v2c-0.66 0.33-1.32 0.66-2 1-0.476 2.54-0.84 5-1.12 7.56-0.0864 0.711-0.173 1.42-0.262 2.15-0.213 1.76-0.414 3.52-0.613 5.28-0.969 0.268-1.94 0.536-2.94 0.812-1.01 0.392-2.02 0.784-3.06 1.19-0.33 0.99-0.66 1.98-1 3-2.56 1.19-2.56 1.19-5 2v-3h4c-0.33-0.66-0.66-1.32-1-2-0.04-2-0.0435-4 0-6h-10c0.0928 1.89 0.0928 1.89 0.188 3.81 0.00693 3.96 0.00693 3.96-1.56 5.81-0.536 0.454-1.07 0.908-1.62 1.38-0.289 0.969-0.577 1.94-0.875 2.94-1.36 3.71-2.79 5-6.12 7.06h-4v3c-0.615 0.0864-1.23 0.173-1.86 0.262-2.47 0.43-4.77 0.894-7.14 1.74-0.495 0.846-0.99 1.69-1.5 2.56-1.5 2.44-1.5 2.44-3.67 2.98-2.28 0.241-4.54 0.4-6.83 0.453-0.33 2.31-0.66 4.62-1 7-9.41 3.26-9.41 3.26-14 4 0.0619 1.14 0.0619 1.14 0.125 2.31-0.125 2.69-0.125 2.69-2.12 5.69-3.13 0.688-3.13 0.688-6 1v-4c-1.65 0.66-3.3 1.32-5 2v-2c-0.557 0.33-1.11 0.66-1.69 1-2.62 1.13-4.49 1.16-7.31 1v5c-0.626 0.0606-1.25 0.121-1.9 0.184-0.817 0.0838-1.63 0.168-2.48 0.254-0.812 0.0812-1.62 0.162-2.46 0.246-2.21 0.207-2.21 0.207-4.16 1.32-2.29-0.252-4.54-0.643-6.81-1.04-2.29-0.197-2.29-0.197-3.85 1.52-0.442 0.503-0.884 1.01-1.34 1.52h-2v2h-5c-0.33 0.99-0.66 1.98-1 3-1.85 0.73-1.85 0.73-4.06 1.19l-2.22 0.48c-0.566 0.11-1.13 0.219-1.71 0.332 0.0619 1.36 0.0619 1.36 0.125 2.75-0.12 3.13-0.516 4.64-2.12 7.25h-3c-0.124 1.14-0.124 1.14-0.25 2.31-0.75 2.69-0.75 2.69-2.44 4.44-2.31 1.25-2.31 1.25-5.25 1.5-4.02 0.984-4.89 2.75-6.98 6.16-1.08 1.59-1.08 1.59-3.08 2.59-0.33 0.99-0.66 1.98-1 3-4.36 2.98-7.74 4.14-13 4-0.227 0.763-0.454 1.53-0.688 2.31-1.64 3.37-3.07 3.85-6.31 5.69-2.12 1.81-4.18 3.68-6.23 5.57-1.77 1.43-1.77 1.43-3.77 1.43-0.165 0.619-0.33 1.24-0.5 1.88-2.4 3.4-5.5 3.35-9.5 4.12v2h-2v2h-4c-0.33 0.99-0.66 1.98-1 3-4.93 1.81-9.79 2.45-15 3-0.33 0.99-0.66 1.98-1 3-1.74 1.1-1.74 1.1-3.88 2.06-2.59 1.19-4.73 2.34-7.12 3.94-2.39 0.309-2.39 0.309-5.25 0.438-6.31 0.415-12.2 1.59-18.4 2.94-2.89 0.537-5.42 0.749-8.35 0.621 0.33 0.33 0.66 0.66 1 1 1.97 0 3.95-0.00285 5.92-0.0312 2.45 0.0368 4.7 0.438 7.08 1.03-3.12 1.79-5.68 2.34-9.25 2.62-0.892 0.0748-1.78 0.15-2.7 0.227-0.675 0.049-1.35 0.098-2.05 0.148 1.65 0.66 3.3 1.32 5 2v4c-2.99 0.872-5.64 1.11-8.75 1.06-1.2-0.0135-1.2-0.0135-2.42-0.0273-0.905-0.0174-0.905-0.0174-1.83-0.0352 1.26-2.51 2.5-2.87 5-4-3.01-1.5-6.19-1.33-9.5-1.5-7.23-0.365-7.23-0.365-9.5-1.5-0.33 1.32-0.66 2.64-1 4h-2c-0.33 0.66-0.66 1.32-1 2-1.18-0.487-1.18-0.487-2.38-0.984-4.62-1.3-8.85-1.31-13.6-1.27-0.877-0.00773-1.75-0.0155-2.66-0.0234-4.89 0.0147-8.75 0.447-13.3 2.27-11.2 3.87-21.3 5.54-33.2 5.08-3.74-0.29-3.74-0.29-6.82 0.922-0.33 0.66-0.66 1.32-1 2-4.49 2.48-8.95 2.33-13.9 2.31-0.786 0.0161-1.57 0.0322-2.38 0.0488-4.99 0.00417-8.31-0.702-12.7-3.36v-1c1.98-0.33 3.96-0.66 6-1-2.9-1.62-5.25-2.32-8.55-2.63-0.844-0.0838-1.69-0.168-2.56-0.254l-2.64-0.238c-0.888-0.0864-1.78-0.173-2.69-0.262-2.19-0.212-4.37-0.416-6.56-0.613v-2c-3.02-0.873-5.72-1.12-8.85-1.14-19.8-0.344-19.8-0.344-27.1-5.86v-2h3v-2c-0.792 0.00524-1.58 0.0105-2.4 0.0159-3.6 0.0208-7.19 0.0338-10.8 0.0466-1.25 0.00838-2.49 0.0168-3.78 0.0254-1.2 0.00322-2.4 0.00645-3.64 0.00977-1.1 0.00524-2.21 0.0105-3.35 0.0159-2.81-0.105-5.31-0.511-8.05-1.11-1.71-0.0415-3.42-0.0418-5.12 0-3.08 0.0749-4.91-0.0115-7.88-1v-4c-1.36 0.0619-1.36 0.0619-2.75 0.125-3.13-0.12-4.64-0.516-7.25-2.12v-2h-5l-1-6h-2v-3h4c-0.396-2.87-0.732-3.79-3.06-5.62-0.959-0.681-0.959-0.681-1.94-1.38v-2c-3.58-1-3.58-1-7 0-0.99-0.33-1.98-0.66-3-1-2.14 0.389-2.14 0.389-4 1v-2c-0.66-0.33-1.32-0.66-2-1 0.66-0.66 1.32-1.32 2-2-0.66-0.33-1.32-0.66-2-1 0.66-1.32 1.32-2.64 2-4-0.969-0.309-1.94-0.619-2.94-0.938-3.06-1.06-3.06-1.06-4.06-2.06-0.0408-2-0.0425-4 0-6-1.65-0.33-3.3-0.66-5-1-1.37-3.7-0.419-5.45 1-9-0.379-2.19-0.379-2.19-1-4 0.33-0.33 0.66-0.66 1-1-0.66-0.33-1.32-0.66-2-1v-2h-2v-2h-2v-2h-2v-2h-2v-2h-2c-0.66-2.64-1.32-5.28-2-8h-10v-5c-0.701-0.0206-1.4-0.0412-2.12-0.0625-3.79-1.23-5.18-3.34-7.54-6.44-0.44-0.494-0.879-0.987-1.33-1.5h-2c-0.33 0.66-0.66 1.32-1 2-0.99-0.66-1.98-1.32-3-2h-2c-3-3.46-3-3.46-3-6h-2l-1 3v-2h-3v-3c0.66-0.33 1.32-0.66 2-1-0.66-0.33-1.32-0.66-2-1v-2h-3v-2c-5.94-1.32-11.9-2.64-18-4v-2c-3.63-0.33-7.26-0.66-11-1-0.33 0.66-0.66 1.32-1 2h-4c0.375-1.94 0.375-1.94 1-4 0.66-0.33 1.32-0.66 2-1v-3c-1.32-0.66-2.64-1.32-4-2v-2c-1.32-0.66-2.64-1.32-4-2v-2c-1.65-0.33-3.3-0.66-5-1v-2c-2.31-0.66-4.62-1.32-7-2v-4h-2c-2.12-1.75-2.12-1.75-4-4v-4c-0.99-0.33-1.98-0.66-3-1-1.61-2.58-1.61-2.58-3.19-5.81l-1.61-3.21c-1.21-2.98-1.21-2.98-1.21-6.98-0.99-0.33-1.98-0.66-3-1v-2c-1.65-0.66-3.3-1.32-5-2v-2h-3l-0.77-1.9c-0.516-1.23-0.516-1.23-1.04-2.48-0.336-0.812-0.673-1.62-1.02-2.46-1.11-2.47-1.11-2.47-4.17-4.16v-2h-2l-0.875-2.88c-0.893-3.18-0.893-3.18-3.12-5.12h2v-3h-2v-2h3c-0.743-0.681-0.743-0.681-1.5-1.38-1.5-1.62-1.5-1.62-1.5-3.62h2c-0.186-0.763-0.371-1.53-0.562-2.31-0.438-2.69-0.438-2.69 0.562-5.69-0.66-0.33-1.32-0.66-2-1-1.62-1.12-1.62-1.12-3-3-0.25-3.62-0.25-3.62 0-7 0.33-0.33 0.66-0.66 1-1-0.409-2.05-0.409-2.05-1-4 3.74-2.49 5.56-2.38 10-2 3.44 1.5 3.44 1.5 6 3v3c0.66 0.33 1.32 0.66 2 1 1.67 1.67 3.33 3.33 5 5 2.6 2.17 5.18 4.12 8 6-0.99 0.33-1.98 0.66-3 1 0.736 0.375 1.47 0.75 2.23 1.14 8.95 4.7 8.95 4.7 11.8 7.74 0.66 0.701 1.32 1.4 2 2.12h3c2.69 2.5 2.69 2.5 5 5 0.66-0.33 1.32-0.66 2-1v2c1.09 0.248 2.19 0.495 3.31 0.75 3.97 1.35 4.4 2.03 6.69 5.25 2.6 0.804 2.6 0.804 5 1v2c0.99-0.33 1.98-0.66 3-1 0.66 0.66 1.32 1.32 2 2 0.763 0.144 1.53 0.289 2.31 0.438 3.05 0.639 5.04 1.96 7.69 3.56h3v2c0.99-0.33 1.98-0.66 3-1v3l2.38-0.0703c11.3-0.193 11.3-0.193 16.6 2.07 0.495 1.49 0.495 1.49 1 3 1.18 0.103 2.35 0.206 3.56 0.312 5.09 0.65 9.85 1.7 13.2 5.88l1.25 1.81h3c0.33-0.66 0.66-1.32 1-2 5.54 0.629 5.54 0.629 7.73 2.39 3.02 2.14 6.25 2.98 9.77 3.98 5 1.48 9.79 3.08 14.6 5.19 5.46 2.37 11 3.82 16.7 5.27 5.79 1.54 11.4 3.63 17 5.66 5.4 1.93 10.8 3.63 16.4 5 1.8 0.508 1.8 0.508 2.8 1.51 1.37 0.323 2.74 0.608 4.12 0.875 4.28 0.917 7.95 2.16 11.9 4.12 0.33 0.66 0.66 1.32 1 2 6.1 3.61 11.9 4.58 18.8 5.31 0.836 0.0883 1.67 0.177 2.53 0.268 4.3 0.489 4.3 0.489 8.52-0.105 2.32-0.516 3.94-0.399 6.28-0.0641 4.81 0.613 9.58 0.848 14.4 1.02 1.82 0.0737 3.64 0.148 5.46 0.223 2.82 0.113 5.64 0.222 8.46 0.322 9.86 0.354 19.1 0.933 28.8 3.27 8.5 1.72 17.2 2.12 25.9 2.82 3.86 0.318 7.71 0.642 11.6 0.973 0.91 0.078 1.82 0.156 2.76 0.236 6.59 0.587 13.1 1.44 19.5 2.73v1c-0.699 0.0606-1.4 0.121-2.12 0.184-0.91 0.0838-1.82 0.168-2.76 0.254-0.905 0.0812-1.81 0.162-2.74 0.246-2.39 0.186-2.39 0.186-4.38 1.32 8.51 2.84 18.8 1.13 27-2 0.5-0.5 1-1 1.52-1.52 2.04-2.04 3.89-2.29 6.67-2.92 3.61-0.897 6.69-1.88 9.94-3.69 4.16-2.26 8.2-2.66 12.9-2.88v3c0.99-0.33 1.98-0.66 3-1 0.33 0.66 0.66 1.32 1 2-1.65 0.33-3.3 0.66-5 1 0.66 0.66 1.32 1.32 2 2 3.31-0.236 3.31-0.236 7-1.06 1.26-0.238 2.52-0.477 3.81-0.723 3.37-0.878 3.37-0.878 4.48-3.75 0.232-0.812 0.464-1.62 0.703-2.46 3.65-2.13 6.84-2.19 11-2v-2c-0.66-0.33-1.32-0.66-2-1 3.82-1.42 6.91-2.24 11-2v-2c1.86-1.47 1.86-1.47 4.31-3.06 0.801-0.527 1.6-1.05 2.43-1.6 2.26-1.34 2.26-1.34 5.26-2.34 0.3-0.623 0.601-1.25 0.91-1.89 1.4-2.71 2.87-3.48 5.53-4.93 0.782-0.44 1.56-0.879 2.37-1.33 2.19-0.855 2.19-0.855 5.19 0.145 0.33-0.66 0.66-1.32 1-2h5c0.33-0.66 0.66-1.32 1-2-0.33-0.33-0.66-0.66-1-1-0.683-1.33-1.35-2.66-2-4 1.32-0.33 2.64-0.66 4-1 0.33 0.66 0.66 1.32 1 2 3.5-1.37 6.91-2.86 10.3-4.44 3.34-1.54 6.66-2.96 10.1-4.19 3.43-1.13 3.43-1.13 5.44-2.82 2.46-1.8 4.82-2.76 7.69-3.8 0.95-0.356 1.9-0.712 2.88-1.08 2.56-0.672 2.56-0.672 5.56 0.328-2 2-2 2-5 3 5.65-0.435 10.5-2.64 15-6 1.4-2.31 2.14-4.43 3-7h2c0.186-0.598 0.371-1.2 0.562-1.81 2.09-3.19 4.99-3.75 8.44-5.19 0.33-0.99 0.66-1.98 1-3 2.07-0.73 2.07-0.73 4.56-1.19 1.24-0.238 1.24-0.238 2.5-0.48 0.638-0.11 1.28-0.219 1.93-0.332v-2h2v-3c1.42-0.0928 1.42-0.0928 2.88-0.188 1.03-0.268 2.06-0.536 3.12-0.812 1.26-2.36 1.26-2.36 2-5 1.56-1.69 1.56-1.69 3-3 0.33-0.66 0.66-1.32 1-2h2v-3c0.639-0.268 1.28-0.536 1.94-0.812 2.39-1.07 2.39-1.07 3.06-4.19 1.62-2.19 1.62-2.19 4-4 3.75-0.25 3.75-0.25 7 0-0.99 1.32-1.98 2.64-3 4h6c0.33-0.66 0.66-1.32 1-2h3c0.33-1.32 0.66-2.64 1-4-1.65-0.33-3.3-0.66-5-1v-3c5.45-3.04 5.45-3.04 8.56-2.81 2.78 0.0704 2.78 0.0704 4.88-2.94 0.615-0.824 0.615-0.824 1.24-1.66 2.03-2.44 4.66-3.89 7.32-5.59 0.742-0.743 1.49-1.49 2.25-2.25 0.577-0.577 1.15-1.16 1.75-1.75h2v-2h2c0.247-0.619 0.495-1.24 0.75-1.88 1.25-2.12 1.25-2.12 3.25-3.06 2.21-0.896 2.21-0.896 2.88-3.25 1.55-3.88 3.99-7.04 7.12-9.81h3v-3h3v-2c1.26-0.247 2.52-0.495 3.81-0.75 3.02-0.734 3.95-0.984 6.06-3.38 0.371-0.619 0.742-1.24 1.12-1.88h2c0.404-0.866 0.404-0.866 0.816-1.75 1.2-2.28 2.55-4.21 4.12-6.25 0.504-0.66 1.01-1.32 1.53-2 0.507-0.66 1.01-1.32 1.54-2 0.517-0.743 1.03-1.48 1.57-2.25 0.473-0.578 0.946-1.16 1.43-1.75h2c0.33-1.98 0.66-3.96 1-6 0.99-0.33 1.98-0.66 3-1 1.13-1.83 1.13-1.83 2-4 0.667-1.33 1.33-2.67 2-4h2c0.247-0.908 0.495-1.82 0.75-2.75 1.34-3.48 2.66-4.66 5.25-7.25 1.05-2.03 1.98-4.09 2.88-6.2 1.39-2.24 2.78-2.7 5.12-3.8 0.688-1.66 1.36-3.32 2-5 0.99-0.33 1.98-0.66 3-1 0.104-0.871 0.209-1.74 0.316-2.64 0.718-3.53 1.86-5.99 3.62-9.11 0.525-0.944 1.05-1.89 1.59-2.86 1.47-2.39 1.47-2.39 3.47-4.39 0.629-1.46 1.21-2.94 1.75-4.44 1.84-4.72 4.05-9.06 6.54-13.5 1.3-2.35 2.55-4.7 3.77-7.09 0.353-0.684 0.706-1.37 1.07-2.07 0.697-1.35 1.39-2.71 2.07-4.07 2.47-4.75 2.47-4.75 5.8-5.86 0.176-1.07 0.176-1.07 0.355-2.17 0.673-2.96 1.67-5.4 2.96-8.14 0.443-0.951 0.887-1.9 1.34-2.88 1.74-3.63 3.52-7.22 5.34-10.8h2c0.66-2.97 1.32-5.94 2-9h2c-0.0928-1.48-0.0928-1.48-0.188-3-0.0208-5.11 1.93-9.49 4.19-14h2c0.144-0.763 0.289-1.53 0.438-2.31 0.562-2.69 0.562-2.69 1.56-5.69 0.66-0.33 1.32-0.66 2-1 0.9-3.64 1.63-7.27 2.32-10.9 0.987-4.87 2.36-8.91 4.8-13.2 1.39-2.89 1.61-5.63 1.87-8.81h2v-3h-4c-0.33 3.3-0.66 6.6-1 10h-3c0.33-0.99 0.66-1.98 1-3-0.293-1.67-0.627-3.34-1-5 0-4.14 1.16-7.75 2.38-11.7 0.352-1.18 0.352-1.18 0.711-2.39 0.452-0.953 0.452-0.953 0.914-1.93 0.99-0.33 1.98-0.66 3-1 4.4-11.1 4.77-22 3.22-33.8-0.334-3.43-0.241-6.83-0.156-10.3 0.162-1.97 0.162-1.97-1.06-2.97-0.0754-1.84-0.0831-3.69-0.0625-5.54 0.00773-1.14 0.0155-2.28 0.0234-3.45 0.0258-2.4 0.0518-4.8 0.0781-7.2 0.0387-5.73-0.103-11.1-1.04-16.8-0.303-3.33-0.501-6.66-0.688-10-0.0599-0.864-0.12-1.73-0.182-2.62-0.293-5.29 0.0953-9.38 1.87-14.4h2c0.33 1.32 0.66 2.64 1 4h2c-0.33-0.99-0.66-1.98-1-3 0.66-0.99 1.32-1.98 2-3-0.33-0.99-0.66-1.98-1-3 0.66-0.33 1.32-0.66 2-1-0.33-0.66-0.66-1.32-1-2 0.99-0.33 1.98-0.66 3-1v-10c-0.928-0.268-1.86-0.536-2.81-0.812-2.95-1.1-4.24-1.81-6.19-4.19 0.33-0.66 0.66-1.32 1-2 0.99 0.33 1.98 0.66 3 1-0.0309-1.21-0.0309-1.21-0.0625-2.44 0.0625-2.56 0.0625-2.56 1.06-3.56-1.32-0.66-2.64-1.32-4-2 0.712-0.65 0.712-0.65 1.44-1.31 1.8-1.71 1.8-1.71 2.56-4.69h-2c-0.33 0.99-0.66 1.98-1 3-0.33-0.66-0.66-1.32-1-2 0.712-0.65 0.712-0.65 1.44-1.31 1.8-1.71 1.8-1.71 2.56-4.69h3v-2c1.49-0.99 1.49-0.99 3-2 0.588-1.52 0.588-1.52 1.19-3.06 1.81-2.94 1.81-2.94 3.78-3.55 2-0.236 4.02-0.321 6.03-0.387-1 3-1 3-3 4 0.66 4.95 1.32 9.9 2 15 2-2 1.41-5.82 1.56-8.56 0.0648-1.07 0.0648-1.07 0.131-2.15 0.106-1.76 0.207-3.52 0.307-5.28 2.26 3.39 2.29 4.77 2.41 8.76 0.058 1.68 0.058 1.68 0.117 3.39 0.0309 1.17 0.0619 2.33 0.0938 3.54 0.058 1.77 0.058 1.77 0.117 3.57 0.0944 2.91 0.18 5.83 0.258 8.74-1.71-1.63-2.93-2.87-4-5v24h2c-0.0309-1.21-0.0309-1.21-0.0625-2.44 0.0625-2.56 0.0625-2.56 1.06-3.56 0.233-1.68 0.413-3.37 0.562-5.06 0.0838-0.919 0.168-1.84 0.254-2.79 0.0606-0.71 0.121-1.42 0.184-2.15 1.32 0.99 2.64 1.98 4 3 0.33-1.98 0.66-3.96 1-6 0.99 0.33 1.98 0.66 3 1-0.206-0.784-0.412-1.57-0.625-2.38-0.186-1.3-0.186-1.3-0.375-2.62 0.66-0.66 1.32-1.32 2-2 0.289 0.969 0.577 1.94 0.875 2.94 0.767 3.17 0.767 3.17 3.12 4.06-0.144-0.99-0.289-1.98-0.438-3-1.56-11-1.56-11-1.56-14h-3c-0.99-0.33-1.98-0.66-3-1-1.49 0.495-1.49 0.495-3 1v-7h2c0.33-0.99 0.66-1.98 1-3 1.32 0.99 2.64 1.98 4 3 0.66-1.98 1.32-3.96 2-6h3v-2h-3v-3h3v-2c-1.99 0.293-3.97 0.586-5.96 0.879-2.04 0.121-2.04 0.121-5.04-0.879h2c-0.33-0.99-0.66-1.98-1-3h3v-7h2v-2h-2v-3h2v-2h-6c-1.12-2.19-1.12-2.19-2-5 0.617-1.69 1.28-3.35 2-5-0.287-2.24-0.287-2.24-1-4-0.454 0.495-0.908 0.99-1.38 1.5-1.62 1.5-1.62 1.5-3.62 1.5v-3h-6c-0.242-0.652-0.485-1.3-0.734-1.98-1.53-3.98-2.88-7.49-5.39-11-4.21-6.87-4.13-15.2-3.88-23.1 0.957-0.369 0.957-0.369 1.93-0.746 2.21-1.05 2.21-1.05 2.79-3.16 0.112-0.71 0.224-1.42 0.34-2.15 0.348-2.16 0.348-2.16 0.938-3.94 3.42-1.14 6.09-1.1 9.69-1.06z" fill="#00C074"/>
<path transform="translate(1284 564)" d="m0 0c1.77 0.0135 1.77 0.0135 3.57 0.0273 0.904 0.0116 1.81 0.0232 2.74 0.0352v2h4c1.92 4.98 2.55 9.73 3 15h3c2.69 2.31 2.69 2.31 5 5v3h2c1.48 2.96 1.06 5.74 1 9h5c0.144 0.763 0.289 1.53 0.438 2.31 0.526 2.77 0.526 2.77 1.56 5.69-0.199 2.38-0.199 2.38-0.688 5-0.148 0.866-0.296 1.73-0.449 2.62-1.06 2.92-2.19 3.84-4.86 5.38-2.75 0.188-2.75 0.188-5 0v4c-0.66 0.33-1.32 0.66-2 1 0.66 0.33 1.32 0.66 2 1v3c-0.66 0.33-1.32 0.66-2 1 4.36 0.168 7.19 0.102 11-2h4c0.33-0.99 0.66-1.98 1-3 1.85-0.73 1.85-0.73 4.06-1.19 0.733-0.159 1.47-0.317 2.22-0.48 0.566-0.11 1.13-0.219 1.71-0.332 0.0269 1.96 0.0464 3.92 0.0625 5.88 0.0116 1.09 0.0232 2.18 0.0352 3.3-0.0977 2.82-0.0977 2.82-1.1 4.82h-2c0.33 1.65 0.66 3.3 1 5-1.32 0.33-2.64 0.66-4 1-0.33 1.98-0.66 3.96-1 6h-2c-0.33 0.66-0.66 1.32-1 2h3v2c1.65-0.66 3.3-1.32 5-2v2h4c0.66-1.32 1.32-2.64 2-4h2v-2h2c1 3 1 3 0 6.56-2 3.44-2 3.44-5.69 4.88-1.09 0.186-2.19 0.371-3.31 0.562 0.66 0.33 1.32 0.66 2 1v3c-0.66 0.33-1.32 0.66-2 1 0.66 0.33 1.32 0.66 2 1v7h9c0.124 1.07 0.247 2.14 0.375 3.25 0.377 3.57 0.377 3.57 1.75 5.75 1.58 3.62 0.368 7.48-0.812 11.1-0.506 1.99-0.506 1.99 0.668 4.14 1.14 3.06 1.16 5.18 1.02 8.43-0.0911 4.12 0.168 7.68 1.12 11.7 0.939 4.15 0.871 6.73-1.12 10.6-1.61 1.95-2.74 2.87-5 4-0.505 1.65-1 3.3-1.43 4.98-0.581 2.06-1.33 3.98-2.13 5.96-1.56 4.02-2.06 7.78-2.44 12.1h-2v3c-1.32 0.33-2.64 0.66-4 1-3.01 10.2-5.41 20.3-5 31 0.33-1.65 0.66-3.3 1-5 2.29 3.44 2.26 4.97 2 9-0.33 0.33-0.66 0.66-1 1-0.0715 1.35-0.084 2.71-0.0625 4.06 0.0309 1.95 0.0309 1.95 0.0625 3.94h2v2h2v3h2v6h-2c-0.027 1.62-0.0464 3.25-0.0625 4.88-0.0174 1.36-0.0174 1.36-0.0352 2.74-0.0648 2.4-0.0648 2.4 1.1 4.38-0.33 0.66-0.66 1.32-1 2h-2c-0.592 5.35-1.14 10.6-1 16 1.65 0.33 3.3 0.66 5 1v10c-0.99 0.33-1.98 0.66-3 1v2h-2c0.165 1.03 0.33 2.06 0.5 3.12 0.433 3.36 0.582 6.5 0.5 9.88-0.99 0.33-1.98 0.66-3 1v12c-1.32 0.33-2.64 0.66-4 1-0.33 1.32-0.66 2.64-1 4h-18c2.64 0.33 5.28 0.66 8 1v3c-2.64 0.33-5.28 0.66-8 1 2.64 0.33 5.28 0.66 8 1-0.33 1.32-0.66 2.64-1 4-0.784-0.0619-1.57-0.124-2.38-0.188-1.3 0.0928-1.3 0.0928-2.62 0.188-0.66 0.99-1.32 1.98-2 3-2.62 0.188-2.62 0.188-5 0-1.32 2.31-2.64 4.62-4 7 0.99-0.33 1.98-0.66 3-1-0.351 0.639-0.701 1.28-1.06 1.94-1.12 3.65-0.74 6.17-0.129 9.88 0.207 2.36-0.167 3.92-0.809 6.18-1 6.43-1 6.43-0.312 12.8 0.312 2.19 0.312 2.19-1.44 4.69-1.11 1.24-1.11 1.24-2.25 2.5-2.1 3.22-3.66 6.4-5 10h-4c-0.33-0.99-0.66-1.98-1-3h-2c0.33 1.32 0.66 2.64 1 4 1.32 0.33 2.64 0.66 4 1-0.33 0.99-0.66 1.98-1 3h-3c-0.227 0.908-0.454 1.82-0.688 2.75-1.49 3.7-3.07 5.03-6.31 7.25-0.33-0.99-0.66-1.98-1-3-5.21 4.22-6.56 11.6-8.25 17.8-0.817 2.45-1.9 4.39-3.75 6.23 1.32 0.33 2.64 0.66 4 1v-2h2v5h-2v4h-3c-0.33 1.32-0.66 2.64-1 4-0.66-0.33-1.32-0.66-2-1v-2c-0.66-0.33-1.32-0.66-2-1-0.103 0.557-0.206 1.11-0.312 1.69-1.09 3.65-2.49 6.55-5.75 8.62-2.27 1.98-2.41 2.94-3.06 5.81-0.289 1.28-0.577 2.56-0.875 3.88-0.66 0.33-1.32 0.66-2 1-0.722 1.64-1.39 3.31-2 5h-2c-0.33 2.64-0.66 5.28-1 8h4c0.33 1.65 0.66 3.3 1 5 0.66-1.32 1.32-2.64 2-4h2c0.201 3.72 0.152 4.77-2 8h2c-0.33 0.99-0.66 1.98-1 3-1.07-0.0206-2.14-0.0412-3.25-0.0625-3.99 0.0434-3.99 0.0434-7.75 1.06-0.33 0.66-0.66 1.32-1 2h-8c-0.33 1.32-0.66 2.64-1 4h-3v4c-0.99 0.33-1.98 0.66-3 1-0.33 0.66-0.66 1.32-1 2h12v6c-0.99 0.33-1.98 0.66-3 1v2h-8c-0.33 0.99-0.66 1.98-1 3h-6c-0.66-1.32-1.32-2.64-2-4h-2c-0.289 0.577-0.577 1.16-0.875 1.75l-3.12 6.25h-2v4h2c0.33-0.99 0.66-1.98 1-3h10c0.33 1.98 0.66 3.96 1 6 1.32-0.66 2.64-1.32 4-2v8c-0.626 0.11-1.25 0.219-1.9 0.332-1.23 0.238-1.23 0.238-2.48 0.48-0.812 0.151-1.62 0.302-2.46 0.457-2.52 0.606-2.52 0.606-4.16 3.73-3.62 0.688-3.62 0.688-7 1-0.66-1.65-1.32-3.3-2-5-3.3-0.33-6.6-0.66-10-1v5c-0.99 0.66-1.98 1.32-3 2-0.577 1.96-0.577 1.96-0.688 4.12-0.103 1.28-0.206 2.56-0.312 3.88h-3c-0.33 1.98-0.66 3.96-1 6h-2c-0.33 2.64-0.66 5.28-1 8-1.32 0.33-2.64 0.66-4 1 0.0309 1.42 0.0309 1.42 0.0625 2.88-0.0625 3.12-0.0625 3.12-1.06 5.12h-6c0.0412 0.949 0.0825 1.9 0.125 2.88-0.125 3.12-0.125 3.12-2.12 5.12-0.648 2.57-0.648 2.57-1 5-1.65 0.33-3.3 0.66-5 1v8h-2v2c-0.66 0.33-1.32 0.66-2 1-0.476 2.54-0.84 5-1.12 7.56-0.13 1.07-0.13 1.07-0.262 2.15-0.213 1.76-0.414 3.52-0.613 5.28-0.969 0.268-1.94 0.536-2.94 0.812-1.01 0.392-2.02 0.784-3.06 1.19-0.33 0.99-0.66 1.98-1 3-2.56 1.19-2.56 1.19-5 2v-3h4c-0.33-0.66-0.66-1.32-1-2-0.04-2-0.0435-4 0-6h-10c0.0619 1.26 0.124 2.52 0.188 3.81 0.00693 3.96 0.00693 3.96-1.56 5.81-0.536 0.454-1.07 0.908-1.62 1.38-0.289 0.969-0.577 1.94-0.875 2.94-1.36 3.71-2.79 5-6.12 7.06h-4v3c-0.615 0.0864-1.23 0.173-1.86 0.262-2.47 0.43-4.77 0.894-7.14 1.74-0.495 0.846-0.99 1.69-1.5 2.56-1.5 2.44-1.5 2.44-3.67 2.98-2.28 0.241-4.54 0.4-6.83 0.453-0.33 2.31-0.66 4.62-1 7-9.41 3.26-9.41 3.26-14 4 0.0412 0.763 0.0825 1.53 0.125 2.31-0.125 2.69-0.125 2.69-2.12 5.69-3.13 0.688-3.13 0.688-6 1v-4c-1.65 0.66-3.3 1.32-5 2v-2c-0.557 0.33-1.11 0.66-1.69 1-2.62 1.13-4.49 1.16-7.31 1v5c-0.626 0.0606-1.25 0.121-1.9 0.184-0.817 0.0838-1.63 0.168-2.48 0.254-0.812 0.0812-1.62 0.162-2.46 0.246-2.21 0.207-2.21 0.207-4.16 1.32-2.29-0.252-4.54-0.643-6.81-1.04-2.29-0.197-2.29-0.197-3.85 1.52-0.442 0.503-0.884 1.01-1.34 1.52h-2v2h-5c-0.33 0.99-0.66 1.98-1 3-1.85 0.73-1.85 0.73-4.06 1.19l-2.22 0.48c-0.566 0.11-1.13 0.219-1.71 0.332l0.125 2.75c-0.12 3.13-0.516 4.64-2.12 7.25h-3c-0.124 1.14-0.124 1.14-0.25 2.31-0.75 2.69-0.75 2.69-2.44 4.44-2.31 1.25-2.31 1.25-5.25 1.5-4.02 0.984-4.89 2.75-6.98 6.16-1.08 1.59-1.08 1.59-3.08 2.59-0.33 0.99-0.66 1.98-1 3-4.36 2.98-7.74 4.14-13 4-0.227 0.763-0.454 1.53-0.688 2.31-1.64 3.37-3.07 3.85-6.31 5.69-2.12 1.81-4.18 3.68-6.23 5.57-1.77 1.43-1.77 1.43-3.77 1.43-0.247 0.928-0.247 0.928-0.5 1.88-2.4 3.4-5.5 3.35-9.5 4.12v2h-2v2h-4c-0.33 0.99-0.66 1.98-1 3-3.81 1.4-7.35 2.08-11.4 2.5-1.2 0.165-2.39 0.33-3.62 0.5-0.33 0.66-0.66 1.32-1 2h-14c2-3 2-3 3.95-3.51 0.719-0.058 1.44-0.116 2.18-0.176 1.92-0.155 1.92-0.155 3.88-0.312v-3c4.75-1.12 4.75-1.12 7 0 0.33-0.66 0.66-1.32 1-2h3c-0.227-0.742-0.454-1.49-0.688-2.25-0.312-2.75-0.312-2.75 0.625-4.88 3.76-3.41 8.6-4.5 13.4-5.75 2.86-0.898 2.86-0.898 4-3.75 0.206-0.784 0.412-1.57 0.625-2.38h2c-0.33 1.32-0.66 2.64-1 4 1.65-0.33 3.3-0.66 5-1v-7h-6c-0.289-1.13-0.578-2.27-0.875-3.44-0.371-1.18-0.742-2.35-1.12-3.56-0.66-0.33-1.32-0.66-2-1v-2h-4v-4c1.32-0.33 2.64-0.66 4-1v-10h-3v-2h3v-3h-3v-2h3v-2c1.24-0.677 2.5-1.34 3.75-2 0.696-0.371 1.39-0.742 2.11-1.12 2.14-0.875 2.14-0.875 6.14-0.875v-2c0.742-0.227 1.48-0.454 2.25-0.688 2.94-1.09 2.94-1.09 4.31-3.88 3.97-3.97 9.03-3.34 14.4-3.44 0.33-1.32 0.66-2.64 1-4h2v-2c1.44-0.337 2.87-0.67 4.31-1 0.801-0.186 1.6-0.371 2.43-0.562 2.26-0.438 2.26-0.438 5.26-0.438 0.99-2.47 0.99-2.47 2-5h2c0.33-1.98 0.66-3.96 1-6 0.603-0.0606 1.21-0.121 1.83-0.184 0.799-0.0838 1.6-0.168 2.42-0.254 0.789-0.0812 1.58-0.162 2.39-0.246 2.18-0.293 4.24-0.737 6.36-1.32v-3c0.908-0.248 1.82-0.495 2.75-0.75 3.28-1.01 3.28-1.01 5.25-3.25 3.16-3.16 6.49-3.93 10.9-4.12 0.701 0.0412 1.4 0.0825 2.12 0.125 0.186-0.773 0.186-0.773 0.375-1.56 0.206-0.804 0.412-1.61 0.625-2.44 0.206-1.18 0.412-2.35 0.625-3.56 1.38-3.44 1.38-3.44 4.69-5.06 1.22-0.454 2.43-0.908 3.69-1.38 1.7-1.63 3.38-3.29 5-5 0.99-0.33 1.98-0.66 3-1 1.22-2.5 1.22-2.5 2-5h5c0.33-1.32 0.66-2.64 1-4h3v-2c0.557-0.227 1.11-0.454 1.69-0.688 2.52-1.3 2.52-1.3 4.88-3.88 2.44-2.44 2.44-2.44 5.44-3.44v-2h3v2h2v-2h3v-4c2.97-0.33 5.94-0.66 9-1v-8c1.26-0.273 1.26-0.273 2.55-0.551 1.1-0.251 2.19-0.503 3.32-0.762 1.64-0.365 1.64-0.365 3.3-0.738 3.11-0.728 3.11-0.728 4.82-3.95h-3v2h-2v-10c1.32-0.66 2.64-1.32 4-2 0.33-0.99 0.66-1.98 1-3 2.56-1.19 2.56-1.19 5-2v3c0.99-0.33 1.98-0.66 3-1 0.33 0.66 0.66 1.32 1 2 1.98-0.99 3.96-1.98 6-3v-2h4c-0.33-0.66-0.66-1.32-1-2-1.32 0.33-2.64 0.66-4 1v-15h-3v4c-1.98-0.66-3.96-1.32-6-2v-4c-2.64-0.66-5.28-1.32-8-2v-1h8v-2c-11.9 0.82-11.9 0.82-23 5 0.33-1.32 0.66-2.64 1-4-1.65-0.33-3.3-0.66-5-1v-3c5.45-3.04 5.45-3.04 8.56-2.81 2.78 0.0704 2.78 0.0704 4.88-2.94 0.41-0.549 0.82-1.1 1.24-1.66 2.03-2.44 4.66-3.89 7.32-5.59 0.743-0.743 1.49-1.49 2.25-2.25 0.577-0.577 1.15-1.16 1.75-1.75h2v-2h2c0.247-0.619 0.495-1.24 0.75-1.88 1.25-2.12 1.25-2.12 3.25-3.06 2.21-0.896 2.21-0.896 2.88-3.25 1.55-3.88 3.99-7.04 7.12-9.81h3v-3h3v-2c1.26-0.247 2.52-0.495 3.81-0.75 3.02-0.734 3.95-0.984 6.06-3.38 0.371-0.619 0.743-1.24 1.12-1.88h2c0.404-0.866 0.404-0.866 0.816-1.75 1.2-2.28 2.55-4.21 4.12-6.25 0.504-0.66 1.01-1.32 1.53-2 0.507-0.66 1.01-1.32 1.54-2 0.775-1.11 0.775-1.11 1.57-2.25 0.71-0.866 0.71-0.866 1.43-1.75h2c0.33-1.98 0.66-3.96 1-6 0.99-0.33 1.98-0.66 3-1 1.13-1.83 1.13-1.83 2-4 0.667-1.33 1.33-2.67 2-4h2c0.247-0.908 0.495-1.82 0.75-2.75 1.34-3.48 2.66-4.66 5.25-7.25 1.05-2.03 1.98-4.09 2.88-6.2 1.39-2.24 2.78-2.7 5.12-3.8 0.688-1.66 1.36-3.32 2-5 0.99-0.33 1.98-0.66 3-1 0.104-0.871 0.209-1.74 0.316-2.64 0.718-3.53 1.86-5.99 3.62-9.11 0.525-0.944 1.05-1.89 1.59-2.86 1.47-2.39 1.47-2.39 3.47-4.39 0.629-1.46 1.21-2.94 1.75-4.44 1.84-4.72 4.05-9.06 6.54-13.5 1.3-2.35 2.55-4.7 3.77-7.09 0.353-0.684 0.706-1.37 1.07-2.07 0.697-1.35 1.39-2.71 2.07-4.07 2.47-4.75 2.47-4.75 5.8-5.86 0.176-1.07 0.176-1.07 0.355-2.17 0.673-2.96 1.67-5.4 2.96-8.14 0.443-0.951 0.887-1.9 1.34-2.88 1.74-3.63 3.52-7.22 5.34-10.8h2c0.66-2.97 1.32-5.94 2-9h2c-0.0928-1.48-0.0928-1.48-0.188-3-0.0208-5.11 1.93-9.49 4.19-14h2c0.144-0.763 0.289-1.53 0.438-2.31 0.562-2.69 0.562-2.69 1.56-5.69 0.66-0.33 1.32-0.66 2-1 0.9-3.64 1.63-7.27 2.32-10.9 0.987-4.87 2.36-8.91 4.8-13.2 1.39-2.89 1.61-5.63 1.87-8.81h2v-3h-4c-0.33 3.3-0.66 6.6-1 10h-3c0.33-0.99 0.66-1.98 1-3-0.293-1.67-0.627-3.34-1-5 0-4.14 1.16-7.75 2.38-11.7 0.352-1.18 0.352-1.18 0.711-2.39 0.452-0.953 0.452-0.953 0.914-1.93 0.99-0.33 1.98-0.66 3-1 4.4-11.1 4.77-22 3.22-33.8-0.334-3.43-0.241-6.83-0.156-10.3 0.162-1.97 0.162-1.97-1.06-2.97-0.0754-1.84-0.0831-3.69-0.0625-5.54 0.00773-1.14 0.0155-2.28 0.0234-3.45 0.0258-2.4 0.0518-4.8 0.0781-7.2 0.0387-5.73-0.103-11.1-1.04-16.8-0.303-3.33-0.501-6.66-0.688-10-0.0599-0.864-0.12-1.73-0.182-2.62-0.293-5.29 0.0953-9.38 1.87-14.4h2c0.33 1.32 0.66 2.64 1 4h2c-0.33-0.99-0.66-1.98-1-3 0.66-0.99 1.32-1.98 2-3-0.33-0.99-0.66-1.98-1-3 0.66-0.33 1.32-0.66 2-1-0.33-0.66-0.66-1.32-1-2 0.99-0.33 1.98-0.66 3-1v-10c-0.928-0.268-1.86-0.536-2.81-0.812-2.95-1.1-4.24-1.81-6.19-4.19 0.33-0.66 0.66-1.32 1-2 0.99 0.33 1.98 0.66 3 1-0.0309-1.21-0.0309-1.21-0.0625-2.44 0.0625-2.56 0.0625-2.56 1.06-3.56-1.32-0.66-2.64-1.32-4-2 0.712-0.65 0.712-0.65 1.44-1.31 1.8-1.71 1.8-1.71 2.56-4.69h-2c-0.33 0.99-0.66 1.98-1 3-0.33-0.66-0.66-1.32-1-2 0.712-0.65 0.712-0.65 1.44-1.31 1.8-1.71 1.8-1.71 2.56-4.69h3v-2c1.49-0.99 1.49-0.99 3-2 0.392-1.01 0.784-2.02 1.19-3.06 1.81-2.94 1.81-2.94 3.78-3.55 2-0.236 4.02-0.321 6.03-0.387-1 3-1 3-3 4 0.66 4.95 1.32 9.9 2 15 2-2 1.41-5.82 1.56-8.56 0.0432-0.711 0.0864-1.42 0.131-2.15 0.106-1.76 0.207-3.52 0.307-5.28 2.26 3.39 2.29 4.77 2.41 8.76 0.0387 1.12 0.0773 2.24 0.117 3.39 0.0464 1.75 0.0464 1.75 0.0938 3.54 0.0387 1.18 0.0773 2.36 0.117 3.57 0.0944 2.91 0.18 5.83 0.258 8.74-1.71-1.63-2.93-2.87-4-5v24h2c-0.0309-1.21-0.0309-1.21-0.0625-2.44 0.0625-2.56 0.0625-2.56 1.06-3.56 0.233-1.68 0.413-3.37 0.562-5.06 0.0838-0.919 0.168-1.84 0.254-2.79 0.0606-0.71 0.121-1.42 0.184-2.15 1.32 0.99 2.64 1.98 4 3 0.33-1.98 0.66-3.96 1-6 0.99 0.33 1.98 0.66 3 1-0.206-0.784-0.412-1.57-0.625-2.38-0.124-0.866-0.247-1.73-0.375-2.62 0.66-0.66 1.32-1.32 2-2 0.433 1.45 0.433 1.45 0.875 2.94 0.767 3.17 0.767 3.17 3.12 4.06-0.144-0.99-0.289-1.98-0.438-3-1.56-11-1.56-11-1.56-14h-3c-0.99-0.33-1.98-0.66-3-1-1.49 0.495-1.49 0.495-3 1v-7h2c0.33-0.99 0.66-1.98 1-3 1.32 0.99 2.64 1.98 4 3 0.66-1.98 1.32-3.96 2-6h3v-2h-3v-3h3v-2c-1.99 0.293-3.97 0.586-5.96 0.879-2.04 0.121-2.04 0.121-5.04-0.879h2c-0.33-0.99-0.66-1.98-1-3h3v-7h2v-2h-2v-3h2v-2h-6c-1.12-2.19-1.12-2.19-2-5 0.617-1.69 1.28-3.35 2-5-0.287-2.24-0.287-2.24-1-4-0.454 0.495-0.908 0.99-1.38 1.5-1.62 1.5-1.62 1.5-3.62 1.5v-3h-6c-0.242-0.652-0.485-1.3-0.734-1.98-1.53-3.98-2.88-7.49-5.39-11-4.21-6.87-4.13-15.2-3.88-23.1 0.638-0.246 1.28-0.492 1.93-0.746 2.21-1.05 2.21-1.05 2.79-3.16 0.112-0.71 0.224-1.42 0.34-2.15 0.348-2.16 0.348-2.16 0.938-3.94 3.42-1.14 6.09-1.1 9.69-1.06z" fill="#05C074"/>
<path transform="translate(659 582)" d="m0 0c1.52 8.17e-4 1.52 8.17e-4 3.07 0.00165 1.74-0.00629 1.74-0.00629 3.52-0.0127 1.92 0.00843 1.92 0.00843 3.88 0.017 1.36-0.00107 2.72-0.00301 4.07-0.00575 3.69-0.00486 7.39 0.00282 11.1 0.013 3.86 0.00877 7.72 0.00702 11.6 0.00664 6.48 9.37e-4 13 0.00963 19.4 0.0233 7.5 0.0157 15 0.021 22.5 0.0203 7.21-6.09e-4 14.4 0.00449 21.6 0.0128 3.07 0.00354 6.14 0.00536 9.22 0.00589 3.61 1e-3 7.23 0.00708 10.8 0.0172 1.97 0.00433 3.93 0.00375 5.9 0.00306 1.74 0.0064 1.74 0.0064 3.51 0.0129 1.52 0.00251 1.52 0.00251 3.07 0.00508 2.27 0.129 2.27 0.129 3.27 1.13v32c-54.5 0.495-54.5 0.495-110 1-5.19 34.6-5.19 34.6-7 70 6.63-0.398 12.2-2.39 18.4-4.75 8.74-3.08 16.4-3.64 25.6-3.63 1.29 0.00161 2.59 0.00322 3.92 0.00488 9.32 0.12 17.3 1.02 26 4.37 1.31 0.416 1.31 0.416 2.65 0.84 19.6 6.7 32.2 23.6 41.1 41.4 11.3 26.2 11.8 61.3 1.43 87.9-8.12 18.9-21.3 34.3-40.6 42.3-24.5 9.11-55.5 10.4-79.6-0.406-13.5-6.67-26.4-15.8-34-29-0.594-1.01-1.19-2.03-1.8-3.07-5.21-9.6-11.6-23.7-10.2-34.9 2-2 2-2 5.07-2.23 1.29 0.0105 2.58 0.0209 3.9 0.0317 0.685 0.00283 1.37 0.00566 2.08 0.00858 2.19 0.0112 4.38 0.0363 6.57 0.0617 1.48 0.01 2.97 0.0192 4.45 0.0273 3.64 0.0221 7.28 0.0566 10.9 0.0977 0.311 1.08 0.623 2.17 0.944 3.29 4.67 16 9.79 28.3 24.7 37.3 13 7.01 30.7 7.98 44.8 3.98 6.86-2.29 12.4-5.54 17.6-10.6 0.549-0.51 1.1-1.02 1.66-1.55 10.9-11.3 14.6-28.8 14.5-44-0.619-20.3-4.92-38.2-20.2-52.6-12.1-9.44-26.9-12.2-42-10.9-12.5 1.97-23.3 6.07-32.7 14.6-3.93 2.31-7.45 1.77-11.8 0.797-2.79-0.74-5.55-1.55-8.32-2.38-0.953-0.278-1.91-0.556-2.89-0.842-6.94-2.04-6.94-2.04-9.3-3.22 0.565-16.6 2.33-33.1 4.08-49.6 0.4-3.8 0.795-7.6 1.19-11.4 0.769-7.37 1.54-14.7 2.32-22.1 0.479-4.55 0.956-9.1 1.43-13.6 0.606-5.78 1.21-11.6 1.83-17.3 0.0724-0.684 0.145-1.37 0.219-2.07 0.198-1.86 0.398-3.72 0.599-5.58 0.218-2.12 0.415-4.25 0.588-6.37 0.0744-0.907 0.149-1.81 0.226-2.75 0.0549-0.766 0.11-1.53 0.167-2.32 0.586-3.03 1.77-3.78 4.76-4.09z" fill="#000100"/>
<path transform="translate(920,102)" d="m0 0c7.49 0.904 7.49 0.904 10.8 1.53 3.56 0.524 6.96 0.565 10.6 0.531 1.25-0.00902 2.49-0.018 3.77-0.0273 0.941-0.0116 1.88-0.0232 2.85-0.0352v2c0.66 0.33 1.32 0.66 2 1v7c0.681 0.124 1.36 0.248 2.06 0.375 4.4 0.936 8.67 2.2 12.9 3.62v2c1.18 0.464 1.18 0.464 2.38 0.938 2.62 1.06 2.62 1.06 4.62 2.06v-2c4.82-0.193 8.5 0.243 13 2v5c0.99 0.103 1.98 0.206 3 0.312 3.58 0.507 6.71 1.59 10.1 2.92 2.61 1.03 5.27 1.9 7.93 2.77v2c13.9 3.28 13.9 3.28 28 5v2c4.46 0.589 8.89 1.06 13.4 1.38 5.48 0.467 10.4 1.84 15.6 3.62v2c2.64 0.33 5.28 0.66 8 1v2c2.97 0.33 5.94 0.66 9 1-0.33 1.32-0.66 2.64-1 4 1.66 1.66 3.78 1.36 6.06 1.56 0.919 0.0838 1.84 0.168 2.79 0.254 1.07 0.0909 1.07 0.0909 2.15 0.184v2h4c0.33 1.32 0.66 2.64 1 4 0.652 0.11 1.3 0.219 1.98 0.332 11.8 2.14 11.8 2.14 15.5 6.36 2.33 2.04 4.54 1.51 7.5 1.31 0.33 0.66 0.66 1.32 1 2 2.31 1.05 4.64 2.06 7 3v2c0.99 0.33 1.98 0.66 3 1 1.82 1.3 1.82 1.3 3.69 2.88 0.934 0.77 0.934 0.77 1.89 1.55 1.43 1.57 1.43 1.57 1.43 4.57 0.763 0.103 1.53 0.206 2.31 0.312 2.95 0.755 3.65 1.56 5.69 3.69 0.66 0.165 1.32 0.33 2 0.5 2.45 0.612 3.32 1.67 5 3.5 0.66 0.33 1.32 0.66 2 1v2c1.32 0.66 2.64 1.32 4 2v4c0.66 0.33 1.32 0.66 2 1 0.33-0.66 0.66-1.32 1-2 0.99 0.66 1.98 1.32 3 2-0.33 0.66-0.66 1.32-1 2 0.455 2.6 0.455 2.6 2 5 3.03 1.37 3.03 1.37 6 2 0.33-0.66 0.66-1.32 1-2v2h2c0.33-0.66 0.66-1.32 1-2v3c2.31 0.33 4.62 0.66 7 1v2c2.65 1.08 5.28 2.09 8 3 0.33 1.98 0.66 3.96 1 6h3c0.124 0.784 0.247 1.57 0.375 2.38 0.416 2.77 0.416 2.77 2.62 4.62 1.6 3.38 2 5.17 2 9h2c0.33-0.66 0.66-1.32 1-2 0.392 1.05 0.784 2.1 1.19 3.19 1.58 3.73 3.78 6.1 6.81 8.81 0.33 0.33 0.66 0.66 1 1 1.91-0.102 1.91-0.102 4.06-0.438 1.3-0.186 2.6-0.371 3.94-0.562v2c-0.99 0.33-1.98 0.66-3 1v2h-3c4.27 2.95 4.27 2.95 9 5v4c0.99-0.33 1.98-0.66 3-1l0.688 2.19c1.56 3.34 3.69 5.25 6.31 7.81 0.33 0.99 0.66 1.98 1 3 0.99-0.33 1.98-0.66 3-1 0.33 1.32 0.66 2.64 1 4h3c0.99 0.66 1.98 1.32 3 2v2h-3c0.99 0.66 1.98 1.32 3 2 0.99-0.33 1.98-0.66 3-1v2c0.99 0.33 1.98 0.66 3 1 1.39 1.49 1.39 1.49 2.69 3.31 0.437 0.594 0.874 1.19 1.32 1.8 0.988 1.89 0.988 1.89 0.988 5.89h2v10c-0.66 0.33-1.32 0.66-2 1-0.33 0.99-0.66 1.98-1 3-5.1 0.373-8.41-0.835-13-3-0.99-0.33-1.98-0.66-3-1v-3c-0.987-0.0258-1.97-0.0516-2.99-0.0781-1.28-0.0567-2.56-0.113-3.88-0.172-1.28-0.0464-2.55-0.0928-3.87-0.141-3.26-0.609-3.26-0.609-4.7-2.66-0.183-0.645-0.366-1.29-0.555-1.95h-5v-2c-1.32-0.33-2.64-0.66-4-1v-3h-3c-0.33-0.99-0.66-1.98-1-3-4.42-2.95-7.69-4.28-13-5v-3h-2v-3c-1.03 0.143-1.03 0.143-2.08 0.289-0.901 0.111-1.8 0.222-2.73 0.336-0.893 0.116-1.79 0.232-2.71 0.352-2.48 0.0234-2.48 0.0234-5.48-1.98-0.825 0.0412-1.65 0.0825-2.5 0.125-2.5-0.125-2.5-0.125-4.31-2.12-0.392-0.66-0.784-1.32-1.19-2 0.66-0.66 1.32-1.32 2-2v-2c-0.626-0.0258-1.25-0.0516-1.9-0.0781-0.817-0.0567-1.63-0.113-2.48-0.172-0.812-0.0464-1.62-0.0928-2.46-0.141-2.16-0.609-2.16-0.609-3.33-2.62-0.276-0.655-0.552-1.31-0.836-1.98-0.66-0.165-1.32-0.33-2-0.5-0.66-0.165-1.32-0.33-2-0.5-0.247-0.619-0.495-1.24-0.75-1.88-2.04-3.48-5.49-4.1-9.25-5.12-2.34-0.457-4.62-0.752-7-1v-2c-0.722-0.0619-1.44-0.124-2.19-0.188-3.7-1.07-5.34-2.92-7.81-5.81v-2c-1.58-0.155-1.58-0.155-3.19-0.312-3.78-0.682-5.64-1.65-8.81-3.69-1.98-0.711-3.98-1.39-6-2v-2h-2v-2c-0.763-0.144-1.53-0.289-2.31-0.438-2.69-0.563-2.69-0.563-5.69-1.56v-2c-1.65-0.33-3.3-0.66-5-1v-3c-1.08-0.203-1.08-0.203-2.18-0.41-2.68-0.561-5.26-1.25-7.88-2.03-0.837-0.246-1.67-0.492-2.54-0.746-2.26-0.769-4.3-1.69-6.4-2.82v-2c-1.52-0.417-3.04-0.834-4.56-1.25-0.989-0.272-1.98-0.544-3-0.824-2.49-0.669-4.98-1.32-7.48-1.95-0.678-0.173-1.36-0.346-2.05-0.524-1.35-0.343-2.7-0.68-4.05-1.01-1.64-0.421-3.25-0.927-4.86-1.45-0.33-0.66-0.66-1.32-1-2-2.26-0.845-4.55-1.47-6.87-2.12-2.13-0.879-2.13-0.879-4.13-3.88-1.98-1.12-4.01-2.15-6.06-3.12-5.87-2.8-5.87-2.8-6.94-3.88-0.133 0.626-0.266 1.25-0.402 1.9-0.177 0.817-0.353 1.63-0.535 2.48-0.174 0.812-0.348 1.62-0.527 2.46-0.535 2.16-0.535 2.16-1.54 4.16h-3v2c-6.62 1.12-6.62 1.12-10 0v-4h-6v-2c-1.49-0.495-1.49-0.495-3-1-0.66-0.33-1.32-0.66-2-1-2.1 0.399-2.1 0.399-4 1-0.33-0.99-0.66-1.98-1-3-0.66-0.33-1.32-0.66-2-1v-3h-2v-2c-2.64-0.66-5.28-1.32-8-2 0.33-2.64 0.66-5.28 1-8-3.61 2.4-3.85 3.95-5 8h-1c0.00786-0.832 0.00786-0.832 0.0159-1.68 0.0208-2.52 0.0338-5.05 0.0466-7.57 0.0126-1.31 0.0126-1.31 0.0254-2.64 0.00483-1.27 0.00483-1.27 0.00977-2.56 0.00786-1.16 0.00786-1.16 0.0159-2.35-0.113-2.19-0.508-4.09-1.11-6.2h-2v-3h-3c-2-3-2-3-2-6h-4c-0.33-1.13-0.66-2.27-1-3.44-0.722-1.97-0.722-1.97-2-3.56-2.79-0.969-4.99-0.951-8-1-0.33-3.63-0.66-7.26-1-11-2.31-0.33-4.62-0.66-7-1-1.32-3.96-2.64-7.92-4-12-3.63-0.33-7.26-0.66-11-1v2c-2.48 0.495-2.48 0.495-5 1-0.049 0.869-0.098 1.74-0.148 2.63-0.0748 1.15-0.15 2.3-0.227 3.49-0.0696 1.14-0.139 2.27-0.211 3.45-0.409 3.38-1.22 6.25-2.41 9.43h-7v16h-2v2h-3v2c-3.41 3.7-6.81 6.69-12 7v-4c1.45-0.402 1.45-0.402 2.94-0.812 1.52-0.588 1.52-0.588 3.06-1.19 0.33-0.99 0.66-1.98 1-3h3v-3c1.49-0.99 1.49-0.99 3-2-0.495-2.48-0.495-2.48-1-5-1.65-0.33-3.3-0.66-5-1-0.66-3.3-1.32-6.6-2-10-1.98-0.66-3.96-1.32-6-2 0.688-1.94 0.688-1.94 2-4 2.62-0.75 2.62-0.75 5-1v-4c-0.66-0.33-1.32-0.66-2-1h2v-4c-1.49 0.495-1.49 0.495-3 1 0.307-0.51 0.614-1.02 0.93-1.55 1.4-3.2 1.75-6.24 2.2-9.7 0.251-1.89 0.251-1.89 0.508-3.83 0.121-0.964 0.242-1.93 0.367-2.92h-4c0.33 2.31 0.66 4.62 1 7h-2c-0.33-4.62-0.66-9.24-1-14 2.05-0.716 4.1-1.43 6.15-2.15 2.03-0.704 2.03-0.704 2.85-2.85h6c0.33-1.32 0.66-2.64 1-4h6c-2.31-0.66-4.62-1.32-7-2 0.33-0.66 0.66-1.32 1-2z" fill="#00C074"/>
<path transform="translate(407 582)" d="m0 0c0.706 0.00583 1.41 0.0117 2.14 0.0177 1.12-0.00256 1.12-0.00256 2.27-0.00518 2.52-0.00331 5.05 0.00773 7.57 0.0186 1.8 5.64e-4 3.61 2.48e-4 5.41-8.85e-4 4.91-5.76e-4 9.81 0.0112 14.7 0.0251 5.12 0.0125 10.2 0.0137 15.4 0.0161 9.71 0.00622 19.4 0.0226 29.1 0.0427 11 0.0223 22.1 0.0333 33.1 0.0434 22.7 0.0209 45.5 0.0561 68.2 0.101 5.31 15-0.881 28.3-7 42-0.912 2.1-1.82 4.2-2.73 6.3-4.28 9.86-8.68 19.7-13.3 29.4-2.87 6.13-5.61 12.3-8.38 18.5-0.285 0.637-0.57 1.27-0.864 1.93-1.14 2.54-2.27 5.08-3.41 7.62-2.28 5.09-4.56 10.2-6.85 15.3-8.56 19-17.1 38.1-25.6 57.1-0.34 0.766-0.681 1.53-1.03 2.32-3.37 7.58-6.73 15.2-10.1 22.8-6.16 13.9-12.4 27.8-18.7 41.6-0.285 0.629-0.57 1.26-0.863 1.91-0.281 0.621-0.562 1.24-0.852 1.88-1.77 3.92-3.53 7.84-5.29 11.8-0.421 0.942-0.843 1.88-1.28 2.85-0.767 1.72-1.53 3.43-2.3 5.15-2.46 5.51-2.46 5.51-3.58 6.62-2.59 0.0885-5.16 0.115-7.75 0.0977-0.775-0.00141-1.55-0.00283-2.35-0.00429-2.49-0.00562-4.97-0.0182-7.46-0.0309-1.68-0.00501-3.36-0.00958-5.04-0.0137-4.13-0.011-8.26-0.0283-12.4-0.0488-0.33-0.66-0.66-1.32-1-2 0.693-2.01 0.693-2.01 1.84-4.48 0.423-0.918 0.846-1.84 1.28-2.78 0.454-0.965 0.908-1.93 1.38-2.92 0.423-0.915 0.846-1.83 1.28-2.77 1.4-3.02 2.81-6.03 4.22-9.04 0.833-1.79 1.67-3.58 2.5-5.37 2.7-5.8 5.42-11.6 8.16-17.4 7.01-14.8 13.9-29.7 20.7-44.7 5.74-12.7 11.7-25.3 17.7-37.9 4.53-9.52 8.88-19.1 13.1-28.8 1.79-4.05 3.6-8.08 5.41-12.1 0.335-0.747 0.669-1.49 1.01-2.26 4.58-10.2 9.36-20.3 14.1-30.4 9.64-20.3 9.64-20.3 18.3-41.1h-2v-2c-1.12 0.00138-1.12 0.00138-2.26 0.00279-18.1 0.0221-36.3 0.0386-54.4 0.049-8.77 0.00516-17.5 0.0122-26.3 0.0236-7.64 0.00995-15.3 0.0164-22.9 0.0186-4.05 0.00131-8.1 0.00439-12.1 0.0116-3.81 0.00676-7.61 0.00889-11.4 0.00738-1.4 2.76e-4 -2.8 0.00228-4.2 0.0061-1.9 0.00494-3.81 0.00319-5.71 0.00105-1.07 9.22e-4 -2.14 0.00184-3.24 0.00279-2.39-0.123-2.39-0.123-3.39-1.12-0.253-4.31-0.185-8.62-0.188-12.9-0.0184-1.83-0.0184-1.83-0.0371-3.69-0.00193-1.16-0.00387-2.32-0.00586-3.52-0.00411-1.07-0.00822-2.14-0.0125-3.25 0.456-4.88 2.97-4.83 7.29-4.86z" fill="#000100"/>
<path transform="translate(1161,743)" d="m0 0c11.1 8.68 19.7 22.7 21.5 36.8 0.335 4.08 0.456 8.16 0.543 12.2 0.0599 1.82 0.0599 1.82 0.121 3.68 0.151 7.97-0.6 15.5-2.12 23.3-0.171 1.01-0.343 2.02-0.52 3.06-2.31 11.5-9.28 21.8-18.5 28.9-14.9 9.57-30.7 12.4-48.1 9.66-3.78-0.841-7.31-2.13-10.9-3.66-1.08-0.416-1.08-0.416-2.17-0.84-14.7-6.38-23.1-18.8-28.8-33.2-5.69-16-3.87-37.2 1-53 0.266-0.864 0.531-1.73 0.805-2.62 4.71-13.4 15.3-23 27.9-29 19.7-9.06 41-6.99 59.3 4.64z" fill="#000100"/>
<path transform="translate(1026 588)" d="m0 0c12.9 9.29 19.5 23.8 22.1 39.2 0.24 4.53 0.271 9.06 0.295 13.6 0.0114 1.46 0.0317 2.91 0.0615 4.37 0.36 17.6-2.62 33.1-15.1 46.3-11.1 10.5-24.2 15.1-39.4 15.1-17.8-0.558-30.7-4.92-43.8-17.4-11.4-12.2-14.6-28.5-14.4-44.7 0.00371-0.662 0.00741-1.32 0.0112-2.01 0.147-18.4 3.78-34.3 16.6-48.2 20.6-18.9 50.3-21.3 73.8-6.32z" fill="#000100"/>
<path transform="translate(1282,703)" d="m0 0 2 10h6c1.78 3.88 2.06 6.81 1.59 11-0.416 4.04-0.701 8.05-0.832 12.1-0.0493 1.52-0.0493 1.52-0.0996 3.08-0.0617 2.08-0.119 4.16-0.172 6.23-0.186 5.51-0.428 10.5-2.48 15.6-0.99 0.66-1.98 1.32-3 2-0.582 2.43-0.582 2.43-0.688 5.12-0.0657 0.91-0.131 1.82-0.199 2.76-0.0374 0.699-0.0748 1.4-0.113 2.12 0.66 0.33 1.32 0.66 2 1-0.33 0.66-0.66 1.32-1 2-2.06 0.625-2.06 0.625-4 1v2h2v2c-0.99 0.495-0.99 0.495-2 1v2h2c0.0606 0.857 0.121 1.71 0.184 2.6 0.0838 1.14 0.168 2.29 0.254 3.46 0.0864 1.19 0.173 2.37 0.262 3.6 0.227 2.52 0.551 4.87 1.05 7.34 0.312 3.74-0.835 4.86-2.75 8-0.383 5.74 0.262 11.3 1 17h-2v14c0.66 0.33 1.32 0.66 2 1-2.57 2.57-4.48 2.54-8 3 0.0869 2.94 0.194 5.87 0.312 8.81 0.0226 0.833 0.0451 1.67 0.0684 2.53 0.0532 1.2 0.0532 1.2 0.107 2.43 0.0262 0.738 0.0524 1.48 0.0793 2.24 0.537 2.47 1.65 3.27 3.43 4.99-0.312 2.69-0.312 2.69-1 5h-2c0.0954 0.617 0.191 1.23 0.289 1.87 0.779 5.95 0.981 11.5-1.29 17.1-1.58 1.75-1.58 1.75-3 3v-2h-4c0.115 2.54 0.241 5.08 0.375 7.62 0.0309 0.713 0.0619 1.43 0.0938 2.16 0.243 4.41 1.01 8.03 2.53 12.2 0.409 5.42-0.209 10.8-2 16-0.66 0.33-1.32 0.66-2 1-0.536 2.17-0.978 4.36-1.38 6.56-1.17 5.81-2.55 10.4-5.62 15.4-0.66 0.33-1.32 0.66-2 1-0.702 1.94-1.4 3.88-2.08 5.82-0.919 2.18-1.97 3.76-3.42 5.61-2.94 3.85-4.18 7.95-5.5 12.6-1 3-1 3-4.31 4.69-5.56 2.97-6.91 8.15-8.94 13.8-0.371 1.24-0.371 1.24-0.75 2.5h-2c-0.155 1.67-0.155 1.67-0.312 3.38-0.227 1.2-0.454 2.39-0.688 3.62-0.99 0.66-1.98 1.32-3 2 0.33-1.65 0.66-3.3 1-5h-2c-0.33-0.66-0.66-1.32-1-2-0.66 0.66-1.32 1.32-2 2-3.62 0.125-3.62 0.125-7 0-0.186 1.92-0.186 1.92-0.375 3.88-0.375 3.88-0.375 3.88-2.62 6.12-0.289 0.928-0.578 1.86-0.875 2.81-1.97 5.59-6 9.07-10.1 13.2-0.639 0.908-1.28 1.82-1.94 2.75-2.58 2.82-4.33 3-8.06 3.25v8c-2.71 1.35-5.01 1.07-8 1 0.0412 0.928 0.0825 1.86 0.125 2.81-0.125 3.19-0.125 3.19-2.12 6.19-3.85 0.839-6.24 1.25-10 0-0.71-2.31-1.01-4.58-1.38-6.97-0.206-0.67-0.412-1.34-0.625-2.03-0.99-0.33-1.98-0.66-3-1v-2h2c-0.66-1.65-1.32-3.3-2-5h3c-0.186-0.701-0.371-1.4-0.562-2.12-0.489-3.21-0.0998-5.71 0.562-8.88h2c-0.495-1.48-0.495-1.48-1-3 0.938-2.69 0.938-2.69 2-5h4c2.21-0.44 2.21-0.44 4-2 0.464-1.64 0.464-1.64 0.938-3.31 1.22-4.22 2.84-5.8 6.06-8.69 0.33-0.66 0.66-1.32 1-2h2v-2c1.98-0.33 3.96-0.66 6-1-0.0412-1.03-0.0825-2.06-0.125-3.12 0.236-7.31 2.71-10.9 7.57-16.1 1.63-1.66 1.63-1.66 2.56-3.73h3c-0.0412-0.784-0.0825-1.57-0.125-2.38 0.125-2.62 0.125-2.62 2.12-4.62 0.719-2.32 1.39-4.65 2-7 0.619-0.0825 1.24-0.165 1.88-0.25 2.22-0.542 2.22-0.542 3.17-2.34 1.73-4.38 2.21-9.06 2.98-13.7 1.04-3.97 2.42-6.54 4.98-9.73h2c0.186-1.52 0.186-1.52 0.375-3.06 0.606-3.82 1.5-7.25 2.62-10.9h2c0.33-0.99 0.66-1.98 1-3h2c0.313-1.4 0.626-2.79 0.938-4.19 0.184-0.82 0.369-1.64 0.559-2.48 0.378-1.75 0.704-3.5 1-5.27 0.5-2.06 0.5-2.06 2.5-4.06 0.428-2.13 0.428-2.13 0.562-4.56 0.0748-0.888 0.15-1.78 0.227-2.69 0.104-1.36 0.104-1.36 0.211-2.75 0.136-1.67 0.281-3.33 0.438-5 0.0606-0.722 0.121-1.44 0.184-2.19 0.379-1.81 0.379-1.81 2.38-3.81 0.66 0.33 1.32 0.66 2 1-0.0232-0.759-0.0464-1.52-0.0703-2.3-0.018-0.994-0.0361-1.99-0.0547-3.01-0.0232-0.986-0.0464-1.97-0.0703-2.99 0.195-2.7 0.195-2.7 2.2-5.7 0.662-2.05 0.662-2.05 1.12-4.19 0.289-1.26 0.578-2.52 0.875-3.81h2c0.33-1.65 0.66-3.3 1-5h2c0.33-0.66 0.66-1.32 1-2 1 2 1 2 1 4h4c-0.66-0.33-1.32-0.66-2-1-0.688-2-0.688-2-1-4 0.33-0.33 0.66-0.66 1-1 0.161-2.33 0.278-4.67 0.375-7 0.277-5.17 0.905-9.65 2.8-14.5 1.4-4.27 2.06-8.7 2.83-13.1 0.913-5.23 0.913-5.23 2-7.41 0.207-2.48 0.374-4.95 0.5-7.44 0.366-7.16 0.366-7.16 1.5-10.6h2c-0.0116-0.773-0.0232-1.55-0.0352-2.34-0.0826-9.54-0.0826-9.54 0.66-13.8 0.569-5.79-0.925-10.6-2.7-16.1-0.978-3.89-1.06-7.06-0.926-11.1 0.123-5.95-0.229-11.7-1-17.6-1.09-8.49-1.8-15.8 1-24.1 1.44-0.169 2.87-0.335 4.31-0.5 0.801-0.0928 1.6-0.186 2.43-0.281 2.26-0.219 2.26-0.219 5.26-0.219z" fill="#00C175"/>
<path transform="translate(1162,343)" d="m0 0c2.12 1.81 2.12 1.81 4 4 1.48 0.848 2.98 1.66 4.5 2.44 3.02 1.59 4.34 2.33 6.31 5.19 3.21 3.48 6.86 3.78 11.4 4.7 2.78 0.676 2.78 0.676 5.78 2.68v2h2c0.495 1.49 0.495 1.49 1 3 0.99 0.33 1.98 0.66 3 1v-5c0.99 0.66 1.98 1.32 3 2v3h2v2h8v2c-2.97 0.33-5.94 0.66-9 1v1c0.626 0.0374 1.25 0.0748 1.9 0.113 0.817 0.0657 1.63 0.131 2.48 0.199 1.22 0.087 1.22 0.087 2.46 0.176 2.16 0.512 2.16 0.512 4.16 3.51h3c2.69 2.5 2.69 2.5 5 5h-2c0.786 1.32 1.58 2.63 2.38 3.94 0.661 1.1 0.661 1.1 1.34 2.21 1.17 1.99 1.17 1.99 3.29 2.85-0.495-1.98-0.495-1.98-1-4 2 0 2 0 3.62 1.56 1.38 2.44 1.38 2.44 1.31 6 0.0206 1.13 0.0412 2.27 0.0625 3.44 0.639 0.454 1.28 0.908 1.94 1.38 2.06 1.62 2.06 1.62 2.48 3.62 0.139 1.6 0.264 3.19 0.375 4.79 0.252 2.69 1.06 4.78 2.21 7.21 1.66 3.94 2.86 7.88 4 12 0.371 1.03 0.743 2.06 1.12 3.12 1.41 6.24 2.52 13.8-0.57 19.6-0.77 1.13-0.77 1.13-1.55 2.28-0.698 1.65-1.37 3.32-2 5l-4-2c-0.33 0.66-0.66 1.32-1 2-3.57 2.47-6.76 2.42-11 2-3.1-1.14-6.05-2.5-9-4v-2h-2v-2h-2v-2c-0.557-0.0825-1.11-0.165-1.69-0.25-3.01-0.976-4.93-2.7-7.31-4.75 0.33-0.66 0.66-1.32 1-2h3c-0.33-0.66-0.66-1.32-1-2 1.65 0.66 3.3 1.32 5 2 0.11-1.18 0.11-1.18-1.21-2.38-4.73-4.46-8.34-5.64-14.8-5.62-1.61 0.0928-1.61 0.0928-3.25 0.188-3.69-0.251-5.1-1.68-7.75-4.19-0.598-0.536-1.2-1.07-1.81-1.62-1.19-1.38-1.19-1.38-1.19-3.38h-3v-2c-1.32-0.66-2.64-1.32-4-2v-2c-0.784 0.186-1.57 0.371-2.38 0.562-2.62 0.438-2.62 0.438-4.62-0.562-0.612-2.39-1-4.54-1-7-0.315-1.34-0.646-2.67-1-4h-2c-0.289-0.969-0.578-1.94-0.875-2.94-0.767-3.17-0.767-3.17-3.12-4.06v2c-1.65-0.33-3.3-0.66-5-1-0.0425-2-0.0408-4 0-6 0.33-0.33 0.66-0.66 1-1-0.66-0.33-1.32-0.66-2-1v-2h-6c-0.495-1.49-0.495-1.49-1-3h2c-1.39-2.78-3.16-2.98-6-4v-3h3c0.33-2.31 0.66-4.62 1-7h-2v-2h-6c0.66-1.32 1.32-2.64 2-4-0.33-0.33-0.66-0.66-1-1-2.75-5.37-3.4-9.45-3.19-15.4 0.0135-0.732 0.0271-1.46 0.041-2.22 0.0349-1.78 0.0887-3.56 0.146-5.35h2v-2c0.592-0.049 1.18-0.098 1.79-0.148 0.79-0.0748 1.58-0.15 2.39-0.227 1.17-0.104 1.17-0.104 2.36-0.211 2.52-0.321 2.52-0.321 4.91-1.49 4.56-1.65 9.02-0.3 13.5 1.08z" fill="#00C074"/>
<path transform="translate(1116,610)" d="m0 0c14.3 6.39 14.3 6.39 18 12-0.312 4.04-1.84 6.68-4.06 10-2.63 4-5.2 8.03-7.69 12.1-3.11 5.07-6.31 10.1-9.56 15.1-4.73 7.27-9.29 14.6-13.8 22.1-8.75 14.4-17.5 28.8-27 42.8-2.45 3.65-4.7 7.3-6.75 11.2-2.99 5.65-6.45 10.9-9.95 16.3-2.98 4.56-5.85 9.16-8.61 13.8-4.03 6.83-8.35 13.5-12.7 20.1-3.54 5.42-6.97 10.9-10.3 16.4-4.42 7.31-8.99 14.5-13.6 21.7-0.648 1.01-1.3 2.02-1.96 3.06-0.611 0.939-1.22 1.88-1.85 2.84-0.814 1.26-0.814 1.26-1.64 2.54-1.54 2.05-1.54 2.05-4.54 4.05-2.82-1.59-5.63-3.2-8.44-4.81-1.2-0.678-1.2-0.678-2.43-1.37-1.15-0.662-1.15-0.662-2.31-1.34-1.06-0.605-1.06-0.605-2.14-1.22-1.67-1.26-1.67-1.26-2.67-4.26 1.04-2.29 1.04-2.29 2.69-4.99 0.913-1.51 0.913-1.51 1.84-3.05 0.669-1.08 1.34-2.16 2.03-3.28 1.02-1.67 1.02-1.67 2.06-3.37 5.64-9.24 11.4-18.4 17.3-27.5 3.78-5.89 7.45-11.9 11.1-17.8 4.77-7.83 9.63-15.6 14.6-23.3 9.58-15 19-30.1 28.4-45.3 13.9-22.7 13.9-22.7 20.4-32.6 4.71-7.21 9.24-14.5 13.8-21.9 0.684-1.11 1.37-2.23 2.07-3.38 2.51-4.09 5.02-8.18 7.52-12.3 1.4-2.29 2.81-4.57 4.22-6.85 0.398-0.654 0.797-1.31 1.21-1.98 2.69-4.34 2.69-4.34 4.92-5.45z" fill="#000100"/>
<path transform="translate(1e3 176)" d="m0 0 4 1v2c2.48 0.495 2.48 0.495 5 1v-2c2.48 0.99 2.48 0.99 5 2v2h4v3c2.97 0.33 5.94 0.66 9 1 0.495 1.98 0.495 1.98 1 4 2.18 1.07 2.18 1.07 4.81 1.62 3.29 0.827 6.27 1.6 9.19 3.38 0.371 0.763 0.743 1.53 1.12 2.31 2.92 4.19 7.29 5.67 11.9 7.69v2c0.908 0.103 1.82 0.206 2.75 0.312 5.51 0.773 10.9 2.28 16.2 3.69v2c3 1.66 5.7 2.46 9.06 3.06 2.77 0.504 5.26 1.04 7.94 1.94 0.688 2.06 0.688 2.06 1 4h2v2c0.784-0.124 1.57-0.248 2.38-0.375 5.3 0.548 9.42 3.16 13.6 6.38v2c1.05-0.0619 2.1-0.124 3.19-0.188 6.32 0.311 10.2 4.15 15 7.88 1.74 1.36 1.74 1.36 3.77 2.3v3c1.05 0.103 2.1 0.206 3.19 0.312 3.74 0.675 5.74 1.55 8.81 3.69 0.99 0.66 1.98 1.32 3 2 0.99 0.66 1.98 1.32 3 2 2.58 1.56 5.17 3.1 7.81 4.56 0.722 0.474 1.44 0.949 2.19 1.44v2c2.97 0.99 2.97 0.99 6 2v2c0.969 0.0206 1.94 0.0412 2.94 0.0625 3.69 0.491 5.67 2.01 8.5 4.38 4.19 3.5 7.22 4.64 12.6 5.56 0.99 0.33 1.98 0.66 3 1v2c0.99 0.33 1.98 0.66 3 1v2c2.31 0.33 4.62 0.66 7 1v3c0.784-0.0825 1.57-0.165 2.38-0.25 5 0.345 9.08 2.24 13.6 4.25v2h2v3h2v2c0.592 0.0374 1.18 0.0748 1.79 0.113 4.81 0.4 8.22 0.925 12.2 3.89 0.66-1.65 1.32-3.3 2-5-0.598-0.0412-1.2-0.0825-1.81-0.125-3.27-1.31-3.71-3.79-5.19-6.88-0.99-0.33-1.98-0.66-3-1-0.957-1.89-0.957-1.89-1.81-4.25-1.93-4.72-4.16-6.73-8.19-9.75v-2c-0.562-0.268-1.12-0.536-1.7-0.812-2.45-1.27-4.74-2.68-7.05-4.19-1.2-0.773-1.2-0.773-2.42-1.56-0.603-0.474-1.21-0.949-1.83-1.44v-2h-3c-1.35-1.99-2.68-3.99-4-6-0.908-0.66-1.82-1.32-2.75-2-2.25-2-2.25-2-2.56-5.25 0.155-1.36 0.155-1.36 0.312-2.75 0.424 0.398 0.848 0.797 1.29 1.21 3.02 2.73 5.71 4.99 9.53 6.48 3.19 1.31 3.19 1.31 5.19 4.31 0.33 0.33 0.66 0.66 1 1 1.91-0.102 1.91-0.102 4.06-0.438 1.3-0.186 2.6-0.371 3.94-0.562v2c-0.99 0.33-1.98 0.66-3 1v2h-3c4.27 2.95 4.27 2.95 9 5v4c0.99-0.33 1.98-0.66 3-1 0.227 0.722 0.454 1.44 0.688 2.19 1.56 3.34 3.69 5.25 6.31 7.81 0.33 0.99 0.66 1.98 1 3 0.99-0.33 1.98-0.66 3-1 0.33 1.32 0.66 2.64 1 4h3c0.99 0.66 1.98 1.32 3 2v2h-3c0.99 0.66 1.98 1.32 3 2 1.49-0.495 1.49-0.495 3-1v2c0.99 0.33 1.98 0.66 3 1 1.39 1.49 1.39 1.49 2.69 3.31 0.437 0.594 0.874 1.19 1.32 1.8 0.988 1.89 0.988 1.89 0.988 5.89h2v10l-2 1c-0.33 0.99-0.66 1.98-1 3-5.1 0.373-8.41-0.835-13-3-0.99-0.33-1.98-0.66-3-1v-3c-0.987-0.0258-1.97-0.0516-2.99-0.0781-1.28-0.0567-2.56-0.113-3.88-0.172-1.28-0.0464-2.55-0.0928-3.87-0.141-3.26-0.609-3.26-0.609-4.7-2.66-0.183-0.645-0.366-1.29-0.555-1.95h-5v-2c-1.32-0.33-2.64-0.66-4-1v-3h-3c-0.33-0.99-0.66-1.98-1-3-4.42-2.95-7.69-4.28-13-5v-3h-2v-3c-0.687 0.0954-1.37 0.191-2.08 0.289-0.901 0.111-1.8 0.222-2.73 0.336-1.34 0.174-1.34 0.174-2.71 0.352-2.48 0.0234-2.48 0.0234-5.48-1.98-0.825 0.0412-1.65 0.0825-2.5 0.125-2.5-0.125-2.5-0.125-4.31-2.12-0.392-0.66-0.784-1.32-1.19-2 0.66-0.66 1.32-1.32 2-2v-2c-0.626-0.0258-1.25-0.0516-1.9-0.0781-1.23-0.0851-1.23-0.0851-2.48-0.172-0.812-0.0464-1.62-0.0928-2.46-0.141-2.16-0.609-2.16-0.609-3.33-2.62-0.276-0.655-0.552-1.31-0.836-1.98-0.66-0.165-1.32-0.33-2-0.5-0.66-0.165-1.32-0.33-2-0.5-0.371-0.928-0.371-0.928-0.75-1.88-2.04-3.48-5.49-4.1-9.25-5.12-2.34-0.457-4.62-0.752-7-1v-2c-0.722-0.0619-1.44-0.124-2.19-0.188-3.7-1.07-5.34-2.92-7.81-5.81v-2c-1.05-0.103-2.1-0.206-3.19-0.312-3.78-0.682-5.64-1.65-8.81-3.69-1.98-0.711-3.98-1.39-6-2v-2h-2v-2c-0.763-0.144-1.53-0.289-2.31-0.438-2.69-0.562-2.69-0.562-5.69-1.56v-2c-1.65-0.33-3.3-0.66-5-1v-3c-0.721-0.135-1.44-0.271-2.18-0.41-2.68-0.561-5.26-1.25-7.88-2.03-0.837-0.246-1.67-0.492-2.54-0.746-2.26-0.769-4.3-1.69-6.4-2.82v-2c-1.52-0.417-3.04-0.834-4.56-1.25-0.989-0.272-1.98-0.544-3-0.824-2.49-0.669-4.98-1.32-7.48-1.95-0.678-0.173-1.36-0.346-2.05-0.524-1.35-0.343-2.7-0.68-4.05-1.01-1.64-0.421-3.25-0.927-4.86-1.45-0.33-0.66-0.66-1.32-1-2-2.26-0.845-4.55-1.47-6.87-2.12-2.13-0.879-2.13-0.879-4.13-3.88-1.98-1.12-4.01-2.15-6.06-3.12-5.87-2.8-5.87-2.8-6.94-3.88-0.133 0.626-0.266 1.25-0.402 1.9-0.177 0.817-0.353 1.63-0.535 2.48-0.174 0.812-0.348 1.62-0.527 2.46-0.535 2.16-0.535 2.16-1.54 4.16h-3v2c-6.62 1.12-6.62 1.12-10 0v-4h-6v-2c-1.49-0.495-1.49-0.495-3-1-0.66-0.33-1.32-0.66-2-1-2.1 0.399-2.1 0.399-4 1-0.33-0.99-0.66-1.98-1-3-0.66-0.33-1.32-0.66-2-1v-3h-2v-2c-2.64-0.66-5.28-1.32-8-2 0.33-2.64 0.66-5.28 1-8-3.61 2.4-3.85 3.95-5 8h-1c-0.0271-1.6-0.0464-3.21-0.0625-4.81-0.0116-0.893-0.0232-1.79-0.0352-2.71 0.0977-2.48 0.0977-2.48 1.1-5.48 1.65-0.33 3.3-0.66 5-1v2h-2v2c2.97 0.33 5.94 0.66 9 1 1.12 5.62 1.12 5.62 0 9 0.66 0.33 1.32 0.66 2 1-0.0619-0.949-0.124-1.9-0.188-2.88 0.0619-1.03 0.124-2.06 0.188-3.12 0.99-0.66 1.98-1.32 3-2v7c0.66 0.33 1.32 0.66 2 1v-5c0.99 0.33 1.98 0.66 3 1 0.33-0.66 0.66-1.32 1-2v3c1.79-0.0309 1.79-0.0309 3.62-0.0625 3.56-0.00633 6.88 0.364 10.4 1.06-0.33-1.65-0.66-3.3-1-5h-3v-2c-0.639-0.248-1.28-0.495-1.94-0.75-2.06-1.25-2.06-1.25-2.81-3.19-0.25-2.06-0.25-2.06-0.25-5.06-1.66-2.1-3.31-3.19-5.62-4.56-2.38-1.44-2.38-1.44-3.38-3.44z" fill="#05C074"/>
<path transform="translate(1143 760)" d="m0 0c7.92 6.51 11.6 14.6 13 24.6 0.212 4.25 0.185 8.5 0.188 12.8 0.0122 1.13 0.0245 2.26 0.0371 3.42 0.0208 12-1.21 21.6-9.47 30.6-6.65 6.19-13.5 6.82-22.3 6.81-8.51-0.321-15-3.67-20.9-9.81-7.05-9.13-7.82-19.6-7.94-30.6-0.0374-1.26-0.0748-2.52-0.113-3.82-0.0983-10.6 1.92-21.8 9.55-29.8 11-8.49 25.6-12 37.9-4.14z" fill="#FBFDFD"/>
<path transform="translate(1006 604)" d="m0 0c6.8 4.02 12.8 12.6 15.1 20.1 0.301 1.86 0.301 1.86 0.5 4.19 0.117 1.16 0.235 2.32 0.355 3.52 1.3 14.7 2.24 31.7-7.63 43.7-5.16 5.24-11.4 8.3-18.7 8.75-9.97-0.241-17.7-1.91-25-9-8.45-9.38-9.25-20.5-9.38-32.6-0.014-0.957-0.028-1.91-0.0425-2.9 0.0781-11.7 2.94-21.7 11.1-30.3 9.07-8.29 22.3-10.2 33.7-5.53z" fill="#FBFDFD"/>
<path transform="translate(1162,343)" d="m0 0c2.12 1.81 2.12 1.81 4 4 1.48 0.848 2.98 1.66 4.5 2.44 3.02 1.59 4.34 2.33 6.31 5.19 3.21 3.48 6.86 3.78 11.4 4.7 2.78 0.676 2.78 0.676 5.78 2.68v2h2c0.495 1.49 0.495 1.49 1 3 0.99 0.33 1.98 0.66 3 1v-5c0.99 0.66 1.98 1.32 3 2v3h2v2h8v2c-2.97 0.33-5.94 0.66-9 1v1c0.626 0.0374 1.25 0.0748 1.9 0.113 0.817 0.0657 1.63 0.131 2.48 0.199 1.22 0.087 1.22 0.087 2.46 0.176 2.16 0.512 2.16 0.512 4.16 3.51h3c2.69 2.5 2.69 2.5 5 5h-2c0.786 1.32 1.58 2.63 2.38 3.94 0.661 1.1 0.661 1.1 1.34 2.21 1.17 1.99 1.17 1.99 3.29 2.85-0.495-1.98-0.495-1.98-1-4 2 0 2 0 3.62 1.56 1.38 2.44 1.38 2.44 1.31 6 0.0206 1.13 0.0412 2.27 0.0625 3.44 0.639 0.454 1.28 0.908 1.94 1.38 2.06 1.62 2.06 1.62 2.48 3.62 0.139 1.6 0.264 3.19 0.375 4.79 0.252 2.69 1.06 4.78 2.21 7.21 1.66 3.94 2.86 7.88 4 12 0.371 1.03 0.743 2.06 1.12 3.12 1.41 6.24 2.52 13.8-0.57 19.6-0.77 1.13-0.77 1.13-1.55 2.28-0.698 1.65-1.37 3.32-2 5l-4-2c-0.33 0.66-0.66 1.32-1 2-3.57 2.47-6.76 2.42-11 2-3.1-1.14-6.05-2.5-9-4v-2h-2v-2h-2v-2c-0.557-0.0825-1.11-0.165-1.69-0.25-3.01-0.976-4.93-2.7-7.31-4.75 0.33-0.66 0.66-1.32 1-2h3c-0.33-0.66-0.66-1.32-1-2 1.65 0.66 3.3 1.32 5 2 0.11-1.18 0.11-1.18-1.21-2.38-4.73-4.46-8.34-5.64-14.8-5.62-1.61 0.0928-1.61 0.0928-3.25 0.188-3.69-0.251-5.1-1.68-7.75-4.19-0.619-0.474-1.24-0.949-1.88-1.44-1.12-1.56-1.12-1.56-0.812-4.25 0.227-0.763 0.454-1.53 0.688-2.31h-3v-2c0.99-0.33 1.98-0.66 3-1v-2h-3v-4c-0.578-0.206-1.15-0.413-1.75-0.625-3.91-2.39-5.86-5.87-7-10.2-0.124-1.05-0.124-1.05-0.25-2.12 1.44-0.0542 2.87-0.0929 4.31-0.125 0.801-0.0232 1.6-0.0464 2.43-0.0703 2.26 0.195 2.26 0.195 5.26 2.2 0.495 2.97 0.495 2.97 1 6 6.93 0.495 6.93 0.495 14 1 0.495 3.47 0.495 3.47 1 7-0.99 0.495-0.99 0.495-2 1 0.887 0.557 1.77 1.11 2.69 1.69 3.16 2.09 5.67 4.6 8.31 7.31 0.66 0.33 1.32 0.66 2 1 0.534 3.37 1 6.6 1 10h3c0.33 1.32 0.66 2.64 1 4h3v3h14v-19h-2c0.0928-1.24 0.0928-1.24 0.188-2.5-0.232-4.33-1.47-7.56-3.19-11.5-0.302-0.732-0.603-1.46-0.914-2.22-0.915-2.05-1.8-3.93-3.09-5.78-1.27-0.433-1.27-0.433-2.56-0.875-2.44-1.12-2.44-1.12-3.39-3.38-0.75-2.57-1.4-5.15-2.05-7.74-0.33-0.66-0.66-1.32-1-2 0.495-0.99 0.495-0.99 1-2-0.928-0.206-1.86-0.413-2.81-0.625-4.06-1.75-4.35-3.47-6.19-7.38-1.64-1.04-3.31-2.05-5-3-1.74-2.64-2-3.78-2-7-0.629 0.0954-1.26 0.191-1.91 0.289-5.95 0.77-10.4 0.738-16.1-1.29-0.66-0.99-1.32-1.98-2-3-0.626 0.0954-1.25 0.191-1.9 0.289-0.817 0.111-1.63 0.222-2.48 0.336-1.22 0.174-1.22 0.174-2.46 0.352-0.714 0.00773-1.43 0.0155-2.16 0.0234-0.66-0.66-1.32-1.32-2-2-3.1 0.322-3.1 0.322-6 1 0.256 1.61 0.531 3.21 0.812 4.81 0.151 0.893 0.302 1.79 0.457 2.71 0.8 2.72 1.67 3.62 3.73 5.48 1.41 3.61 2.33 7.19 3 11-1.32-0.33-2.64-0.66-4-1-0.33-2.64-0.66-5.28-1-8-0.99 0.495-0.99 0.495-2 1-0.656 2.53-0.656 2.53-1 5-2-3-2-3-2-6h-2c-1.35-1.99-2.69-3.99-4-6-0.66-0.33-1.32-0.66-2-1-0.633-2.07-0.633-2.07-1.12-4.56-0.168-0.826-0.335-1.65-0.508-2.5-0.121-0.638-0.242-1.28-0.367-1.93-0.616-0.13-1.23-0.26-1.87-0.395-2.99-0.848-4.19-2.21-6.13-4.61-2.48-5.21-2.2-10.4-2-16 1.22-0.124 2.43-0.248 3.69-0.375 2.55-0.259 4.38-0.653 6.73-1.7 4.58-1.64 9.03-0.306 13.6 1.08z" fill="#05C074"/>
<path transform="translate(482,1077)" d="m0 0c3.44 1.5 3.44 1.5 6 3v3c0.66 0.33 1.32 0.66 2 1 1.67 1.67 3.33 3.33 5 5 2.6 2.17 5.18 4.12 8 6-0.99 0.33-1.98 0.66-3 1 0.736 0.375 1.47 0.75 2.23 1.14 8.95 4.7 8.95 4.7 11.8 7.74 0.66 0.701 1.32 1.4 2 2.12h3c2.69 2.5 2.69 2.5 5 5 0.66-0.33 1.32-0.66 2-1v2c1.09 0.247 2.19 0.495 3.31 0.75 3.97 1.35 4.4 2.03 6.69 5.25 2.6 0.804 2.6 0.804 5 1v2c0.99-0.33 1.98-0.66 3-1 1.49 0.99 1.49 0.99 3 2v4c-0.577-0.309-1.15-0.619-1.75-0.938-2.14-1.12-2.14-1.12-4.19-1.44-2.06-0.625-2.06-0.625-4.26-2.44-3.1-2.41-6.21-4.03-9.74-5.75-1.18-0.579-2.37-1.16-3.59-1.75-2.26-1.09-4.52-2.18-6.79-3.25-2.68-1.44-2.68-1.44-4.62-3.88-3.86-4.79-8.04-6.64-14-7.31-1.35-0.0994-2.71-0.189-4.06-0.25 3.14 11.8 3.14 11.8 9 22 0.0409 2.33 0.0424 4.67 0 7h2v2h4v5c0.763 0.289 1.53 0.578 2.31 0.875 5.28 2.21 5.28 2.21 6.57 5.11 0.226 0.767 0.451 1.53 0.684 2.32 0.249 0.802 0.498 1.6 0.754 2.43 0.226 0.745 0.451 1.49 0.684 2.26 1.41 4.27 1.41 4.27 5 7v2c1.32 0.66 2.64 1.32 4 2v2h2v2h3v2h2c0.33 0.99 0.66 1.98 1 3 1.66 1.01 3.33 2.01 5 3v2c0.726 0.112 1.45 0.224 2.2 0.34 2.93 0.69 5.02 1.72 7.61 3.22 0.79 0.455 1.58 0.91 2.39 1.38 0.592 0.349 1.18 0.699 1.79 1.06v3c0.949-0.0825 1.9-0.165 2.88-0.25 7.67 0.0155 17.2 4.57 23.1 9.25 0.746 2.16 0.746 2.16 1 4 0.566 0.131 1.13 0.263 1.71 0.398 7.75 2.04 14.2 5.63 20.8 10.1 2.26 1.38 3.91 1.91 6.45 2.49 2.25 1.94 2.25 1.94 4 4v2c-0.66 0.66-1.32 1.32-2 2 0.66 0.33 1.32 0.66 2 1v2c-0.99 0.33-1.98 0.66-3 1l-1-2c-0.928 0.33-1.86 0.66-2.81 1-3.12 0.496-4.17 0.00885-6.93-1.68-1.9-1.44-3.77-2.92-5.61-4.44-2.68-1.91-4.42-2.52-7.65-2.88v-2c-4.52-2.04-9.16-3.01-14-4 0.99-0.66 1.98-1.32 3-2-1.64-0.186-1.64-0.186-3.31-0.375-3.69-0.625-3.69-0.625-6.69-2.62v-2h-3v-2c-5.94-1.32-11.9-2.64-18-4v-2c-5.44-0.495-5.44-0.495-11-1l-1 2h-4c0.375-1.94 0.375-1.94 1-4 0.66-0.33 1.32-0.66 2-1v-3c-1.32-0.66-2.64-1.32-4-2v-2c-1.32-0.66-2.64-1.32-4-2v-2c-1.65-0.33-3.3-0.66-5-1v-2c-2.31-0.66-4.62-1.32-7-2v-4h-2c-2.12-1.75-2.12-1.75-4-4v-4c-0.99-0.33-1.98-0.66-3-1-1.61-2.58-1.61-2.58-3.19-5.81-0.53-1.06-1.06-2.12-1.61-3.21-1.21-2.98-1.21-2.98-1.21-6.98-1.49-0.495-1.49-0.495-3-1v-2c-1.65-0.66-3.3-1.32-5-2v-2h-3c-0.254-0.626-0.508-1.25-0.77-1.9-0.344-0.817-0.688-1.63-1.04-2.48-0.336-0.812-0.673-1.62-1.02-2.46-1.11-2.47-1.11-2.47-4.17-4.16v-2h-2c-0.289-0.949-0.577-1.9-0.875-2.88-0.893-3.18-0.893-3.18-3.12-5.12h2v-3h-2v-2h3c-0.495-0.454-0.99-0.908-1.5-1.38-1.5-1.62-1.5-1.62-1.5-3.62h2c-0.186-0.763-0.371-1.53-0.562-2.31-0.438-2.69-0.438-2.69 0.562-5.69-0.66-0.33-1.32-0.66-2-1-1.62-1.12-1.62-1.12-3-3-0.25-3.62-0.25-3.62 0-7 0.33-0.33 0.66-0.66 1-1-0.409-2.05-0.409-2.05-1-4 3.74-2.49 5.56-2.38 10-2z" fill="#05C074"/>
<path transform="translate(404,1126)" d="m0 0c9.61 2.22 9.61 2.22 13 7 2.24 0.822 4.24 1.02 6.62 1.25 0.784 0.247 1.57 0.495 2.38 0.75 0.309 0.784 0.619 1.57 0.938 2.38 1.48 3.67 3.53 4 7.06 5.62 3.26 2.29 5.7 4.1 7 8-0.276 2.01-0.602 4.01-1 6h6v2h2v-2h3v2c1.98 0.495 1.98 0.495 4 1v8h3c3.13 6.26 2.1 15.2 2 22h-19c-0.33-0.66-0.66-1.32-1-2h6v-3c-0.785 0.0116-1.57 0.0232-2.38 0.0352-5.66 0.0486-11-0.0222-16.6-1.04v-2c-1.32-0.33-2.64-0.66-4-1v-2h-3v-2h-2v-2h-2l-1-4c-4.99-1.6-4.99-1.6-10.2-1.88-2.81-0.125-2.81-0.125-5.12-1.69-2.59-3.74-3.05-7.42-2.25-11.9 0.186-0.516 0.371-1.03 0.562-1.56-4.1-1.02-4.1-1.02-8 0v-3h-2c-0.33 0.99-0.66 1.98-1 3-0.66-0.33-1.32-0.66-2-1v-2h-2c-2.48-3.72-2.44-6.7-2-11 1-3 1-3 2-5 1.07-0.0735 1.07-0.0735 2.15-0.148 1.38-0.112 1.38-0.112 2.79-0.227 0.917-0.0696 1.83-0.139 2.78-0.211 1.13-0.205 1.13-0.205 2.29-0.414 0.33-0.66 0.66-1.32 1-2-1.32-0.66-2.64-1.32-4-2 3.21-1.91 5.54-2.22 9.25-2.12 0.892 0.018 1.78 0.0361 2.7 0.0547 1.01 0.0348 1.01 0.0348 2.05 0.0703v-2z" fill="#05C074"/>
<path transform="translate(847,135)" d="m0 0h11c0.33 0.99 0.66 1.98 1 3h8c0.33 0.66 0.66 1.32 1 2 0.99 0.33 1.98 0.66 3 1 0.495 0.99 0.495 0.99 1 2 0.66-0.33 1.32-0.66 2-1 2-0.04 4-0.0435 6 0v2c2.48 0.99 2.48 0.99 5 2v-2c2.48 0.99 2.48 0.99 5 2v-2c1.98-0.33 3.96-0.66 6-1v11h-2v5h-7c-0.0271 1.44-0.0465 2.87-0.0625 4.31-0.0116 0.801-0.0232 1.6-0.0352 2.43 0.00108 2.43 0.00108 2.43 1.1 5.26h3c4 6.5 4 6.5 4 11 0.763-0.0825 1.53-0.165 2.31-0.25 2.69 0.25 2.69 0.25 4.5 2.25 0.392 0.66 0.784 1.32 1.19 2-2.52 1.26-4.31 1.1-7.12 1.06-0.91-0.00902-1.82-0.018-2.76-0.0273-0.699-0.0116-1.4-0.0232-2.12-0.0352l-1 2c-1.38-1.29-2.71-2.63-4-4v-2c-3.96-0.33-7.92-0.66-12-1v2c-2.31 0.66-4.62 1.32-7 2 1.49 0.495 1.49 0.495 3 1v2c-1.98 0.495-1.98 0.495-4 1-0.33-0.99-0.66-1.98-1-3-1.49-0.495-1.49-0.495-3-1-0.66 0.99-1.32 1.98-2 3v-2c-3.73-0.575-7.21-1-11-1v-2c-2.64-0.66-5.28-1.32-8-2-0.464-1.67-0.464-1.67-0.938-3.38-0.886-3.42-0.886-3.42-2.06-5.62h2c0.124-1.26 0.247-2.52 0.375-3.81 0.324-3.29 0.691-4.29 2.62-7.19-2.48-0.99-2.48-0.99-5-2 0.165-0.619 0.33-1.24 0.5-1.88 0.622-2.64 0.725-3.67-0.5-6.12 0.279-1.68 0.623-3.34 1-5 0.339-2 0.674-4 1-6 0.969-0.248 1.94-0.495 2.94-0.75 1.52-0.619 1.52-0.619 3.06-1.25 0.33-1.32 0.66-2.64 1-4z" fill="#05C074"/>
<path transform="translate(973,124)" d="m0 0c0.795 0.161 1.59 0.322 2.41 0.488 10.4 2.22 20.5 6.15 30.6 9.51v2c13.9 3.28 13.9 3.28 28 5v2l5.96 0.586c3.28 0.665 5.07 2.44 7.36 4.79 2.77 2.7 5.43 4.58 8.69 6.62l-2 2c-4.2-0.35-8.96-1.96-12-5-1.62-0.235-3.25-0.414-4.88-0.562-0.884-0.0838-1.77-0.168-2.68-0.254-2.54-0.221-2.54-0.221-5.45-0.184-1.48-0.495-1.48-0.495-3-1-0.495 0.495-0.495 0.495-1 1-2.35 0.0727-4.71 0.0837-7.06 0.0625-1.29-0.00902-2.58-0.018-3.91-0.0273-0.999-0.0116-2-0.0232-3.03-0.0352v-2c-3.63-0.66-7.26-1.32-11-2v-3c-1.98-0.33-3.96-0.66-6-1-0.495 1.49-0.495 1.49-1 3-0.66-0.33-1.32-0.66-2-1v-2h-2v3h-2v2h2v3h-2v6c2.97 0.33 5.94 0.66 9 1v3c0.351 1.16 0.701 2.31 1.06 3.5 0.938 3.5 0.938 3.5-0.0625 6.5h2v2h-5c0.99 0.619 1.98 1.24 3 1.88 1.49 1.05 1.49 1.05 3 2.12v2l2 1c-3.08-0.677-5.8-1.74-8.69-3-4.84-1.99-9.1-2.66-14.3-3v-2c-0.577-0.206-1.15-0.412-1.75-0.625-3.92-2.39-5.83-6.1-7.25-10.4h-2c-3.32-10.4-3.32-10.4-1-15-1.98-0.66-3.96-1.32-6-2v-2c0.763 0.186 1.53 0.371 2.31 0.562 2.78 0.666 2.78 0.666 5.69-0.562 0.99 0.33 1.98 0.66 3 1v-2c-0.969-0.248-1.94-0.495-2.94-0.75-1.01-0.412-2.02-0.825-3.06-1.25-0.875-2.12-0.875-2.12-1-4h-5c0.33-1.32 0.66-2.64 1-4l4 1v-2h-5v-4c4.12-3.74 7.91-3.06 13-2z" fill="#05C175"/>
<path transform="translate(925,110)" d="m0 0c1.22 0.474 2.43 0.949 3.69 1.44 3.31 1.56 3.31 1.56 5.31 4.56 2.82 0.548 2.82 0.548 6 0.625 5.84 0.295 5.84 0.295 8 1.38v12h-2v2h-4c-1.02 0.979-2.02 1.98-3 3-2.19 0.688-2.19 0.688-4 1v2c-1.65 0.33-3.3 0.66-5 1-0.049 0.869-0.098 1.74-0.148 2.63-0.0748 1.15-0.15 2.3-0.227 3.49-0.0696 1.14-0.139 2.27-0.211 3.45-0.409 3.38-1.22 6.25-2.41 9.43h-7v16h-2v2h-3v2c-3.41 3.7-6.81 6.69-12 7v-4c1.45-0.402 1.45-0.402 2.94-0.812 1.52-0.588 1.52-0.588 3.06-1.19 0.33-0.99 0.66-1.98 1-3h3v-3c0.99-0.66 1.98-1.32 3-2-0.33-1.65-0.66-3.3-1-5-1.65-0.33-3.3-0.66-5-1-0.66-3.3-1.32-6.6-2-10-1.98-0.66-3.96-1.32-6-2 0.688-1.94 0.688-1.94 2-4 2.62-0.75 2.62-0.75 5-1v-4c-0.66-0.33-1.32-0.66-2-1h2v-4c-0.99 0.33-1.98 0.66-3 1 0.307-0.51 0.614-1.02 0.93-1.55 1.4-3.2 1.75-6.24 2.2-9.7 0.251-1.89 0.251-1.89 0.508-3.83 0.121-0.964 0.242-1.93 0.367-2.92h-4c0.33 2.31 0.66 4.62 1 7h-2c-0.33-4.62-0.66-9.24-1-14l6.15-2.15c2.03-0.704 2.03-0.704 2.85-2.85 4.84-1.86 7.4-2.42 12 0z" fill="#05C074"/>
<path transform="translate(530,1218)" d="m0 0c9.26-0.636 9.26-0.636 12.2 1.88 0.897 1.05 0.897 1.05 1.81 2.12 3.64 1.28 3.64 1.28 7 2v2c0.577 0.0825 1.15 0.165 1.75 0.25 2.25 0.75 2.25 0.75 4 2.75 3.27 2.91 5.93 2.71 10.2 3v2c1.98 0.66 3.96 1.32 6 2v3c2.31 0.66 4.62 1.32 7 2-0.99 0.33-1.98 0.66-3 1v4c0.99 0.33 1.98 0.66 3 1h-3c-0.00258 1.02-0.00516 2.05-0.00781 3.11-0.218 10.4-0.218 10.4-2.11 14-2.65 2.44-5.46 3.19-8.94 3.39-4.02-0.51-5.68-1.24-8.94-3.5-1.24-0.519-2.49-1.02-3.75-1.5-1.07-0.495-2.14-0.99-3.25-1.5-0.33-0.99-0.66-1.98-1-3-2.02-1.21-2.02-1.21-4.44-2.12-0.803-0.333-1.61-0.665-2.43-1.01-1.05-0.429-1.05-0.429-2.13-0.867-0.66-0.33-1.32-0.66-2-1v-2h-2c-2.12-1.88-2.12-1.88-4-4v-2c1.32 0.33 2.64 0.66 4 1-0.351-0.743-0.701-1.48-1.06-2.25-0.983-2.88-0.97-3.96 0.0625-6.75-0.99-0.33-1.98-0.66-3-1-0.33-0.99-0.66-1.98-1-3h-2c-0.33 1.32-0.66 2.64-1 4-0.33-0.33-0.66-0.66-1-1 0.0379-1.82 0.155-3.63 0.312-5.44 0.0786-0.989 0.157-1.98 0.238-3 0.449-2.57 0.449-2.57 2.45-4.57 2.69-0.27 5.29-0.0874 8 0v-2c-0.949 0.0206-1.9 0.0412-2.88 0.0625-3.12-0.0625-3.12-0.0625-5.12-1.06v-2z" fill="#05C074"/>
<path transform="translate(1019,1136)" d="m0 0c-2 2-2 2-5 3l-1 2c0.99 0.33 1.98 0.66 3 1v2c-0.518 0.216-1.04 0.432-1.57 0.655-2.42 1.01-4.83 2.02-7.24 3.03-0.875 0.366-1.75 0.732-2.65 1.11-4.48 1.88-8.91 3.83-13.3 5.95-5.41 2.54-11.1 3.8-16.9 5.06-3.92 1.38-5.62 3.15-8.38 6.19-2.27 1.53-4.57 2.72-7 4 0.66 0.99 1.32 1.98 2 3-5.75 4-5.75 4-8 4v2c-4.34 3.35-8.73 5.21-13.9 7-6.34 2.27-6.34 2.27-12.4 5.25-4.89 2.61-10.3 2.98-15.8 3.75-8.15 1.34-15.6 4.31-23 8-2.76 0.276-5.51 0.446-8.27 0.621-2.67 0.371-4.42 1.03-6.73 2.38l-1-2-4 2v-3c0.969-0.289 1.94-0.578 2.94-0.875 3.17-0.767 3.17-0.767 4.06-3.12-3.61 0.656-3.61 0.656-7 2 0.33-1.32 0.66-2.64 1-4 1.14-0.155 1.14-0.155 2.31-0.312 2.69-0.43 2.69-0.43 4.03-2.14 2.16-2.02 3.97-2.33 6.84-2.98 3.61-0.897 6.69-1.88 9.94-3.69 4.16-2.26 8.2-2.66 12.9-2.88v3c0.99-0.33 1.98-0.66 3-1 0.33 0.66 0.66 1.32 1 2-2.48 0.495-2.48 0.495-5 1 0.66 0.66 1.32 1.32 2 2 3.31-0.236 3.31-0.236 7-1.06 1.26-0.238 2.52-0.477 3.81-0.723 3.37-0.878 3.37-0.878 4.48-3.75 0.232-0.812 0.464-1.62 0.703-2.46 3.65-2.13 6.84-2.19 11-2v-2c-0.99-0.495-0.99-0.495-2-1 3.82-1.42 6.91-2.24 11-2v-2c1.86-1.47 1.86-1.47 4.31-3.06 0.801-0.527 1.6-1.05 2.43-1.6 2.26-1.34 2.26-1.34 5.26-2.34 0.451-0.934 0.451-0.934 0.91-1.89 1.4-2.71 2.87-3.48 5.53-4.93 0.782-0.44 1.56-0.879 2.37-1.33 2.19-0.855 2.19-0.855 5.19 0.145 0.33-0.66 0.66-1.32 1-2h5c0.33-0.66 0.66-1.32 1-2-0.33-0.33-0.66-0.66-1-1-0.683-1.33-1.35-2.66-2-4 1.32-0.33 2.64-0.66 4-1 0.495 0.99 0.495 0.99 1 2 3.5-1.37 6.91-2.86 10.3-4.44 3.34-1.54 6.66-2.96 10.1-4.19 3.43-1.13 3.43-1.13 5.44-2.82 2.46-1.8 4.82-2.76 7.69-3.8 0.95-0.356 1.9-0.712 2.88-1.08 2.56-0.672 2.56-0.672 5.56 0.328z" fill="#05C074"/>
<path transform="translate(1085,1086)" d="m0 0c-0.99 1.32-1.98 2.64-3 4 2.64 0.33 5.28 0.66 8 1-3.08 3.67-5.25 4.57-10 5-0.33 1.32-0.66 2.64-1 4h2v2c1.32-0.99 2.64-1.98 4-3 0.66 0.33 1.32 0.66 2 1-1.62 2.04-3.29 4.04-5 6h-2c-0.247 0.578-0.495 1.15-0.75 1.75-1.44 2.6-2.99 4.33-5.25 6.25h-3v2c-0.763 0.247-1.53 0.495-2.31 0.75-2.75 0.997-2.75 0.997-3.94 3.12-2.28 2.77-4.59 3.5-7.86 4.85-3.71 1.64-7.25 3.54-10.8 5.46-0.663 0.357-1.33 0.715-2.01 1.08-1.68 0.91-3.37 1.82-5.05 2.73-0.99 0.495-0.99 0.495-2 1v-2c-1.65 0.66-3.3 1.32-5 2 1.98-2.47 1.98-2.47 4-5-2.47 0.495-2.47 0.495-5 1 0.33-1.65 0.66-3.3 1-5h2c0.186-0.598 0.371-1.2 0.562-1.81 2.09-3.19 4.99-3.75 8.44-5.19 0.33-0.99 0.66-1.98 1-3 2.07-0.73 2.07-0.73 4.56-1.19 0.826-0.159 1.65-0.317 2.5-0.48 0.638-0.11 1.28-0.219 1.93-0.332v-2h2v-3c1.42-0.0928 1.42-0.0928 2.88-0.188 1.03-0.268 2.06-0.536 3.12-0.812 1.26-2.36 1.26-2.36 2-5 1.56-1.69 1.56-1.69 3-3 0.33-0.66 0.66-1.32 1-2h2v-3c0.639-0.268 1.28-0.536 1.94-0.812 2.39-1.07 2.39-1.07 3.06-4.19 3.24-4.36 5.74-4.4 11-4zm-2 11c0.33 0.66 0.66 1.32 1 2-0.66-0.33-1.32-0.66-2-1 0.33-0.33 0.66-0.66 1-1z" fill="#05C074"/>
<path transform="translate(653 1261)" d="m0 0c1.58 0.00193 1.58 0.00193 3.2 0.00391 1.33 0.215 1.33 0.215 2.68 0.434 0.66 0.99 1.32 1.98 2 3h4c-0.156 0.566-0.312 1.13-0.473 1.71-0.195 0.733-0.389 1.47-0.59 2.22-0.197 0.731-0.394 1.46-0.598 2.21-0.112 0.61-0.224 1.22-0.34 1.85 0.33 0.33 0.66 0.66 1 1 0.0721 1.69 0.0839 3.38 0.0625 5.06-0.00902 0.919-0.018 1.84-0.0273 2.79-0.0116 0.71-0.0232 1.42-0.0352 2.15-1.9 0.0816-3.79 0.139-5.69 0.188-1.58 0.0522-1.58 0.0522-3.2 0.105-3.56-0.335-5.3-1.1-8.11-3.29-2.94-4.42-4.99-9.69-4-15 3.05-3.97 5.2-4.53 10.1-4.44z" fill="#05C175"/>
<path transform="translate(1326,613)" d="m0 0h1v7c0.99 0.33 1.98 0.66 3 1 0.66 3.3 1.32 6.6 2 10 0.99 0.33 1.98 0.66 3 1 1.12 7.62 1.12 7.62 0 11v3h-3v2c-1.69 2.19-1.69 2.19-4 4-2.5-0.312-2.5-0.312-5-1-2.23 0.369-2.23 0.369-4 1v-2h-3c0.33-0.99 0.66-1.98 1-3h1c0.99-3.47 0.99-3.47 2-7 1.32 0.33 2.64 0.66 4 1-0.33-1.65-0.66-3.3-1-5h2c-0.00524-0.661-0.0105-1.32-0.0159-2-0.0207-2.98-0.0338-5.96-0.0466-8.93-0.00838-1.04-0.0168-2.08-0.0254-3.15-0.00322-0.989-0.00645-1.98-0.00977-3-0.00524-0.916-0.0105-1.83-0.0159-2.78 0.114-2.13 0.114-2.13 1.11-3.13z" fill="#00C175"/>
<path transform="translate(1210,251)" d="m0 0c2.01 0.294 4.01 0.637 6 1 1.4 0.126 2.79 0.251 4.19 0.375 3.85 0.63 4.48 0.828 6.81 3.62 0.99 0.217 0.99 0.217 2 0.438 2.76 0.777 3.47 2.2 5 4.56 1.64 3.07 1.64 3.07 4 3.81 2.91 1.73 2.96 4.06 4 7.19 1.33 0.671 2.66 1.34 4 2 3.03 3.54 4.9 6.84 5.31 11.5-0.103 0.825-0.206 1.65-0.312 2.5-1.5-1.38-1.5-1.38-3-3v-2c-0.99-0.33-1.98-0.66-3-1v-2h-2v-2h-2c-1.24-1.5-2.48-3.01-3.69-4.53-1.56-1.76-3.11-2.65-5.31-3.47 0.33-0.66 0.66-1.32 1-2h-4v-2c-2.97-0.495-2.97-0.495-6-1-0.33-2.64-0.66-5.28-1-8-3.3-0.99-6.6-1.98-10-3-0.33 0.66-0.66 1.32-1 2-0.66-1.32-1.32-2.64-2-4 0.33-0.33 0.66-0.66 1-1z" fill="#05C074"/>
<path transform="translate(193,791)" d="m0 0c1.32 0.33 2.64 0.66 4 1-0.33 2.31-0.66 4.62-1 7h-2c0.33 2.64 0.66 5.28 1 8h-2c0.0206 1.13 0.0412 2.27 0.0625 3.44-0.0625 3.56-0.0625 3.56-1.06 4.56-0.237 2.69-0.422 5.36-0.562 8.06-0.0432 0.759-0.0864 1.52-0.131 2.3-0.106 1.88-0.207 3.76-0.307 5.64-0.66-0.33-1.32-0.66-2-1v-3h-2c-0.33 3.3-0.66 6.6-1 10h-1c-0.049-0.855-0.098-1.71-0.148-2.59-0.0748-1.1-0.15-2.21-0.227-3.35-0.0696-1.1-0.139-2.2-0.211-3.34-0.137-0.898-0.273-1.8-0.414-2.72-0.66-0.33-1.32-0.66-2-1 0.875-5.88 0.875-5.88 2-7 0.0619-1.18 0.124-2.35 0.188-3.56 0.389-3.65 1.4-5.51 3.75-8.31 3.61-4.34 4.41-8.61 5.06-14.1z" fill="#06C175"/>
<path transform="translate(1212,254)" d="m0 0c3.63 0.66 7.26 1.32 11 2-0.0206 1.24-0.0412 2.48-0.0625 3.75 0.148 2.23 0.148 2.23 1.06 4.25 2.26 1.46 4.41 2.28 6.97 3.11 0.67 0.293 1.34 0.585 2.03 0.887 0.33 0.99 0.66 1.98 1 3 2 1.21 2 1.21 4 2 0.22 3.86-0.396 6.49-2 10h-2c-1.33-2-2.67-4-4-6-1.32-1.02-2.65-2.02-4-3-0.33-0.99-0.66-1.98-1-3h-2c-0.33-1.32-0.66-2.64-1-4-0.557-0.0619-1.11-0.124-1.69-0.188-3.26-1.15-5-3.31-7.31-5.81 1.32 0.33 2.64 0.66 4 1-0.33-0.99-0.66-1.98-1-3h4c-0.33-0.33-0.66-0.66-1-1-4.65 0.448-4.65 0.448-9 2 0.506-2.17 1-4 2-6z" fill="#01C074"/>
<path transform="translate(1108 1083)" d="m0 0c0.702 0.00902 1.4 0.018 2.13 0.0273 1.73 0.0235 3.46 0.0594 5.19 0.0977v2h-8v2c-5.62 3-5.62 3-9 3v2c-1.98 1.36-3.98 2.69-6 4-0.516 0.536-1.03 1.07-1.56 1.62-2.61 2.49-6.07 3.25-9.44 4.38v-2h-2c0.0625-1.81 0.0625-1.81 1-4 1.13-0.474 2.27-0.949 3.44-1.44 1.18-0.516 2.35-1.03 3.56-1.56 0.309-0.825 0.619-1.65 0.938-2.5 1.06-2.5 1.06-2.5 2.84-3.42 1.4-0.501 2.82-0.972 4.25-1.41 8.47-2.9 8.47-2.9 12.7-2.8zm-24.7 14.1c-0.33 0.66-0.66 1.32-1 2h2c-0.33-0.66-0.66-1.32-1-2z" fill="#01C175"/>
<path transform="translate(1160,1058)" d="m0 0c2.31 0.33 4.62 0.66 7 1-0.0869 1.96-0.195 3.92-0.312 5.88-0.058 1.09-0.116 2.18-0.176 3.3-0.169 0.931-0.338 1.86-0.512 2.82-3.31 2.21-4.34 2.22-8.19 2.12-0.901-0.018-1.8-0.0361-2.73-0.0547-0.687-0.0232-1.37-0.0464-2.08-0.0703-0.0425-2-0.0408-4 0-6l1-1c-1.32-0.66-2.64-1.32-4-2 1-1 1-1 3.07-1.1 1.24 0.0174 1.24 0.0174 2.5 0.0352 0.826 0.00902 1.65 0.018 2.5 0.0273 0.638 0.0116 1.28 0.0232 1.93 0.0352v-5z" fill="#00C175"/>
<path transform="translate(1253,632)" d="m0 0c2 2 2 2 2 5 0.99 0.33 1.98 0.66 3 1v2c1.32 0.33 2.64 0.66 4 1-0.551 3.95-1.39 7.35-3 11h-2v3h2v-2c0.99 0.33 1.98 0.66 3 1h-2v2c-1.38 1.62-1.38 1.62-3 3h-2v2h-2c-0.818-9.81-1.09-19.2 0-29z" fill="#06C175"/>
<path transform="translate(547,1123)" d="m0 0c0.701 0.289 1.4 0.578 2.12 0.875 2.91 1.18 2.91 1.18 6.12 2.12 2.75 1 2.75 1 3.75 3 0.99-0.33 1.98-0.66 3-1v3h7c0.33 0.66 0.66 1.32 1 2-0.33 0.66-0.66 1.32-1 2 1.32 0.33 2.64 0.66 4 1-0.33 1.65-0.66 3.3-1 5 0.99 0.33 1.98 0.66 3 1-1.32 0.33-2.64 0.66-4 1v-2c-0.701-0.227-1.4-0.454-2.12-0.688-2.88-1.31-2.88-1.31-5.81-3.81-3.09-2.52-5.25-3.51-9.06-4.5-0.784-0.206-1.57-0.412-2.38-0.625-0.536-0.124-1.07-0.247-1.62-0.375v-2c-0.99-0.33-1.98-0.66-3-1-0.33-0.99-0.66-1.98-1-3 0.33-0.66 0.66-1.32 1-2z" fill="#02C175"/>
<path transform="translate(1292,659)" d="m0 0c0.33 0.99 0.66 1.98 1 3 1.98-0.348 1.98-0.348 4-1 0.33-0.66 0.66-1.32 1-2v3l2 1c-0.33 0.99-0.66 1.98-1 3 0.0862 2.23 0.239 4.46 0.438 6.69 0.102 1.18 0.204 2.36 0.309 3.57 0.0838 0.904 0.168 1.81 0.254 2.74-0.99-0.33-1.98-0.66-3-1-0.33-1.65-0.66-3.3-1-5-0.553 2.08-1 3.84-1 6-0.99-0.33-1.98-0.66-3-1-2.15-5.27-3.16-10.3-3-16 0.99-0.33 1.98-0.66 3-1v-2z" fill="#00BF73"/>
<path transform="translate(981,191)" d="m0 0c0.879 3.73 1.09 7.17 1 11-0.949 0.248-1.9 0.495-2.88 0.75-3.56 1.42-3.64 1.97-5.12 5.25-1.94 0.875-1.94 0.875-4 1-0.99-0.66-1.98-1.32-3-2h2c0.33-3.63 0.66-7.26 1-11h4v-4c4.75-1 4.75-1 7-1z" fill="#00C175"/>
<path transform="translate(1338,687)" d="m0 0c0.33 0.66 0.66 1.32 1 2 0.99 0.33 1.98 0.66 3 1 3.4 8.93 3.44 20.1 0 29-3.43-3.43-3.96-8.03-4.05-12.7 0.0364-1.89 0.078-3.77 0.125-5.66-0.0658-2.45-0.414-4.25-1.2-6.55-0.875-3.06-0.875-3.06 0-5.5 0.371-0.516 0.743-1.03 1.12-1.56z" fill="#00C175"/>
<path transform="translate(1261,767)" d="m0 0c1.63 2.86 2.22 4.78 2.06 8.06-0.278 3.84-0.278 3.84 0.938 6.94 0.942 9.45-0.886 18.1-4 27-0.66 0.66-1.32 1.32-2 2-1.25-4.35-0.955-8.27-0.688-12.8 0.0354-0.773 0.0709-1.55 0.107-2.34 0.254-4.52 0.93-8.62 2.12-13 0.745-3.12 0.902-6.24 1.09-9.43 0.0748-1.23 0.15-2.45 0.227-3.72 0.049-0.918 0.098-1.84 0.148-2.78z" fill="#00C175"/>
<path transform="translate(500,1095)" d="m0 0h8c0.33 0.99 0.66 1.98 1 3 3.03 1.69 6.13 3.06 9.31 4.44 2.69 1.56 2.69 1.56 3.56 3.75 0.0412 0.598 0.0825 1.2 0.125 1.81h7c0.33 0.66 0.66 1.32 1 2-0.33 0.66-0.66 1.32-1 2 1.32 0.66 2.64 1.32 4 2-0.66 0.66-1.32 1.32-2 2v-2c-2.76-0.597-5.16-1-8-1-0.66-1.65-1.32-3.3-2-5h-4c-2.69-1.31-2.69-1.31-5-3-0.33-0.99-0.66-1.98-1-3-2.21-1.09-2.21-1.09-5-2-1.27-0.533-2.55-1.07-3.81-1.62-1.05-0.454-2.1-0.908-3.19-1.38 0.33-0.66 0.66-1.32 1-2z" fill="#00C175"/>
<path transform="translate(1195,245)" d="m0 0c0.424 0.398 0.848 0.797 1.29 1.21 3.02 2.73 5.71 4.99 9.53 6.48 3.19 1.31 3.19 1.31 5.19 4.31 0.39 1.99 0.732 3.99 1 6-7.42-1.24-7.42-1.24-10.2-4.88-0.897-1.55-0.897-1.55-1.81-3.12-0.908-0.66-1.82-1.32-2.75-2-2.25-2-2.25-2-2.56-5.25 0.103-0.907 0.206-1.81 0.312-2.75z" fill="#03C175"/>
<path transform="translate(830,141)" d="m0 0c0.99 0.33 1.98 0.66 3 1v2h2c-0.99 3.3-1.98 6.6-3 10-0.33-0.66-0.66-1.32-1-2h-2c-1.07 6.32-2.13 12.6-3 19-0.66-0.33-1.32-0.66-2-1-0.364-11 1.74-18.9 6-29z" fill="#06C175"/>
<path transform="translate(1130,1180)" d="m0 0c0.99 0.33 1.98 0.66 3 1h-2v8c-0.99 0.33-1.98 0.66-3 1-0.33 0.99-0.66 1.98-1 3h-2v2c-1.98 0.66-3.96 1.32-6 2 0.325-3.57 0.639-5.56 2.94-8.38 2.06-1.62 2.06-1.62 4.06-1.62 0.433-1.45 0.433-1.45 0.875-2.94 1.12-3.06 1.12-3.06 3.12-4.06z" fill="#06C175"/>
<path transform="translate(1307,867)" d="m0 0h2v4h3v-4h2v4h3c-0.33 0.99-0.66 1.98-1 3h-2v2h3c-0.33 0.99-0.66 1.98-1 3h-9v-12z" fill="#00BF73"/>
<path transform="translate(717,1324)" d="m0 0c9.8 0.41 19.4 0.822 29 3-0.33 0.66-0.66 1.32-1 2-3.16 0.414-3.16 0.414-7.06 0.625-1.29 0.0748-2.58 0.15-3.91 0.227-0.999 0.049-2 0.098-3.03 0.148v-3c-1.61 0.495-1.61 0.495-3.25 1-3.75 1-3.75 1-7.75 1v-3h-3v-2z" fill="#06C175"/>
<path transform="translate(806,1323)" d="m0 0c0.66 0.66 1.32 1.32 2 2-0.33 1.65-0.66 3.3-1 5h-11c-0.33-1.65-0.66-3.3-1-5 4.07-2.71 6.16-2.31 11-2z" fill="#06C175"/>
<path transform="translate(1256,810)" d="m0 0c0.66 0.66 1.32 1.32 2 2-0.0483 2.25-0.0483 2.25-0.461 5.01-0.142 0.986-0.284 1.97-0.43 2.99-0.16 1.03-0.32 2.07-0.484 3.13-0.228 1.56-0.228 1.56-0.461 3.15-0.378 2.58-0.767 5.15-1.16 7.72h-3c0.495-1.49 0.495-1.49 1-3-0.293-1.67-0.627-3.34-1-5 0-4.23 1.21-7.76 2.56-11.8 0.269-0.799 0.539-1.6 0.816-2.42 0.205-0.603 0.41-1.21 0.621-1.83z" fill="#02C175"/>
<path transform="translate(787,1357)" d="m0 0c0.66 0.99 1.32 1.98 2 3-0.33 1.65-0.66 3.3-1 5h-12v-2c0.99-0.33 1.98-0.66 3-1v-4c2.79-1.39 4.92-1.26 8-1z" fill="#05C074"/>
<path transform="translate(536,1188)" d="m0 0c1.46 0.141 2.92 0.288 4.38 0.438 1.22 0.122 1.22 0.122 2.46 0.246 2.16 0.316 2.16 0.316 4.16 1.32v2h5v1c-2.97 0.66-5.94 1.32-9 2v-2c-0.866 0.278-0.866 0.278-1.75 0.562-2.46 0.478-3.89 0.195-6.25-0.562 0.33-1.65 0.66-3.3 1-5z" fill="#01C175"/>
<path transform="translate(941,1177)" d="m0 0c0.33 0.99 0.66 1.98 1 3-2.97 0.99-5.94 1.98-9 3v2c-4.95 1.48-4.95 1.48-10 3v-3c1.32-0.33 2.64-0.66 4-1v-2h6v-2c-0.66-0.33-1.32-0.66-2-1 3.62-1.32 6.1-2 10-2z" fill="#02C175"/>
<path transform="translate(1212,254)" d="m0 0c3.63 0.66 7.26 1.32 11 2 0.33 2.64 0.66 5.28 1 8-2.95-1.37-5.44-2.99-8-5h4c-0.33-0.33-0.66-0.66-1-1-4.65 0.448-4.65 0.448-9 2 0.506-2.17 1-4 2-6z" fill="#00BF73"/>
<path transform="translate(921,1187)" d="m0 0c0.33 0.66 0.66 1.32 1 2-2.62 0.696-5.25 1.38-7.88 2.06-0.746 0.199-1.49 0.398-2.26 0.604-5.64 1.45-5.64 1.45-7.86 0.334v-2c5.54-2.6 10.9-5.04 17-3z" fill="#01C175"/>
<path transform="translate(838,143)" d="m0 0h2v10c0.33 0.66 0.66 1.32 1 2-1.32 1.32-2.64 2.64-4 4-2.62-7.52-2.62-7.52-3-11 0.66-0.99 1.32-1.98 2-3h2v-2z" fill="#00C175"/>
<path transform="translate(1329,600)" d="m0 0c-0.0116 0.664-0.0232 1.33-0.0352 2.01-0.0838 6.55-0.0838 6.55 1.04 13h2c-0.33 1.32-0.66 2.64-1 4h-2c-2.01-5.78-2.22-10.9-2-17-2.64-0.33-5.28-0.66-8-1v-1c6.62-1.12 6.62-1.12 10 0z" fill="#06C175"/>
<path transform="translate(892,1312)" d="m0 0v4c-2.99 0.872-5.64 1.11-8.75 1.06-0.799-0.00902-1.6-0.018-2.42-0.0273-0.603-0.0116-1.21-0.0232-1.83-0.0352 1.25-2.5 2.35-2.92 4.81-4.19 0.687-0.365 1.37-0.73 2.08-1.11 2.47-0.828 3.69-0.56 6.11 0.293z" fill="#06C175"/>
<path transform="translate(843,123)" d="m0 0v5c-1.32 0.33-2.64 0.66-4 1-0.33 1.32-0.66 2.64-1 4-0.33-1.32-0.66-2.64-1-4-1.32 0.99-2.64 1.98-4 3 0.312-1.94 0.312-1.94 1-4 0.99-0.33 1.98-0.66 3-1-0.33-1.32-0.66-2.64-1-4 2.67-1.33 4.17-0.671 7 0z" fill="#05C074"/>
<path transform="translate(1281,651)" d="m0 0h3c0.0812 2.25 0.139 4.5 0.188 6.75 0.0348 1.25 0.0696 2.51 0.105 3.8-0.293 3.45-0.293 3.45-3.29 7.45v-18z" fill="#00C175"/>
<path transform="translate(830,141)" d="m0 0c0.99 0.33 1.98 0.66 3 1v2h2c-0.99 3.3-1.98 6.6-3 10-0.33-0.66-0.66-1.32-1-2h-2c-0.0269-1.65-0.0463-3.29-0.0625-4.94-0.0116-0.917-0.0232-1.83-0.0352-2.78 0.0977-2.29 0.0977-2.29 1.1-3.29z" fill="#03C175"/>
<path transform="translate(568,1202)" d="m0 0h10c0.66 2.31 1.32 4.62 2 7-0.99 0.33-1.98 0.66-3 1-3-3.75-3-3.75-3-6h-2c-0.33 0.99-0.66 1.98-1 3v-2h-3v-3z" fill="#02C175"/>
<path transform="translate(1326,613)" d="m0 0h1v7c0.99 0.33 1.98 0.66 3 1 1.35 2.71 1.07 5.01 1 8-0.99 0.33-1.98 0.66-3 1-1-2-1-2-0.938-5 0.281-3.12 0.281-3.12-2.06-5-0.188-3.06-0.188-3.06 0-6 0.33-0.33 0.66-0.66 1-1z" fill="#06C175"/>
<path transform="translate(1089,233)" d="m0 0c3.92 0.547 7.46 1.18 11 3 0.33 0.99 0.66 1.98 1 3 2 1.21 2 1.21 4 2h-7v-2c-1.45-0.402-1.45-0.402-2.94-0.812-1.01-0.392-2.02-0.784-3.06-1.19-0.33-0.99-0.66-1.98-1-3-0.66-0.33-1.32-0.66-2-1z" fill="#00C175"/>
<path transform="translate(533,1115)" d="m0 0c4.09-0.24 7.18 0.577 11 2-0.33 1.65-0.66 3.3-1 5h-4v-2c-0.619-0.0825-1.24-0.165-1.88-0.25-2.12-0.75-2.12-0.75-3.38-2.81-0.247-0.639-0.495-1.28-0.75-1.94z" fill="#01C175"/>
<path transform="translate(1255,777)" d="m0 0c2 1 2 1 2.68 2.61 0.443 3.35-0.0973 6.31-0.621 9.64-0.195 1.26-0.389 2.53-0.59 3.83-0.156 0.964-0.312 1.93-0.473 2.92h-2c0.33-6.27 0.66-12.5 1-19z" fill="#06C175"/>
<path transform="translate(1295,568)" d="m0 0c3.09 3.09 4.78 6.41 5.38 10.8-0.124 0.742-0.247 1.49-0.375 2.25-0.99 0.66-1.98 1.32-3 2-1.43-4.66-2.51-9.13-3-14 0.33-0.33 0.66-0.66 1-1z" fill="#00C175"/>
<path transform="translate(290,779)" d="m0 0c1.32 0.33 2.64 0.66 4 1v3c1.11-0.0412 2.23-0.0825 3.38-0.125 3.62 0.125 3.62 0.125 5.62 2.12h-13v-6z" fill="#06C175"/>
<path transform="translate(1019,1136)" d="m0 0c-4.69 4.69-10.7 5.44-17 6 2.47-2.9 4.95-3.97 8.5-5.25 0.959-0.356 1.92-0.712 2.91-1.08 2.59-0.672 2.59-0.672 5.59 0.328z" fill="#01C175"/>
<path transform="translate(953,1171)" d="m0 0c-3.02 3.26-6.26 5.62-10 8-0.33-1.32-0.66-2.64-1-4 3.8-2.83 6.19-4.57 11-4z" fill="#02C175"/>
<path transform="translate(985,193)" d="m0 0h2v9c-1.65-0.33-3.3-0.66-5-1 1.88-6.88 1.88-6.88 3-8z" fill="#00C175"/>
<path transform="translate(636,1459)" d="m0 0h9c-0.33 0.99-0.66 1.98-1 3-1.32-0.33-2.64-0.66-4-1-0.33 0.99-0.66 1.98-1 3-0.99-0.33-1.98-0.66-3-1v-4z" fill="#FDFEFE"/>
<path transform="translate(1165,1028)" d="m0 0h3c-0.484 4.26-1.2 6.75-4 10-0.66 0.99-1.32 1.98-2 3-0.188-2.81-0.188-2.81 0-6 1.5-1.62 1.5-1.62 3-3v-4z" fill="#00C175"/>
<path transform="translate(1186,224)" d="m0 0c2.47 0.495 2.47 0.495 5 1 0.33 1.98 0.66 3.96 1 6-1.98-0.66-3.96-1.32-6-2v-5z" fill="#05C175"/>
<path transform="translate(1247,888)" d="m0 0h2c-0.33 3.63-0.66 7.26-1 11-1.32 0.33-2.64 0.66-4 1 0.99-3.96 1.98-7.92 3-12z" fill="#06C175"/>
<path transform="translate(296,786)" d="m0 0h7v3c-2.71 1.35-5.01 1.07-8 1 0.33-1.32 0.66-2.64 1-4z" fill="#06C175"/>
<path transform="translate(565,1135)" d="m0 0c2.49 1.2 4.68 2.45 7 4v2c0.99 0.33 1.98 0.66 3 1-1.32 0.33-2.64 0.66-4 1v-2c-0.784-0.268-1.57-0.536-2.38-0.812-2.62-1.19-2.62-1.19-4.62-4.19 0.33-0.33 0.66-0.66 1-1z" fill="#05C175"/>
<path transform="translate(1092,1083)" d="m0 0 2 2c-0.99 1.48-0.99 1.48-2 3h-3c-0.33 0.99-0.66 1.98-1 3h-3c0.66-1.98 1.32-3.96 2-6 0.66 0.33 1.32 0.66 2 1l3-3z" fill="#00BF73"/>
<path transform="translate(1238,880)" d="m0 0h1v6h-2c-0.124 1.11-0.247 2.23-0.375 3.38-0.625 3.62-0.625 3.62-2.62 5.62-0.228-3.96 0.449-6.68 2-10.3 0.371-0.883 0.743-1.77 1.12-2.68 0.289-0.664 0.578-1.33 0.875-2.01z" fill="#00C175"/>
</svg>
