<?xml version="1.0" encoding="UTF-8"?>
<svg version="1.1" viewBox="0 0 1600 1464" width="1280" height="1280" xmlns="http://www.w3.org/2000/svg">
<path transform="translate(0)" d="m0 0h1600v1464h-1600v-1464z" fill="#00BE72"/>
<path transform="translate(0)" d="m0 0h1600v1464h-1600v-1464zm700 88.7c-2.72 0.406-5.44 0.768-8.17 1.13-14.7 2.01-28.9 4.84-43.3 8.51-3.16 0.793-6.32 1.52-9.5 2.23-9.42 2.12-18.6 4.89-27.8 7.73-2.94 0.891-5.89 1.73-8.84 2.57-35 10-68.4 24.7-101 41.2-1.89 0.955-3.78 1.89-5.68 2.82-36.4 17.9-73.5 40.5-104 67.1-2.2 1.88-4.41 3.75-6.62 5.62l-1.68 1.43c-3.01 2.55-6.06 5.04-9.19 7.44-8.53 6.55-16.8 13.4-24.2 21.2-1.91 1.89-3.86 3.63-5.89 5.38-5.23 4.53-10.1 9.42-15 14.3-0.907 0.903-1.81 1.81-2.75 2.74-4.54 4.55-8.94 9.14-13.1 14-2.42 2.8-4.97 5.48-7.5 8.18-4.97 5.34-9.59 10.9-14.1 16.6-1.23 1.52-2.46 3.04-3.69 4.56-22.9 28.7-43.9 59-61.3 91.4-0.394 0.731-0.787 1.46-1.19 2.21-2.52 4.69-4.99 9.41-7.44 14.1-0.94 1.82-1.88 3.63-2.83 5.44-14.1 27-25.8 55.3-35.5 84.2-0.33 0.967-0.66 1.93-1 2.93-27.6 81.5-35.9 165-30.3 251 0.239 3.66 0.422 7.32 0.592 11 4.14 79.8 30.5 161 84.5 266 0.783 1.34 1.56 2.68 2.34 4.02 6.42 11.1 13.3 21.9 20.5 32.5 0.4 0.589 0.799 1.18 1.21 1.78 10.7 15.8 22 31.1 34.4 45.5 2.38 2.78 4.67 5.63 6.95 8.48 4.31 5.31 8.94 10.3 13.6 15.2 3.41 3.6 6.66 7.26 9.78 11.1 0.628 0.632 0.628 0.632 1.27 1.28h2c0.362 0.85 0.362 0.85 0.732 1.72 1.52 2.74 3.34 4.59 5.56 6.8l2.61 2.6 2.73 2.69c0.878 0.877 1.76 1.75 2.66 2.66 4.57 4.54 9.2 8.94 14.1 13.1 1.39 1.22 2.7 2.52 3.99 3.85 1.49 1.79 1.49 1.79 3.62 1.56v2c1.57 1.41 3.21 2.76 4.88 4.06 3.78 3.02 7.45 6.09 11 9.38 8.55 7.77 18 14.5 27.3 21.4 3.71 2.82 7.32 5.77 10.9 8.75 1.83 1.63 1.83 1.63 3.96 1.43v2c1.93 1.31 1.93 1.31 4.56 2.69 6.29 3.55 12.3 7.46 18.3 11.4 10.3 6.81 20.9 13.2 31.6 19.4 1.59 0.919 3.19 1.84 4.77 2.77 14.1 8.25 28.9 15 43.7 21.7 0.893 0.405 1.79 0.81 2.71 1.23 4.39 1.99 8.79 3.94 13.2 5.86 1.41 0.614 2.81 1.23 4.21 1.86 60.5 26.9 130 43 196 47.1 1.42 0.091 2.84 0.182 4.26 0.273 59.9 3.8 121 2.78 180-10.6 3.12-0.702 6.24-1.37 9.37-2.03 12-2.55 23.8-5.4 35.6-8.63 1.13-0.308 2.26-0.616 3.42-0.933 35.7-9.97 70.2-24 104-40.1 0.681-0.328 1.36-0.656 2.06-0.995 35.3-17 68.9-37.1 99.9-61l3.16-2.42c2.18-1.68 4.37-3.36 6.54-5.04 2.21-1.71 4.43-3.4 6.66-5.08 6.85-5.18 13.3-10.6 19.6-16.5 1.33-1.17 2.66-2.34 4-3.5 3.89-3.39 7.72-6.84 11.6-10.3 2.19-1.96 4.41-3.9 6.64-5.82 2.62-2.27 5.08-4.63 7.5-7.12 2.01-2.06 3.55-3.39 6.06-4.88 2.4-1.22 2.4-1.22 3.57-3.64 1.93-3.14 4.14-5.32 6.8-7.86 4.52-4.39 8.51-9 12.4-13.9 2.81-3.38 5.79-6.56 8.81-9.75 5.85-6.2 11.2-12.7 16.3-19.5 1.29-1.69 2.59-3.38 3.89-5.06 2.48-3.21 4.95-6.43 7.41-9.65 0.762-0.998 1.52-2 2.31-3.02 5.03-6.64 9.86-13.4 14.5-20.3 0.762-1.12 1.53-2.24 2.29-3.36 8.1-11.8 15.5-24 22.9-36.3 0.615-1.03 1.23-2.06 1.86-3.12 6.74-11.3 13.4-22.7 19-34.6 1.34-2.8 2.69-5.59 4.04-8.39 2.6-5.39 5.18-10.8 7.76-16.2 1.06-2.21 2.12-4.42 3.2-6.63 3.03-6.34 5.52-12.8 7.76-19.4 1.35-4 2.84-7.93 4.43-11.8 3.46-8.49 6.49-17.1 9.3-25.8 0.352-1.09 0.352-1.09 0.712-2.2 13.9-43.3 23.7-89.4 26.7-135 0.227-3.25 0.498-6.5 0.769-9.75 2.95-37.7 2.35-75.6-1.36-113-0.196-2.03-0.38-4.05-0.558-6.08-2.24-25.4-6.31-50.4-12-75.3-0.642-2.81-1.26-5.63-1.88-8.45-2.3-10.5-4.89-20.8-8.06-31-0.737-2.41-1.44-4.84-2.14-7.26-6.34-21.8-14.1-43.1-22.8-64.1-0.363-0.883-0.727-1.77-1.1-2.68-3.2-7.57-6.91-14.9-10.6-22.2-1.63-3.25-3.23-6.51-4.82-9.77-11.4-23.2-24-45.5-38.4-67-0.824-1.23-0.824-1.23-1.67-2.48-1.08-1.61-2.17-3.22-3.26-4.83-0.492-0.73-0.983-1.46-1.49-2.21-0.44-0.649-0.88-1.3-1.33-1.97-1.07-1.77-1.07-1.77-2.07-4.77h-2c-0.246-0.721-0.492-1.44-0.746-2.18-1.4-3.14-3.09-5.27-5.32-7.88-3.22-3.84-6.33-7.72-9.31-11.8-8.64-11.6-17.7-22.8-27.2-33.6-1.68-1.91-3.34-3.84-5.01-5.76-1.12-1.27-2.25-2.54-3.38-3.81-0.724-0.817-1.45-1.63-2.2-2.48-8.89-9.87-18.4-19.2-27.8-28.5-2.37-2.36-4.74-4.73-7.07-7.14-4.73-4.86-9.68-9.23-15-13.5-3.2-2.58-6.33-5.22-9.45-7.88-4.93-4.19-9.89-8.33-14.9-12.4-1.62-1.31-3.22-2.64-4.82-3.98-8.46-7-17.7-13-26.8-19.1l-2.05-1.38c-3.68-2.48-7.37-4.93-11.1-7.38-1.28-0.845-2.56-1.69-3.84-2.54-19.3-12.8-39.5-23.7-60.1-34.2-2.43-1.24-4.85-2.49-7.27-3.75-30.2-15.6-62.2-28-94.7-37.8-0.974-0.297-1.95-0.594-2.95-0.9-87.7-26.7-188-34.7-279-20.4z" fill="#FDFDFD"/>
<path transform="translate(791 277)" d="m0 0c3.84-0.00218 7.68-0.0204 11.5-0.0393 12.1-0.0281 24.1 0.174 36.2 1.11 1.53 0.117 1.53 0.117 3.09 0.236 5.26 0.459 9.96 1.28 15 2.88 2.77 0.452 5.53 0.865 8.31 1.25 37.4 5.63 74.2 17.5 109 32.8 0.974 0.428 1.95 0.855 2.95 1.3 42 18.5 81.1 43.8 115 74.7 1.77 1.58 3.54 3.17 5.31 4.75 3.33 3 6.56 6.04 9.69 9.25 0.611 0.589 1.22 1.18 1.85 1.79 0.647 0.628 1.29 1.26 1.96 1.9 0.605 0.581 1.21 1.16 1.83 1.76 1.36 1.55 1.36 1.55 1.36 3.55h2c1.38 1.4 1.38 1.4 3 3.38 2.77 3.27 5.66 6.28 8.75 9.25 5.41 5.35 10 11.2 14.6 17.2 1.26 1.64 2.53 3.27 3.81 4.9 6.96 8.89 13.3 18.1 19.6 27.5 0.525 0.79 1.05 1.58 1.59 2.39 29.9 45 52.1 95.5 63.7 148 0.246 1.07 0.491 2.14 0.744 3.24 5.56 24.5 7.79 49.4 10 74.4 0.182 2.02 0.37 4.04 0.559 6.06 1.89 20.9 0.633 41.4-1.59 62.3-0.102 0.974-0.205 1.95-0.31 2.95-7.42 69.5-30.2 136-68.4 195-1.07 1.66-1.07 1.66-2.16 3.36-1.91 2.91-3.86 5.78-5.84 8.64-0.442 0.644-0.883 1.29-1.34 1.95-6.47 9.41-13.2 18.4-20.7 27-0.59 0.69-1.18 1.38-1.79 2.09-7.64 8.86-15.6 17.4-23.9 25.6-2.67 2.71-5.17 5.52-7.62 8.43-7.94 8.99-17.3 16.9-26.6 24.4-2.25 1.82-4.49 3.65-6.71 5.5-9.09 7.55-18.5 14.4-28.3 20.9-0.811 0.537-1.62 1.07-2.46 1.63-9.69 6.4-19.4 12.7-29.5 18.4-1.16 0.676-2.32 1.35-3.47 2.03-42.4 24.6-88.7 39.5-137 48.6-1.75 0.333-3.51 0.671-5.26 1.01-58.3 11-120 8.3-178-4.65-1.61-0.36-1.61-0.36-3.24-0.728-60.3-13.7-118-40.8-167-78.3-0.628-0.475-1.26-0.949-1.9-1.44-10.3-7.76-20.3-15.8-29.8-24.4-2.08-1.89-4.2-3.72-6.33-5.55-6.87-6-13.2-12.5-19.1-19.4-2.32-2.59-4.79-5-7.28-7.43-5.32-5.23-9.99-10.9-14.6-16.7l-2.14-2.54c-17.7-21-33.2-45.1-45.9-69.5-0.462-0.883-0.924-1.77-1.4-2.67-23.8-45.7-52.9-111-48.6-163 1.5-2.43 1.5-2.43 3-4h-3c-2.22-6.47-2.67-12.9-3.12-19.7-0.0827-1.23-0.165-2.47-0.251-3.74-1.45-23.5-0.519-46.3 2.38-69.6l0.406-3.37c8.54-69.2 33.1-138 72.6-196 0.978-1.47 1.95-2.93 2.93-4.4 6.73-10.1 13.8-19.6 21.6-28.8 1.36-1.63 2.7-3.28 4.03-4.95 3.72-4.63 7.49-9.01 11.8-13.1 3.07-3.06 5.84-6.39 8.67-9.66 9.9-11.4 20.4-22.5 32.3-31.8 2.53-2.01 4.97-4.08 7.41-6.19 6.54-5.65 13.3-10.7 20.4-15.7 1.97-1.38 3.93-2.78 5.88-4.19 38.7-27.8 82.3-49.5 128-63.1 1.52-0.457 1.52-0.457 3.07-0.924 21.5-6.39 43.1-10.9 65.2-14.3 0.841-0.131 1.68-0.262 2.55-0.397 20.1-3.11 40-3.54 60.3-3.54z" fill="#FDFDFD"/>
<path transform="translate(875,87)" d="m0 0c1.88 0.188 3.75 0.376 5.63 0.562 1.46 0.146 2.91 0.292 4.37 0.438v2c-3.03 0.578-5.72 1.02-8.81 0.812-3.11 0.183-4.58 0.681-7.34 1.97-3.04 1.39-6.08 2.75-9.17 4.04-27.6 11.7-49.1 30-60.7 58.2-1.86 5.56-3.04 11.2-4 17-0.189 1.12-0.379 2.24-0.574 3.39-3.18 26.9 4.18 53.1 20.9 74.4 8.35 9.72 17.8 16.6 28.6 23.2 7.84 4.84 7.84 4.84 10 7-3.15-0.141-6.29-0.289-9.44-0.438-0.878-0.0393-1.76-0.0786-2.66-0.119-0.873-0.0419-1.75-0.0838-2.65-0.127-1.19-0.055-1.19-0.055-2.4-0.111-2.31-0.166-4.57-0.423-6.86-0.717-6.04-0.686-12.1-0.632-18.1-0.621-1.25-9.57e-4 -2.51-0.00191-3.8-0.0029-2.65-6.78e-4 -5.3 6.41e-4 -7.94 0.00534-4 0.00676-7.99 6.4e-5 -12-0.00635-21.1-0.00899-41.4 0.975-62.2 4.2-0.999 0.152-2 0.305-3.03 0.462-23.8 3.67-47 9.09-69.9 16.8-1.8 0.598-3.61 1.15-5.43 1.7-12.5 3.85-24.3 9.29-36.2 14.5-2.8 1.22-5.61 2.44-8.42 3.64-28.4 12.2-54 28.6-78.9 46.8-0.594 0.435-1.19 0.87-1.8 1.32-10.7 7.9-20.9 16.4-31 25.2-3.34 2.92-6.72 5.77-10.2 8.52-1-3-1-3 0.293-6.05 0.626-1.24 1.26-2.47 1.89-3.7 10.3-20.8 12.8-47.6 6-69.9l-1.19-3.38c-0.351-1.1-0.701-2.19-1.06-3.32-8.65-24.9-26.7-42.5-50.1-53.8-23.8-11.2-47.2-11-71.7-2.57-6.97 2.59-13.7 5.53-20 9.51-1.05 0.588-1.05 0.588-2.12 1.19-0.66-0.33-1.32-0.66-2-1 3.19-4.89 6.5-8.51 11-12.3 1.89-1.63 3.61-3.32 5.34-5.12 4.55-4.62 9.63-8.59 14.7-12.6l2.54-2.04c1.65-1.32 3.29-2.63 4.94-3.95 2.6-2.09 5.19-4.21 7.77-6.33 1.91-1.56 3.83-3.13 5.75-4.69 0.51-0.416 1.02-0.832 1.54-1.26 10.1-8.19 20.7-15.5 31.5-22.7l2.67-1.8c5.32-3.58 10.7-7.13 16-10.7 1.99-1.31 3.97-2.64 5.95-3.96 15.2-9.98 31.2-18.7 47.5-26.7 2.58-1.26 5.14-2.56 7.7-3.85 3.38-1.71 6.78-3.39 10.2-5.06 1.02-0.504 1.02-0.504 2.05-1.02 20.3-10 41.5-19.3 63-26.3 2.06-0.683 4.11-1.39 6.17-2.11 11.8-4.07 23.7-7.36 35.8-10.5 1.7-0.449 3.4-0.898 5.09-1.35 3.17-0.837 6.34-1.67 9.51-2.5 2.81-0.736 5.62-1.48 8.42-2.25 16.1-4.38 32.1-7.08 48.6-9.42 3.08-0.443 6.16-0.902 9.24-1.37 1.79-0.267 3.58-0.534 5.36-0.801 1.16-0.179 1.16-0.179 2.34-0.361 13-1.91 26.3-2.18 39.4-2.51 0.797-0.0208 1.59-0.0417 2.42-0.0632 40.4-1.03 81.3-1.55 122 2.63z" fill="#000100"/>
<path transform="translate(764 593)" d="m0 0c0.723 0.599 1.45 1.2 2.19 1.82 0.672 0.548 1.34 1.1 2.04 1.66 24 21.7 28.1 57.9 29.9 88.3 0.284 5.85 0.265 11.7 0.268 17.6 0.00323 1.45 0.0066 2.89 0.0101 4.34 0.00593 3.01 0.00785 6.02 0.00725 9.03-8.09e-5 3.03 0.00681 6.06 0.0205 9.09 0.373 84 0.373 84-26.2 114-0.507 0.599-1.01 1.2-1.54 1.82-13.2 14.4-33 19.3-51.8 20.3-11.6 0.457-22.4-0.39-33.7-3.12-1.38-0.307-1.38-0.307-2.79-0.621-10.1-2.58-19.3-8.73-27.2-15.4-0.632-0.513-1.26-1.03-1.91-1.55-12.7-11.4-18.7-28.4-23.1-44.4-0.214-0.775-0.428-1.55-0.648-2.35-6.11-23.1-5.71-47.7-5.6-71.4 0.00343-1.22 0.00687-2.43 0.0104-3.69 0.284-86 0.284-86 26.2-116 0.62-0.724 1.24-1.45 1.88-2.2 26.4-28.7 81.5-30.8 112-7.62z" fill="#000100"/>
<path transform="translate(520,583)" d="m0 0c0.889 0.276 1.78 0.552 2.7 0.836 19.8 6.92 33.3 24.2 42.5 42.3 21.7 45.9 17.6 113 1.15 160-9.73 26.4-27.9 47.2-53.4 59.5-21.4 9.86-45.6 12.6-68.9 11.4-2.65-2.65-1.19-10.4-1.19-13.9-0.0122-1.22-0.0245-2.44-0.0371-3.69-0.00193-1.16-0.00387-2.32-0.00586-3.52-0.00411-1.07-0.00822-2.14-0.0125-3.25 0.243-2.6 0.243-2.6 2.24-4.6 1.85-0.363 1.85-0.363 4.12-0.527 0.843-0.0679 1.69-0.136 2.56-0.206 0.911-0.0674 1.82-0.135 2.76-0.204 20.1-1.75 41.4-3.76 57.6-17.1 0.828-0.668 1.66-1.34 2.51-2.02 17.2-14.7 23.7-35.2 26-57.1 0.237-2.95 0.431-5.88 0.539-8.84-3.7 2.09-6.75 4.44-9.94 7.25-8.76 7.25-18.9 12.2-30.1 14.8-0.886 0.215-1.77 0.431-2.68 0.652-19.6 4.07-40.8-0.719-57.6-11.3-19.9-14.1-30.4-35.4-35-59-3.99-29.6 1.25-59.3 18.2-84.2 13.9-18.2 33.3-27.9 55.6-31.4 14-1.87 27.1-0.179 40.4 4.19z" fill="#000100"/>
<path transform="translate(712 608)" d="m0 0c0.947-0.0206 1.89-0.0412 2.87-0.0625 11.7-0.0638 20.6 3.25 29.3 10.9 23.6 24.2 19.4 66.2 19.3 97.1-8.1e-5 2.91 0.00684 5.83 0.0205 8.74 0.0693 15-0.0391 30-1.08 45-0.0762 1.11-0.152 2.23-0.231 3.37-1.41 18-5.66 37.7-19.5 50.3-12.1 9.26-25.8 9.97-40.4 8.84-11.9-2.1-22-9.21-29-19-23.6-38.1-20.2-116-10.5-159 3.82-15.6 8.96-30.6 23.1-39.6 8.81-5.07 16-6.58 26-6.64z" fill="#FDFDFD"/>
<path transform="translate(1161,743)" d="m0 0c11.1 8.67 19.7 22.7 21.5 36.7 0.339 4.09 0.458 8.18 0.543 12.3 0.0599 1.95 0.0599 1.95 0.121 3.94 0.138 7.93-0.479 15.3-2.12 23.1-0.171 0.986-0.343 1.97-0.52 2.99-2.32 11.5-9.27 21.7-18.5 29-14.6 9.39-30.9 12.4-48.1 9.67-3.78-0.852-7.32-2.16-10.9-3.67-0.718-0.277-1.44-0.554-2.18-0.84-14.7-6.39-23.1-18.8-28.8-33.2-5.58-15.9-3.92-37.3 1-53 0.266-0.862 0.531-1.72 0.805-2.61 4.71-13.4 15.3-23 27.9-29 19.7-9.06 41-6.99 59.3 4.64z" fill="#000100"/>
<path transform="translate(1023,586)" d="m0 0c0.65 0.407 1.3 0.815 1.97 1.23 12.3 8.44 19.3 21.8 22.4 36.1 0.976 5.97 1.09 11.9 1.05 17.9-0.0085 2.1 0.0204 4.2 0.052 6.3 0.0861 16.7-3.53 31.4-15.2 43.8-11.2 10.6-24.2 15.1-39.5 15.1-18.7-0.549-33.1-5.99-46.2-19.7-9.55-12.2-12.1-27.3-12-42.4 0.00371-0.662 0.00741-1.32 0.0112-2.01 0.144-18.1 3.55-34.2 16.2-47.7 19-17.4 48.7-23.1 71.2-8.56z" fill="#000100"/>
<path transform="translate(515,615)" d="m0 0c16.8 13.7 24.3 34.3 27.5 55.1 0.305 2.99 0.448 5.94 0.531 8.95 0.0258 0.768 0.0516 1.54 0.0781 2.33 0.0801 2.64 0.13 5.28 0.172 7.92 0.0216 0.84 0.0432 1.68 0.0654 2.55 0.0644 12.5-6.29 20.1-14.6 28.9-7.48 7.27-15.9 11.1-25.7 14.3-0.99 0.33-1.98 0.66-3 1-13.1 1.17-25.9 0.798-36.8-7.31-1.41-1.21-2.81-2.44-4.19-3.69-0.603-0.477-1.21-0.954-1.83-1.45-12.5-10.7-16.5-30-18.2-45.6-1.1-18.9 3.48-39.4 16-54 4.72-5.22 9.53-9.2 16-12 0.628-0.303 1.26-0.606 1.9-0.918 13.5-6.28 29.9-3.95 42.1 3.92z" fill="#FDFDFD"/>
<path transform="translate(1116,610)" d="m0 0c14.3 6.39 14.3 6.39 18 12-0.312 4.04-1.84 6.68-4.06 10-2.63 4-5.2 8.03-7.69 12.1-3.11 5.07-6.31 10.1-9.56 15.1-4.2 6.46-8.27 13-12.3 19.6-4.01 6.59-8.08 13.1-12.2 19.7-0.614 0.982-1.23 1.96-1.86 2.98-2.97 4.75-5.96 9.49-8.98 14.2-3.15 4.94-6.17 9.96-9.16 15-4.25 7.13-8.63 14.1-13.2 21.1-3.29 5.04-6.46 10.1-9.58 15.3-4.01 6.62-8.15 13.1-12.4 19.6-3.22 4.95-6.31 9.96-9.37 15-4.47 7.37-9.07 14.6-13.8 21.9-0.647 1.01-1.29 2.02-1.96 3.06-0.611 0.939-1.22 1.88-1.85 2.85-0.814 1.26-0.814 1.26-1.64 2.54-1.54 2.05-1.54 2.05-4.54 4.05-2.82-1.59-5.63-3.2-8.44-4.81-1.2-0.678-1.2-0.678-2.43-1.37-1.15-0.662-1.15-0.662-2.31-1.34-1.06-0.605-1.06-0.605-2.14-1.22-1.67-1.26-1.67-1.26-2.67-4.26 1.04-2.29 1.04-2.29 2.69-4.99 0.608-1 1.22-2.01 1.84-3.05 1-1.62 1-1.62 2.03-3.28 0.684-1.12 1.37-2.24 2.07-3.4 5.49-8.99 11.1-17.9 16.8-26.7 8.65-13.5 17.1-27.1 25.4-40.8 4.14-6.79 8.43-13.5 12.7-20.2 4.95-7.76 9.74-15.6 14.5-23.5 3.83-6.32 7.75-12.6 11.8-18.8 2.35-3.64 4.65-7.31 6.94-11 3.64-5.85 7.31-11.7 11-17.5 5.48-8.67 10.9-17.4 16.3-26.1 0.488-0.788 0.977-1.58 1.48-2.39 0.958-1.55 1.91-3.11 2.85-4.67 0.441-0.725 0.881-1.45 1.34-2.2 0.386-0.642 0.772-1.28 1.17-1.95 1.08-1.5 1.08-1.5 3.08-2.5z" fill="#000100"/>
<path transform="translate(1143 760)" d="m0 0c7.92 6.51 11.6 14.6 13 24.6 0.212 4.25 0.185 8.5 0.188 12.8 0.0122 1.13 0.0245 2.26 0.0371 3.42 0.0172 9.92-0.643 18.5-6.22 26.8-0.578 0.887-1.15 1.77-1.75 2.69-5.78 5.94-13.3 7.58-21.3 7.69-8.49 0.0286-14.5-1.39-21-7.17-10.1-10.7-10.9-23.8-11-37.8 0.412-10.2 2.78-21.2 10.1-28.9 11-8.49 25.6-12 37.9-4.14z" fill="#FDFDFD"/>
<path transform="translate(1007 604)" d="m0 0c7.49 4.44 11.4 12.2 14.4 20.1 3.15 14.5 4.3 33.9-3.25 47.2-3.73 5.49-8.57 9.69-15.1 11.4-10.1 1.44-19.8 1.34-28.3-4.74-6.88-5.63-11-12.9-12.2-21.7-0.439-4.47-0.44-8.94-0.464-13.4-0.0206-0.973-0.0412-1.95-0.0625-2.95-0.0571-10.8 2.11-20.5 9.31-28.8 9.83-9.06 22.8-12.7 35.6-7.12z" fill="#FDFDFD"/>
<path transform="translate(1047,1322)" d="m0 0v6c-1.69 0.688-1.69 0.688-4 1-2.75-1.31-2.75-1.31-5-3v-2c3.13-1.86 5.37-2.2 9-2z" fill="#D2F2E6"/>
<path transform="translate(491,765)" d="m0 0c1.12 6.75 1.12 6.75 0 9h-2v-2c-0.66-0.33-1.32-0.66-2-1v-5c2-1 2-1 4-1z" fill="#8ECFB5"/>
</svg>
